<svg width="16" height="16" viewBox="0 0 16 16" fill="none" xmlns="http://www.w3.org/2000/svg">
<path fill-rule="evenodd" clip-rule="evenodd" d="M8.125 3.0125C10.8725 3.0125 13.1125 5.2525 13.1125 8C13.1125 10.7475 10.8725 12.9875 8.125 12.9875C5.3775 12.9875 3.1375 10.7475 3.1375 8C3.1375 5.2525 5.3775 3.0125 8.125 3.0125V3.0125ZM8.125 1.875C4.7475 1.875 2 4.6225 2 8C2 11.3775 4.7475 14.125 8.125 14.125C11.5025 14.125 14.25 11.3775 14.25 8C14.25 4.6225 11.5025 1.875 8.125 1.875V1.875ZM9 4.5H7.25V8.875H9V4.5V4.5ZM9 9.75H7.25V11.5H9V9.75V9.75Z" fill="#4B4B4B"/>
</svg>
