<svg xmlns="http://www.w3.org/2000/svg" xmlns:xlink="http://www.w3.org/1999/xlink" width="14pt" height="16pt" version="1.1" viewBox="0 0 14 16"><defs><linearGradient id="linear0" x1="-2115.003" x2="-2115.003" y1="1930.741" y2="1929.741" gradientTransform="matrix(2.582144,-2.427691,-0.360464,-0.338879,6164.959071,-4467.533365)" gradientUnits="userSpaceOnUse"><stop offset=".2" style="stop-color:#000;stop-opacity:.14902"/><stop offset=".85" style="stop-color:#616161;stop-opacity:.0117647"/></linearGradient><linearGradient id="linear1" x1="-2115.269" x2="-2114.269" y1="1946.356" y2="1946.356" gradientTransform="matrix(3.837136,0,0,-2.431135,8123.035597,4744.605779)" gradientUnits="userSpaceOnUse"><stop offset=".2" style="stop-color:#000;stop-opacity:.54902"/><stop offset=".85" style="stop-color:#616161;stop-opacity:.0117647"/></linearGradient></defs><g id="surface1"><path style="stroke:none;fill-rule:nonzero;fill:#42a5f5;fill-opacity:.8" d="M 2.585938 10.324219 L 0 7.894531 L 8.398438 0 L 13.570312 0 M 13.570312 7.285156 L 8.398438 7.285156 L 6.460938 9.105469 L 9.050781 11.535156"/><path style="stroke:none;fill-rule:nonzero;fill:#0d47a1;fill-opacity:1" d="M 6.460938 13.96875 L 8.398438 15.792969 L 13.570312 15.792969 L 9.050781 11.535156"/><path style="stroke:none;fill-rule:nonzero;fill:#42a5f5;fill-opacity:1" d="M 3.878906 11.535156 L 6.460938 9.109375 L 9.042969 11.535156 L 6.460938 13.964844 Z M 3.878906 11.535156"/><path style="stroke:none;fill-rule:nonzero;fill:url(#linear0)" d="M 6.460938 13.964844 L 9.042969 11.535156 L 9.40625 11.875 L 6.824219 14.308594 Z M 6.460938 13.964844"/><path style="stroke:none;fill-rule:nonzero;fill:url(#linear1)" d="M 6.460938 13.96875 L 10.296875 12.722656 L 9.050781 11.535156"/></g></svg>