<?xml version="1.0" encoding="utf-8"?>
<!-- Generator: Adobe Illustrator 23.1.1, SVG Export Plug-In . SVG Version: 6.00 Build 0)  -->
<svg version="1.1" id="Layer_1" xmlns="http://www.w3.org/2000/svg" xmlns:xlink="http://www.w3.org/1999/xlink" x="0px" y="0px"
	 viewBox="0 0 400 400" style="enable-background:new 0 0 400 400;" xml:space="preserve">
<style type="text/css">
	.st0{fill:#F1DB50;}
</style>
<rect class="st0" width="400" height="400"/>
<g>
	<path d="M238.11,254.39c10.61,5.64,21.57,6.27,32.9,3.05c17.48-4.96,26.35-23.48,17.93-38.47c-2.64-4.7-7.36-8.25-11.54-12.78
		c0.02-0.04,0.18-0.56,0.51-0.88c10.38-9.94,9.69-22.61-1.7-31.07c-11.35-8.43-27.74-7.77-38.37,1.56
		c-8.86,7.77-9.33,20.74-0.86,28.45c3.25,2.96,0.91,4.35-1.31,5.56C219.71,218.53,219.96,244.73,238.11,254.39z M258.12,185.29
		c4.76-0.07,7.2,2.44,7.22,7.44c0.03,4.64-2.61,7.03-7.69,6.99c-4.23-0.04-6.63-2.53-6.69-6.93
		C250.9,187.8,253.23,185.36,258.12,185.29z M257.76,215.65c7.92-0.08,13.12,5.1,13.12,13.07c0,8.28-4.33,12.7-12.53,12.81
		c-8.39,0.11-13.25-4.54-13.32-12.74C244.98,221.43,250.51,215.72,257.76,215.65z"/>
	<path d="M357.86,323.57c-7.15,0.3-14.32,0.07-21.49,0.15c-13.16,0.14-10.7-0.48-11.07,12.08c-0.09,2.98,1.47,4.24,4.29,4.22
		c4.33-0.03,8.68-0.32,12.98,0.04c1.53,0.13,3.9,1.55,4.23,2.81c2.01,7.77,0.21,10.33-7.61,11.87c-0.65,0.13-1.31,0.26-1.96,0.4
		c-23.06,4.99-40.86-13.44-35.08-36.32c4.45-17.59,22.89-25.81,38.49-17.16c7.11,3.94,7.11,3.94,13.21-1.89
		c0.36-0.35,0.73-0.68,1.09-1.03c4.21-4.09,4.29-7.05-0.97-9.7c-5.54-2.79-11.59-4.94-17.66-6.27
		c-27.28-5.99-51.75,12.23-53.68,40.01c-1.14,16.4,3.56,30.46,17.57,40.64c16.49,11.99,43.85,11.24,61.12,0.54
		c1.37-0.85,2.42-3.17,2.53-4.88c0.33-4.97,0.12-9.98,0.12-14.98c0.03,0,0.07,0,0.1,0c0-4.66-0.19-9.34,0.05-13.99
		C364.38,325.47,362.78,323.37,357.86,323.57z"/>
	<path d="M243.85,288.98c-1.06-2.33-2.41-4.52-4.21-7.84c-1.63,3.17-2.78,5.13-3.68,7.19c-5.81,13.26-11.58,26.55-17.36,39.83
		c-5.45,12.52-10.96,25.01-16.23,37.6c-0.57,1.36-0.25,4.39,0.63,4.86c5.45,2.95,14.5-0.43,17.89-5.74c1.12-1.76,3.63-3.6,5.59-3.69
		c8.98-0.39,18-0.4,26.98-0.01c1.91,0.08,4.76,2.04,5.39,3.79c1.74,4.77,4.7,6.5,9.5,6.07c2.15-0.19,4.33,0.02,6.5,0.03
		c5.48,0.03,5.92-0.72,3.68-5.67C266.96,339.95,255.44,314.45,243.85,288.98z M247.05,346.08c-5.13,0.36-10.29,0.42-15.42,0.2
		c-0.81-0.04-2.44-2.38-2.18-3.08c3.18-8.45,6.65-16.8,10.23-25.65c3.47,8.8,6.85,17.17,9.94,25.65
		C249.85,343.81,248.02,346.01,247.05,346.08z"/>
	<path d="M366.92,252.18c-0.34-9.48-0.09-18.98-0.54-28.45c-0.22-4.6-1.06-9.29-2.38-13.7c-2.79-9.3-10.88-14.95-20.62-15.16
		c-7.18-0.16-13.18,2.4-17.9,8.03c-2.77-6.62-2.77-6.62-10.31-6.55c-1.5,0.01-3-0.01-4.49-0.03c-6.04-0.11-6.66,0.38-6.68,6.37
		c-0.06,13.48-0.17,26.97,0.04,40.45c0.28,18.06-3.61,14.53,15.77,14.99c3.36,0.08,4.7-1.18,4.6-4.73
		c-0.25-8.65-0.16-17.31-0.09-25.97c0.02-2.14,0.16-4.36,0.75-6.4c1.74-6.03,5.85-8.17,13.39-7.28c5.47,0.65,7.66,3.12,7.85,9.61
		c0.19,6.82,0.06,13.65,0.05,20.47c-0.03,15.36-0.05,15.27,15.27,14.27C365.64,257.83,367.06,256.22,366.92,252.18z"/>
	<path d="M205.98,288.17c-0.01-4.5-1.64-6.09-6.24-6.02c-17.31,0.25-34.63,0.29-51.95,0.11c-9.78-0.1-11.48-1.9-10.91,11.9
		c0.01,0.17,0.03,0.33,0.03,0.5c0.03,3.54,1.75,5.09,5.33,4.93c4.65-0.21,9.34,0.05,13.97-0.35c4.53-0.38,5.77,1.53,5.73,5.77
		c-0.17,17.81-0.16,35.63-0.09,53.44c0.06,14.78-1.66,12.58,13.88,12.53c3.58-0.01,4.87-1.63,4.79-5.3
		c-0.22-9.98-0.08-19.97-0.08-29.96c-0.07,0-0.13,0-0.2,0c0-7.16-0.11-14.32,0.02-21.48c0.28-15.47-3-15.08,15.01-14.91
		C205.81,299.44,206.02,301.99,205.98,288.17z"/>
	<path d="M183.9,198.5c3.66-0.14,5.22,0.95,5.14,5.17c-0.31,16.48-0.13,32.96-0.19,49.45c-0.01,2.61,0.4,4.76,3.59,4.81
		c4.33,0.07,8.66,0.09,12.98-0.01c2.91-0.07,3.85-1.73,3.81-4.63c-0.14-10.99-0.06-21.98-0.06-32.96c-0.01,0-0.01,0-0.02,0
		c0-10.82-0.13-21.65,0.06-32.47c0.08-4.36-1.6-5.98-5.88-5.85c-7.15,0.22-14.32,0.14-21.48,0.11c-6.74-0.02-6.92,0.05-6.88,7.02
		C175.04,198.3,173.5,198.9,183.9,198.5z"/>
	<path d="M145.96,257.9c4.5,0.1,9,0.16,13.49,0.07c2.56-0.05,3.73-1.31,3.7-4.15c-0.16-16.33-0.17-32.66-0.17-48.99
		c0-8.46-0.01-8.51-8.7-8.48c-2,0.01-4.02,0.12-6-0.09c-4.44-0.48-5.93,1.57-5.85,5.81c0.17,8.33,0.05,16.67,0.05,25
		c0.03,0,0.06,0,0.1,0c0,8.83,0.09,17.66-0.06,26.49C142.48,256.2,143.16,257.84,145.96,257.9z"/>
	<path d="M152.1,185.94c7.7,0.22,13.21-4.64,13.31-11.73c0.09-6.93-5.24-12.44-12.16-12.56c-7.31-0.13-12.76,5.17-12.8,12.44
		C140.42,180.74,145.34,185.74,152.1,185.94z"/>
</g>
</svg>
