<?xml version="1.0" encoding="utf-8"?>
<!-- Generator: Adobe Illustrator 23.1.1, SVG Export Plug-In . SVG Version: 6.00 Build 0)  -->
<svg version="1.1" id="Objects" xmlns="http://www.w3.org/2000/svg" xmlns:xlink="http://www.w3.org/1999/xlink" x="0px" y="0px"
	 viewBox="0 0 800 800" style="enable-background:new 0 0 800 800;" xml:space="preserve">
<style type="text/css">
	.st0{fill:#8E2323;}
	.st1{fill:#EA8383;stroke:#EA8383;stroke-miterlimit:10;}
	.st2{fill:#FFFFFF;}
</style>
<g>
	<g>
		<path class="st0" d="M511.5,71.4h-232c-45.6,0-87.8,24.3-110.6,63.8L53,336.2c-22.8,39.5-22.8,88.2,0,127.7l115.9,200.9
			c22.8,39.5,65,63.8,110.6,63.8h232c45.6,0,87.8-24.3,110.6-63.8l116-200.9c22.8-39.5,22.8-88.2,0-127.7l-116-200.9
			C599.3,95.8,557.1,71.4,511.5,71.4z"/>
		<g>
			<g>
				<path class="st1" d="M53.4,518.5c16.6-72.3,60.3-189.1,84.9-240.6c6-11.9,10.5-14.8,15.9-6c9.9,15.9,15.2,58.5-0.7,108
					c-13.9,43.6-41.8,110.9-55.7,160.4c-15.9,57.4-14.5,96.1,6.7,94.1c29.8-2,66.3-67.4,86.2-135.7c3.3-8.9,8-7.9,10.5,0
					c5.3,15.9,3.3,36.7-4.7,61.4c-19.9,61.4-61.7,103-98.8,103C47.4,663.1,34.8,599.7,53.4,518.5z M201.1,260
					c-8.7,13.9-27.2,10.9-37.1-14.8c-10.5-26.7-7.3-56.5,3.3-73.3c10.5-16.8,29.8-4.9,38.4,21.8C214.3,219.4,209.8,246.1,201.1,260z
					"/>
				<path class="st1" d="M271.6,252.1c15.9-23,35-50.7,50.9-76.1c4.8-6.3,8.5-7.1,13.7,0c15.3,20.6,16.4,50.7-3.7,107.7
					c-30.7,88-89.6,234.5-131.5,384.3c-2.1,7.9-5.9,9.5-9.6,3.2c-8.5-14.3-12.7-38.8-2.7-88c10.5-49.9,62.1-206.7,101.8-314.6
					C263.7,271.1,266.9,259.2,271.6,252.1z"/>
				<path class="st1" d="M456.7,449.4c19.1,61.8,23.9,122-14.8,180.7c-27.6,42-82.2,55.5-113.4,32.4
					c-45.6-33.2-41.9-103.8-22.3-155.4c15.9-42.8,46.7-90.4,81.7-132.3c-8.5-28.6-14.8-57-12.7-80.1c4.3-53.9,32.3-95.8,64.7-114.9
					c47.2-27.8,96.5-6.3,92.8,71.3c14.8-5.6,26-4,32.8,2.4c4.8,4,4.8,10.3-0.5,14.3c-36,29.4-84.4,72.9-128.3,121.2
					C443,408.1,450.3,428.7,456.7,449.4z M333.1,551.6c-11.1,36.4-11.6,70.5,6.4,84c18,13.5,46.2,2.4,64.7-27
					c18-28.6,32.8-60.2,18-122c-4.8-19-11.1-38.8-18-59.4C372.4,467.5,345.9,510.4,333.1,551.6z M467.8,198.2
					c-26,7.1-51.9,54.7-51.9,96.6c0,13.5,2.1,27.8,5.9,42.8c26-27,53.5-50.7,77.9-67.4C501.8,229,492.2,191.8,467.8,198.2z"/>
				<path class="st1" d="M698.3,260c21.9,4.9,42.4,53.5,25.9,105c-13.9,43.6-46.4,116.9-61.7,168.4c-17.2,57.4-13.2,104,10.5,102
					c27.2-2,59.7-67.4,84.9-136.7c3.3-8.9,8-8.9,11.2-0.9c4.7,10.9,3.3,33.6-6,62.3c-17.9,55.5-59.7,106-98.1,106
					c-56.3,0-69.5-61.4-50.3-147.6c21.9-97,80.2-202.1,68.2-209.9c-6.7-4-45.1,23.8-87.4,93.2c-39.1,63.4-68.3,158.4-96.8,251.6
					c-2.7,8.9-6.7,12.8-12.5,4c-13.2-19.8-17.2-52.5-6.7-102c13.2-62.3,64.3-200.1,106.1-292.2c4.7-10.9,9.9-9.9,13.9,0
					c9.9,24.8,9.3,58.5,2,94.1C631.3,309.5,676.4,255.1,698.3,260z"/>
			</g>
			<g>
				<path class="st2" d="M36,498.6c16-69.7,58.1-182.3,81.7-231.8c5.7-11.5,10.3-14.3,15.3-5.7c9.6,15.2,14.7,56.3-0.7,104
					c-13.3,42-40.2,106.9-53.7,154.6c-15.3,55.4-14,92.6,6.4,90.6c28.7-1.9,63.8-64.9,83-130.7c3.2-8.5,7.6-7.6,10.3,0
					c5.1,15.2,3.2,35.4-4.5,59.1c-19.2,59.1-59.4,99.3-95.2,99.3C30.3,638,18.1,576.8,36,498.6z M178.4,249.6
					c-8.3,13.3-26.2,10.5-35.8-14.3c-10.3-25.8-7.1-54.5,3.2-70.6c10.3-16.3,28.7-4.8,37.1,21C191.3,210.5,186.7,236.2,178.4,249.6z
					"/>
				<path class="st2" d="M246.4,242c15.3-22.2,33.8-48.8,49-73.3c4.5-6.1,8.1-6.8,13.2,0c14.8,19.9,15.9,48.8-3.6,103.8
					c-29.6,84.8-86.4,226-126.7,370.2c-2,7.6-5.6,9.2-9.2,3.1c-8.1-13.7-12.3-37.4-2.5-84.8c10.3-48,59.8-199.3,98.1-303.1
					C238.8,260.3,241.8,248.8,246.4,242z"/>
				<path class="st2" d="M424.7,432c18.4,59.5,23,117.6-14.3,174c-26.6,40.4-79.1,53.4-109.3,31.4c-43.9-32-40.3-100-21.5-149.6
					c15.3-41.2,45-87,78.6-127.5c-8.1-27.5-14.3-55-12.3-77.1c4.1-51.9,31.1-92.4,62.3-110.6c45.5-26.7,93-6.1,89.4,68.7
					c14.3-5.3,25.1-3.9,31.6,2.3c4.5,3.9,4.5,9.9-0.5,13.7c-34.7,28.3-81.3,70.2-123.6,116.8C411.5,392.3,418.6,412.1,424.7,432z
					 M305.6,530.5c-10.7,35.1-11.2,67.9,6.1,80.9c17.4,12.9,44.4,2.3,62.3-25.9c17.4-27.5,31.6-58.1,17.4-117.6
					c-4.5-18.3-10.7-37.4-17.4-57.3C343.4,449.5,317.9,490.8,305.6,530.5z M435.4,190.1c-25.1,6.8-50.1,52.7-50.1,93.2
					c0,12.9,2,26.7,5.6,41.2c25.1-25.9,51.7-48.8,75.1-64.9C468.1,219.8,459,183.9,435.4,190.1z"/>
				<path class="st2" d="M657.5,249.6c21.1,4.8,40.8,51.5,25,101.2c-13.3,42-44.7,112.6-59.4,162.2c-16.6,55.4-12.8,100.2,10.3,98.2
					c26.2-1.9,57.5-64.9,81.7-131.7c3.2-8.5,7.6-8.5,10.8-0.9c4.4,10.5,3.2,32.4-5.7,60.1c-17.2,53.4-57.5,102.1-94.5,102.1
					c-54.3,0-67-59.1-48.6-142.1c21.1-93.6,77.3-194.7,65.8-202.3c-6.4-3.9-43.4,23-84.4,89.7c-37.6,61.1-65.8,152.7-93.3,242.4
					c-2.5,8.5-6.4,12.4-12.1,3.9c-12.8-19.1-16.6-50.6-6.4-98.2c12.8-60.1,61.9-192.7,102.2-281.5c4.4-10.5,9.6-9.5,13.3,0
					c9.6,23.9,8.9,56.3,1.9,90.6C592.9,297.2,636.4,244.8,657.5,249.6z"/>
			</g>
		</g>
	</g>
</g>
</svg>
