<?xml version="1.0" encoding="UTF-8"?>
<svg xmlns="http://www.w3.org/2000/svg" xmlns:xlink="http://www.w3.org/1999/xlink" width="49pt" height="16pt" viewBox="0 0 49 16" version="1.1">
<g id="surface1">
<path style=" stroke:none;fill-rule:nonzero;fill:rgb(0%,0%,0%);fill-opacity:1;" d="M 43.234375 13.921875 L 43.234375 16 L 47.328125 16 C 48.175781 16 49.609375 15.4375 49.660156 13.859375 L 49.660156 13.058594 C 49.660156 11.714844 48.460938 10.921875 47.328125 10.921875 L 45.289062 10.921875 L 45.289062 9.953125 L 49.339844 9.953125 L 49.339844 7.859375 L 45.449219 7.859375 C 44.441406 7.859375 43.109375 8.621094 43.109375 10.03125 L 43.109375 10.753906 C 43.109375 12.171875 44.433594 12.902344 45.449219 12.902344 C 48.273438 12.90625 44.773438 12.902344 47.382812 12.902344 L 47.382812 13.90625 M 21.246094 13.410156 C 21.246094 13.410156 23.441406 13.246094 23.441406 10.640625 C 23.441406 8.046875 20.789062 7.808594 20.789062 7.808594 L 15.992188 7.808594 L 15.992188 16 L 18.40625 16 L 18.40625 14.027344 L 20.488281 16 L 24.050781 16 Z M 20.320312 11.734375 L 18.40625 11.734375 L 18.40625 9.859375 L 20.332031 9.859375 C 20.332031 9.859375 20.871094 10.046875 20.871094 10.796875 C 20.871094 11.535156 20.320312 11.734375 20.320312 11.734375 Z M 29.390625 7.859375 L 26.941406 7.859375 C 25.207031 7.859375 24.613281 9.3125 24.613281 10 L 24.613281 16 L 27.058594 16 L 27.058594 14.5625 L 29.355469 14.5625 L 29.355469 16 L 31.722656 16 L 31.722656 10 C 31.722656 8.25 29.992188 7.859375 29.390625 7.859375 Z M 29.355469 12.246094 L 27.042969 12.246094 L 27.042969 10.25 C 27.042969 10.25 27.042969 9.808594 27.8125 9.808594 L 28.648438 9.808594 C 29.335938 9.808594 29.339844 10.25 29.339844 10.25 L 29.339844 12.246094 Z M 32.839844 7.859375 L 35.382812 7.859375 L 35.382812 16 L 32.839844 16 Z M 38.960938 13.902344 L 38.960938 7.859375 L 36.433594 7.859375 L 36.433594 16 L 42.386719 16 L 42.386719 13.902344 Z M 38.960938 13.902344 "/>
<path style=" stroke:none;fill-rule:nonzero;fill:rgb(0%,0%,0%);fill-opacity:1;" d="M 0.878906 16 L 10.789062 16 C 10.789062 16 8.894531 8.078125 15.160156 4.875 C 16.535156 4.265625 20.886719 1.996094 28.015625 6.8125 C 28.238281 6.640625 28.445312 6.503906 28.445312 6.503906 C 28.445312 6.503906 21.929688 0.535156 14.667969 1.203125 C 11.011719 1.503906 6.527344 4.558594 3.886719 8.578125 C 1.257812 12.597656 0.878906 16 0.878906 16 Z M 0.878906 16 "/>
<path style=" stroke:none;fill-rule:nonzero;fill:rgb(0%,0%,0%);fill-opacity:1;" d="M 0.878906 16 L 10.789062 16 C 10.789062 16 8.894531 8.078125 15.160156 4.875 C 16.535156 4.265625 20.886719 1.996094 28.015625 6.8125 C 28.238281 6.640625 28.445312 6.503906 28.445312 6.503906 C 28.445312 6.503906 21.929688 0.535156 14.667969 1.203125 C 11.011719 1.503906 6.527344 4.558594 3.886719 8.578125 C 1.257812 12.597656 0.878906 16 0.878906 16 Z M 0.878906 16 "/>
<path style=" stroke:none;fill-rule:nonzero;fill:rgb(0%,0%,0%);fill-opacity:1;" d="M 0.878906 16 L 10.789062 16 C 10.789062 16 8.894531 8.078125 15.160156 4.875 C 16.535156 4.265625 20.886719 1.996094 28.015625 6.8125 C 28.238281 6.640625 28.445312 6.503906 28.445312 6.503906 C 28.445312 6.503906 21.929688 0.535156 14.667969 1.203125 C 11.003906 1.503906 6.511719 4.558594 3.878906 8.578125 C 1.242188 12.597656 0.878906 16 0.878906 16 Z M 21.527344 1.847656 L 21.578125 1.078125 C 21.464844 1.027344 21.152344 0.878906 20.363281 0.683594 L 20.304688 1.4375 C 20.726562 1.5625 21.121094 1.703125 21.527344 1.847656 Z M 21.527344 1.847656 "/>
<path style=" stroke:none;fill-rule:nonzero;fill:rgb(0%,0%,0%);fill-opacity:1;" d="M 20.332031 4.285156 L 20.285156 5.003906 C 20.695312 5.027344 21.117188 5.066406 21.527344 5.152344 L 21.578125 4.4375 C 21.152344 4.359375 20.730469 4.3125 20.332031 4.285156 Z M 15.691406 0.703125 L 15.820312 0.703125 L 15.566406 0 C 15.175781 0 14.777344 0.0273438 14.367188 0.0664062 L 14.605469 0.75 C 14.96875 0.714844 15.328125 0.703125 15.691406 0.703125 Z M 16.296875 4.933594 L 16.582031 5.722656 C 16.945312 5.5625 17.316406 5.421875 17.679688 5.316406 L 17.398438 4.5625 C 16.972656 4.683594 16.609375 4.808594 16.296875 4.933594 Z M 10.601562 1.90625 L 10.035156 1.121094 C 9.722656 1.265625 9.398438 1.421875 9.054688 1.609375 L 9.636719 2.410156 C 9.964844 2.222656 10.273438 2.058594 10.601562 1.90625 Z M 13.167969 7.078125 L 13.773438 7.90625 C 13.980469 7.621094 14.242188 7.359375 14.511719 7.09375 L 13.953125 6.3125 C 13.660156 6.558594 13.402344 6.8125 13.167969 7.078125 Z M 11.355469 10.78125 L 12.367188 11.515625 C 12.414062 11.066406 12.507812 10.621094 12.632812 10.171875 L 11.734375 9.515625 C 11.5625 9.941406 11.453125 10.371094 11.355469 10.78125 Z M 5.855469 5.316406 L 4.96875 4.609375 C 4.640625 4.902344 4.332031 5.1875 4.042969 5.46875 L 5.003906 6.222656 C 5.269531 5.921875 5.554688 5.609375 5.855469 5.316406 Z M 2.070312 10.464844 L 0.628906 9.972656 C 0.390625 10.46875 0.125 11.046875 0 11.359375 L 1.441406 11.839844 C 1.605469 11.441406 1.871094 10.878906 2.070312 10.464844 Z M 11.167969 13.703125 C 11.1875 14.3125 11.25 14.808594 11.3125 15.152344 L 12.820312 15.640625 C 12.710938 15.191406 12.59375 14.6875 12.515625 14.152344 Z M 11.167969 13.703125 "/>
</g>
</svg>
