<?xml version="1.0" encoding="UTF-8"?>
<svg xmlns="http://www.w3.org/2000/svg" xmlns:xlink="http://www.w3.org/1999/xlink" width="17pt" height="16pt" viewBox="0 0 17 16" version="1.1">
<g id="surface1">
<path style=" stroke:none;fill-rule:nonzero;fill:rgb(100%,100%,100%);fill-opacity:1;" d="M 0.0507812 7.839844 C 0.0507812 9.152344 1.328125 10.378906 3.335938 11.066406 C 2.9375 13.097656 3.269531 14.738281 4.367188 15.375 C 5.5 16.03125 7.183594 15.578125 8.785156 14.171875 C 10.34375 15.519531 11.921875 16.050781 13.023438 15.410156 C 14.152344 14.753906 14.496094 13.003906 14.082031 10.910156 C 16.175781 10.214844 17.347656 9.171875 17.347656 7.839844 C 17.347656 6.558594 16.066406 5.449219 14.085938 4.761719 C 14.53125 2.582031 14.152344 0.984375 13.007812 0.316406 C 11.902344 -0.324219 10.308594 0.234375 8.726562 1.621094 C 7.078125 0.152344 5.5 -0.296875 4.351562 0.371094 C 3.246094 1.011719 2.9375 2.675781 3.335938 4.75 C 1.394531 5.425781 0.0507812 6.5625 0.0507812 7.839844 Z M 0.0507812 7.839844 "/>
<path style=" stroke:none;fill-rule:nonzero;fill:rgb(32.54902%,75.686275%,87.058824%);fill-opacity:1;" d="M 13.664062 5.441406 C 13.503906 5.386719 13.339844 5.332031 13.171875 5.285156 C 13.199219 5.175781 13.222656 5.0625 13.25 4.949219 C 13.625 3.121094 13.378906 1.652344 12.542969 1.167969 C 11.742188 0.703125 10.429688 1.1875 9.109375 2.34375 C 8.976562 2.457031 8.851562 2.574219 8.726562 2.699219 C 8.636719 2.613281 8.554688 2.535156 8.46875 2.457031 C 7.082031 1.222656 5.691406 0.699219 4.855469 1.1875 C 4.058594 1.652344 3.816406 3.035156 4.15625 4.765625 C 4.191406 4.9375 4.226562 5.109375 4.269531 5.277344 C 4.074219 5.332031 3.886719 5.394531 3.699219 5.457031 C 2.074219 6.027344 1.039062 6.921875 1.039062 7.84375 C 1.039062 8.800781 2.152344 9.761719 3.84375 10.34375 C 3.980469 10.390625 4.121094 10.4375 4.257812 10.472656 C 4.21875 10.65625 4.175781 10.84375 4.140625 11.027344 C 3.816406 12.722656 4.066406 14.078125 4.867188 14.542969 C 5.691406 15.015625 7.078125 14.527344 8.425781 13.34375 C 8.527344 13.25 8.636719 13.152344 8.746094 13.046875 C 8.875 13.175781 9.015625 13.300781 9.160156 13.425781 C 10.46875 14.558594 11.757812 15.011719 12.554688 14.546875 C 13.378906 14.066406 13.644531 12.613281 13.296875 10.855469 C 13.269531 10.71875 13.238281 10.578125 13.203125 10.441406 C 13.300781 10.410156 13.402344 10.378906 13.492188 10.355469 C 15.253906 9.761719 16.398438 8.816406 16.398438 7.84375 C 16.398438 6.917969 15.324219 6.019531 13.664062 5.441406 Z M 13.664062 5.441406 "/>
<path style=" stroke:none;fill-rule:nonzero;fill:rgb(100%,100%,100%);fill-opacity:1;" d="M 13.285156 9.722656 C 13.199219 9.75 13.117188 9.78125 13.027344 9.800781 C 12.835938 9.1875 12.570312 8.53125 12.25 7.847656 C 12.554688 7.1875 12.804688 6.535156 12.996094 5.921875 C 13.15625 5.96875 13.308594 6.015625 13.453125 6.066406 C 14.875 6.558594 15.742188 7.285156 15.742188 7.84375 C 15.742188 8.441406 14.804688 9.21875 13.285156 9.722656 Z M 12.652344 10.980469 C 12.804688 11.761719 12.828125 12.46875 12.726562 13.019531 C 12.632812 13.511719 12.453125 13.84375 12.222656 13.972656 C 11.742188 14.261719 10.703125 13.890625 9.585938 12.925781 C 9.460938 12.816406 9.332031 12.699219 9.203125 12.574219 C 9.632812 12.097656 10.070312 11.542969 10.488281 10.925781 C 11.230469 10.863281 11.933594 10.753906 12.570312 10.609375 C 12.601562 10.734375 12.628906 10.859375 12.652344 10.980469 Z M 6.273438 13.925781 C 5.800781 14.09375 5.421875 14.105469 5.199219 13.96875 C 4.710938 13.6875 4.507812 12.605469 4.785156 11.152344 C 4.8125 10.980469 4.855469 10.808594 4.898438 10.636719 C 5.523438 10.777344 6.21875 10.875 6.96875 10.9375 C 7.394531 11.542969 7.839844 12.09375 8.285156 12.574219 C 8.191406 12.667969 8.09375 12.761719 7.996094 12.84375 C 7.398438 13.371094 6.796875 13.738281 6.273438 13.925781 Z M 4.058594 9.71875 C 3.308594 9.464844 2.6875 9.128906 2.265625 8.765625 C 1.882812 8.4375 1.691406 8.109375 1.691406 7.84375 C 1.691406 7.285156 2.527344 6.566406 3.917969 6.078125 C 4.09375 6.019531 4.265625 5.964844 4.445312 5.910156 C 4.636719 6.542969 4.890625 7.199219 5.191406 7.863281 C 4.886719 8.535156 4.632812 9.203125 4.4375 9.839844 C 4.3125 9.800781 4.179688 9.761719 4.058594 9.71875 Z M 4.800781 4.640625 C 4.511719 3.15625 4.699219 2.035156 5.1875 1.761719 C 5.703125 1.457031 6.835938 1.886719 8.03125 2.953125 C 8.109375 3.019531 8.1875 3.09375 8.265625 3.167969 C 7.816406 3.652344 7.378906 4.199219 6.957031 4.792969 C 6.230469 4.863281 5.539062 4.96875 4.90625 5.113281 C 4.867188 4.957031 4.828125 4.796875 4.800781 4.640625 Z M 11.429688 6.28125 C 11.277344 6.027344 11.117188 5.765625 10.960938 5.511719 C 11.449219 5.574219 11.921875 5.65625 12.359375 5.761719 C 12.226562 6.183594 12.0625 6.628906 11.871094 7.089844 C 11.726562 6.816406 11.578125 6.546875 11.429688 6.28125 Z M 8.726562 3.640625 C 9.027344 3.96875 9.332031 4.332031 9.628906 4.734375 C 9.023438 4.707031 8.414062 4.707031 7.8125 4.734375 C 8.113281 4.339844 8.414062 3.972656 8.726562 3.640625 Z M 6.003906 6.292969 C 5.855469 6.550781 5.710938 6.816406 5.570312 7.089844 C 5.378906 6.628906 5.214844 6.183594 5.085938 5.75 C 5.519531 5.652344 5.988281 5.574219 6.476562 5.511719 C 6.3125 5.765625 6.15625 6.027344 6.003906 6.292969 Z M 6.488281 10.230469 C 5.988281 10.171875 5.515625 10.097656 5.074219 10 C 5.207031 9.558594 5.375 9.105469 5.570312 8.640625 C 5.710938 8.90625 5.855469 9.171875 6.007812 9.4375 C 6.164062 9.703125 6.324219 9.96875 6.488281 10.230469 Z M 8.742188 12.097656 C 8.429688 11.765625 8.121094 11.390625 7.816406 10.988281 C 8.113281 11 8.410156 11.003906 8.714844 11.003906 C 9.03125 11.003906 9.339844 11 9.644531 10.984375 C 9.34375 11.394531 9.042969 11.769531 8.742188 12.097656 Z M 11.875 8.613281 C 12.078125 9.082031 12.253906 9.542969 12.390625 9.972656 C 11.941406 10.074219 11.464844 10.15625 10.957031 10.21875 C 11.117188 9.957031 11.277344 9.699219 11.429688 9.433594 C 11.585938 9.160156 11.730469 8.890625 11.875 8.613281 Z M 10.863281 9.105469 C 10.628906 9.511719 10.382812 9.90625 10.125 10.296875 C 9.671875 10.328125 9.199219 10.34375 8.714844 10.34375 C 8.238281 10.34375 7.777344 10.332031 7.324219 10.300781 C 7.0625 9.910156 6.8125 9.515625 6.574219 9.109375 C 6.339844 8.699219 6.121094 8.285156 5.917969 7.863281 C 6.121094 7.4375 6.339844 7.019531 6.574219 6.621094 C 6.804688 6.207031 7.054688 5.8125 7.320312 5.425781 C 7.777344 5.390625 8.242188 5.375 8.714844 5.375 C 9.191406 5.375 9.660156 5.390625 10.121094 5.425781 C 10.382812 5.8125 10.625 6.207031 10.859375 6.613281 C 11.09375 7.019531 11.316406 7.433594 11.515625 7.855469 C 11.316406 8.277344 11.097656 8.691406 10.863281 9.105469 Z M 12.210938 1.738281 C 12.730469 2.035156 12.929688 3.238281 12.605469 4.816406 C 12.585938 4.917969 12.558594 5.019531 12.539062 5.125 C 11.902344 4.972656 11.207031 4.863281 10.484375 4.796875 C 10.058594 4.191406 9.625 3.640625 9.183594 3.167969 C 9.296875 3.058594 9.417969 2.949219 9.535156 2.839844 C 10.671875 1.847656 11.730469 1.457031 12.210938 1.738281 Z M 12.210938 1.738281 "/>
<path style=" stroke:none;fill-rule:nonzero;fill:rgb(32.54902%,75.686275%,87.058824%);fill-opacity:1;" d="M 8.714844 6.46875 C 9.472656 6.46875 10.089844 7.082031 10.089844 7.84375 C 10.089844 8.609375 9.472656 9.222656 8.714844 9.222656 C 7.957031 9.222656 7.347656 8.609375 7.347656 7.84375 C 7.347656 7.082031 7.957031 6.46875 8.714844 6.46875 "/>
</g>
</svg>
