<svg viewBox="0 0 50 50" xmlns="http://www.w3.org/2000/svg"><path d="m23.65-.12a15.42 15.42 0 0 0 3.75 2.05q2.36 1 5.1 2.25a62 62 0 0 1 5.56 3 21.56 21.56 0 0 1 5 4.3 22.05 22.05 0 0 1 3.71 6.2 23.14 23.14 0 0 1 1.44 8.6 23 23 0 0 1 -1.9 9.35 24.17 24.17 0 0 1 -22.3 14.55 23.3 23.3 0 0 1 -7.8-1.3 23.88 23.88 0 0 1 -15.1-15.8 15.25 15.25 0 0 1 -.6-2.45 16.7 16.7 0 0 1 -.2-3.7 26.4 26.4 0 0 1 .6-4.3 12.07 12.07 0 0 1 1.9-4.25 19.3 19.3 0 0 1 3.49-3.85 40.09 40.09 0 0 1 4-2.95q2-1.29 3.9-2.4a17.76 17.76 0 0 0 3.3-2.4 6.47 6.47 0 0 1 -1 2.2 10.69 10.69 0 0 1 -1.7 1.9q-1 .9-2.1 1.8a16 16 0 0 0 -2.1 2.1 12.69 12.69 0 0 0 -3.2 5.35 19.49 19.49 0 0 0 -.55 3.95 10.74 10.74 0 0 0 .65 3.55 12.07 12.07 0 0 0 1.85 3.37 10 10 0 0 0 2.9 2.55 7.16 7.16 0 0 0 3.7 1 5.39 5.39 0 0 0 3.4-1 4.89 4.89 0 0 0 1.75-2.3 3.91 3.91 0 0 0 0-2.55 2.69 2.69 0 0 0 -1.65-1.7 4.05 4.05 0 0 0 -3-.2 6.86 6.86 0 0 0 -1.1.7 2.59 2.59 0 0 1 -.2-2.2 6.07 6.07 0 0 1 1.5-2.3 15 15 0 0 1 4.1-2.65 18 18 0 0 0 4.25-2.52 12.39 12.39 0 0 0 2.15-2.25 3.55 3.55 0 0 0 .8-2.1 5.49 5.49 0 0 1 .55 2 5.27 5.27 0 0 1 -.15 1.7 12.05 12.05 0 0 1 -.5 1.7 7.73 7.73 0 0 0 2-1.15 13.89 13.89 0 0 0 1.3-1.15 13.56 13.56 0 0 0 .91-1.2 14.9 14.9 0 0 1 .14 2.62 9.19 9.19 0 0 1 -.2 2 6.41 6.41 0 0 1 -.5 1.5 3.93 3.93 0 0 0 .75-.35c.3-.16.62-.31.95-.45s.7-.4 1.1-.6a4.44 4.44 0 0 1 -.4 2 6.18 6.18 0 0 1 -.9 1.45 7 7 0 0 1 -1.2 1.3 2.57 2.57 0 0 0 2.31 1 5 5 0 0 0 2.64-1 7.6 7.6 0 0 0 2.15-2.45 6.91 6.91 0 0 0 .9-3.55c0-.26 0-.83-.15-1.7a9.19 9.19 0 0 0 -1.15-3.15 19.77 19.77 0 0 0 -3.14-4.1 29.85 29.85 0 0 0 -6.16-4.65 18.63 18.63 0 0 1 -3.2-2.25 11.64 11.64 0 0 1 -1.6-1.7 3.44 3.44 0 0 1 -.75-1.42zm-3.1 24.4c.54-.13.7-.4.5-.8s-.8-.63-1.6-.3a.77.77 0 0 1 -.4.25 1 1 0 0 0 -.4.25 1.2 1.2 0 0 1 -.4.3h.9a4.18 4.18 0 0 0 .7.3 1.19 1.19 0 0 0 .7 0z" fill="#1873b4"/></svg>