<?xml version="1.0" encoding="utf-8"?>
<!-- Generator: Adobe Illustrator 22.0.2, SVG Export Plug-In . SVG Version: 6.00 Build 0)  -->
<svg version="1.1" id="Layer_1" xmlns="http://www.w3.org/2000/svg" xmlns:xlink="http://www.w3.org/1999/xlink" x="0px" y="0px"
	 viewBox="0 0 24 24" style="enable-background:new 0 0 24 24;" xml:space="preserve">
<path d="M18.5,18c-0.3-0.9-1.1-1.5-2.1-1.5h-1.1v-3.3c0-0.6-0.5-1.1-1.1-1.1H7.6V9.8h2.2c0.6,0,1.1-0.5,1.1-1.1V6.5h2.2
	c1.2,0,2.2-1,2.2-2.2V3.8c3.3,1.3,5.5,4.5,5.5,8.2C20.9,14.3,20,16.4,18.5,18 M10.9,20.8c-4.4-0.5-7.8-4.3-7.8-8.8
	c0-0.7,0.1-1.4,0.2-2l5.3,5.3v1.1c0,1.2,1,2.2,2.2,2.2 M12,0.9C5.9,0.9,0.9,5.9,0.9,12s5,11.1,11.1,11.1s11.1-5,11.1-11.1
	S18.1,0.9,12,0.9z"/>
</svg>
