<?xml version="1.0" encoding="utf-8"?>
<!-- Generator: Adobe Illustrator 22.0.2, SVG Export Plug-In . SVG Version: 6.00 Build 0)  -->
<svg version="1.1" id="Layer_1" xmlns="http://www.w3.org/2000/svg" xmlns:xlink="http://www.w3.org/1999/xlink" x="0px" y="0px"
	 viewBox="0 0 85 85" style="enable-background:new 0 0 85 85;" xml:space="preserve">
<style type="text/css">
	.st0{fill:#70C9C7;}
	.st1{fill:#334A5D;}
	.st2{fill:#FFFFFF;}
	.st3{opacity:0.3;fill:#FFFFFF;}
</style>
<polygon class="st0" points="50.6,25.3 50.6,15.9 59.7,15.9 63.6,19.9 65.5,21.8 69.2,25.6 69.2,35.1 60.1,35.1 60.1,25.3 "/>
<path class="st1" d="M57.4,31.7c-0.9,0-1.7,0-2.6,0.1c-1.5,12-10.9,21.5-22.9,23c-0.1,0.8-0.1,1.6-0.1,2.4
	c0,14.1,11.5,25.6,25.6,25.6C71.5,82.9,83,71.4,83,57.3S71.5,31.7,57.4,31.7z"/>
<title>logo</title>
<polygon class="st1" points="34.9,59.6 34.9,69 25.8,69 22,65 20.1,63.1 16.4,59.3 16.4,49.8 25.5,49.8 25.5,59.6 "/>
<path class="st2" d="M61.5,65.6h-7.3l-1,4.7h-6.5l7.8-28.4h7l7.8,28.5h-6.7L61.5,65.6z M60.1,59.5l-2.3-10.2l-2.3,10.2H60.1z"/>
<g>
	<path class="st3" d="M28.5,2.1C13.9,2.1,2,14.1,2,28.6s11.9,26.5,26.5,26.5S55,43.2,55,28.6S43.1,2.1,28.5,2.1z"/>
	<path class="st0" d="M44,42.9c-0.7-2.1-2.6-3.6-5-3.6h-2.6v-7.9c0-1.4-1.2-2.6-2.6-2.6H18v-5.5h5.2c1.4,0,2.6-1.2,2.6-2.6v-5.2H31
		c2.9,0,5.2-2.4,5.2-5.2V9c7.9,3.1,13.1,10.7,13.1,19.6C49.7,34.1,47.6,39.1,44,42.9 M25.9,49.6c-10.5-1.2-18.6-10.3-18.6-21
		c0-1.7,0.2-3.3,0.5-4.8l12.6,12.6V39c0,2.9,2.4,5.2,5.2,5.2 M28.5,2.1C13.9,2.1,2,14.1,2,28.6s11.9,26.5,26.5,26.5S55,43.2,55,28.6
		S43.1,2.1,28.5,2.1z"/>
</g>
</svg>
