<svg id="Layer_1" data-name="Layer 1" xmlns="http://www.w3.org/2000/svg" width="768" height="768" viewBox="0 0 768 768"><defs><style>.cls-1,.cls-2{fill:#fff;}.cls-1{opacity:0;}.cls-3{fill:#a4a049;}</style></defs><rect class="cls-1" width="768" height="768"/><path class="cls-2" d="M518.4,426.67h51.2a120.23,120.23,0,0,1-23.47,42.66A133.45,133.45,0,0,1,518.4,426.67Z"/><polygon class="cls-2" points="221.87 128 238.93 187.73 202.67 187.73 221.87 128"/><path class="cls-2" d="M622.93,398.93H550.4l12.8-4.26a130.37,130.37,0,0,0-10.67-25.6l-25.6,8.53a89.1,89.1,0,0,1,8.54,21.33h-70.4v25.6H492.8a196.09,196.09,0,0,0,34.13,57.6,143.33,143.33,0,0,1-64,27.74,88.24,88.24,0,0,1,14.94,23.46,200.33,200.33,0,0,0,68.26-32,180.62,180.62,0,0,0,64,32A83.62,83.62,0,0,1,627.2,512a178.71,178.71,0,0,1-61.87-27.73,190.19,190.19,0,0,0,32-57.6h25.6Zm55.47-57.6v294.4h-2.13l-78.94-70.4H413.87v-224Z"/><path class="cls-2" d="M356.27,281.6H170.67L91.73,352V59.73H356.27ZM256,238.93h32L243.2,102.4H202.67l-44.8,136.53h29.86l8.54-29.86h51.2Z"/><path d="M546.13,469.33a120.23,120.23,0,0,0,23.47-42.66H518.4A133.45,133.45,0,0,0,546.13,469.33Zm4.27-70.4h72.53v27.74h-25.6a190.19,190.19,0,0,1-32,57.6A178.71,178.71,0,0,0,627.2,512a83.62,83.62,0,0,0-17.07,21.33,180.62,180.62,0,0,1-64-32,200.33,200.33,0,0,1-68.26,32,88.24,88.24,0,0,0-14.94-23.46,143.33,143.33,0,0,0,64-27.74,196.09,196.09,0,0,1-34.13-57.6H465.07v-25.6h70.4a89.1,89.1,0,0,0-8.54-21.33l25.6-8.53a130.37,130.37,0,0,1,10.67,25.6Z"/><path d="M238.93,187.73,221.87,128l-19.2,59.73Zm4.27-85.33L288,238.93H256l-8.53-29.86h-51.2l-8.54,29.86H157.87l44.8-136.53Z"/><path class="cls-3" d="M356.27,281.6V59.73H91.73V352l78.94-70.4ZM678.4,635.73V341.33H413.87v224H597.33l78.94,70.4ZM736,281.6V768L576,625.07H354.13V341.33H192L32,486.4V0H413.87V281.6Z"/></svg>