<?xml version="1.0" encoding="utf-8"?>
<!-- Generator: Adobe Illustrator 24.0.3, SVG Export Plug-In . SVG Version: 6.00 Build 0)  -->
<svg version="1.1" id="Layer_1" xmlns="http://www.w3.org/2000/svg" xmlns:xlink="http://www.w3.org/1999/xlink" x="0px" y="0px"
	 viewBox="0 0 40 40" style="enable-background:new 0 0 40 40;" xml:space="preserve">
<style type="text/css">
	.st0{fill:#4B4A4A;}
</style>
<g>
	<g>
		<path class="st0" d="M10.5,5.6h2.1l2.4,7.1h-1.8l-0.5-1.6h-2.6l-0.5,1.6H8.2L10.5,5.6z M10.5,10h1.9l-0.9-3L10.5,10z"/>
	</g>
	<g>
		<path class="st0" d="M31.3,22.5c-0.5,1.2-1,2.3-1.7,3c0.9,0.7,2,1.1,3.3,1.4c-0.3,0.3-0.7,0.9-0.9,1.2c-1.4-0.3-2.5-0.9-3.4-1.7
			c-1,0.8-2.1,1.4-3.6,1.7c-0.1-0.3-0.6-0.9-0.8-1.2c1.4-0.3,2.5-0.8,3.4-1.5c-0.8-0.9-1.4-1.9-1.8-3h-1.5v-1.2H28
			c-0.1-0.3-0.2-0.8-0.5-1.1l1.4-0.5c0.2,0.5,0.5,1,0.6,1.4l-0.7,0.2h3.7v1.2h-1.2V22.5z M27.1,22.5c0.3,0.8,0.8,1.6,1.5,2.1
			c0.6-0.6,0.9-1.4,1.2-2.1H27.1z"/>
	</g>
	<path class="st0" d="M30.3,32.4H19V17.6H9.7l-7.7,6.9V0.7H21v14.8h16.9v23.8L30.3,32.4z M35.9,34.7v-17H21v12.7h10L35.9,34.7z
		 M4.1,19.9L9,15.5h10V2.8H4.1V19.9z"/>
</g>
</svg>
