<svg xmlns="http://www.w3.org/2000/svg" viewBox="0 0 85.04 85.04"><defs><style>.a{fill:#39b881;}.b{fill:#33495d;}.c{fill:#fff;}</style></defs><title>logo</title><polygon class="a" points="49.46 26.37 49.46 17.01 58.56 17.01 62.39 20.93 64.31 22.91 68.02 26.71 68.03 36.17 58.91 36.17 58.91 26.37 49.46 26.37"/><rect class="b" x="34.71" y="33.5" width="46.07" height="47.3" rx="8.29"/><polygon class="b" points="35.77 58.67 35.77 68.03 26.67 68.03 22.84 64.11 20.92 62.13 17.21 58.32 17.2 48.87 26.32 48.87 26.32 58.67 35.77 58.67"/><rect class="a" x="4.44" y="4.24" width="46.07" height="47.3" rx="8.29"/><path class="b" d="M13.54,12.6h8.31l5.79,22,5.71-22h8.07L31.87,43.19H23.25Z"/><path class="c" d="M61.55,67.39H53.74l-1.08,5h-7L54,41.85h7.5l8.36,30.59h-7.2Zm-1.43-6.61-2.45-11-2.43,11Z"/></svg>