<?xml version="1.0" encoding="utf-8"?>
<!-- Generator: Adobe Illustrator 24.2.3, SVG Export Plug-In . SVG Version: 6.00 Build 0)  -->
<svg version="1.1" id="Layer_1" xmlns="http://www.w3.org/2000/svg" xmlns:xlink="http://www.w3.org/1999/xlink" x="0px" y="0px"
	 viewBox="0 0 40 40" style="enable-background:new 0 0 40 40;" xml:space="preserve">
<style type="text/css">
	.st0{fill:#4B4A4A;}
</style>
<g>
	<g>
		<path class="st0" d="M10.2,5h2.2l2.5,7.4H13l-0.5-1.6H9.8l-0.5,1.6H7.7L10.2,5z M10.2,9.6h2l-0.9-3.2L10.2,9.6z"/>
	</g>
	<g>
		<path class="st0" d="M31.7,22.6c-0.5,1.3-1.1,2.3-1.8,3.2c0.9,0.7,2.1,1.2,3.4,1.4c-0.4,0.4-0.7,0.9-0.9,1.3
			c-1.4-0.4-2.6-0.9-3.5-1.8c-1.1,0.8-2.2,1.4-3.7,1.8c-0.1-0.4-0.6-0.9-0.8-1.3c1.4-0.4,2.6-0.8,3.5-1.5c-0.8-0.9-1.4-2-1.9-3.2
			h-1.5v-1.3h3.9c-0.1-0.4-0.2-0.8-0.5-1.2l1.4-0.5c0.2,0.5,0.5,1.1,0.6,1.4l-0.7,0.2H33v1.3h-1.3V22.6z M27.4,22.6
			c0.4,0.8,0.8,1.6,1.5,2.2c0.6-0.6,0.9-1.4,1.3-2.2H27.4z"/>
	</g>
	<path class="st0" d="M30.6,32.9H18.9V17.5H9.4l-8,7.1V0h19.6v15.3h17.5V40L30.6,32.9z M36.5,35.2V17.5H21.1v13.2h10.4L36.5,35.2z
		 M3.5,19.9l5-4.6h10.4V2.1H3.5V19.9z"/>
</g>
</svg>
