<svg xmlns="http://www.w3.org/2000/svg" viewBox="0 0 40 40"><defs><style>.a{fill:#999;}</style></defs><path class="a" d="M14.09,7.22a9.93,9.93,0,0,1-1.75,3.15,8,8,0,0,0,3.39,1.41,8.6,8.6,0,0,0-.93,1.28,8.18,8.18,0,0,1-3.51-1.75,9.3,9.3,0,0,1-3.75,1.75,7.55,7.55,0,0,0-.81-1.28,9.61,9.61,0,0,0,3.5-1.52A10.22,10.22,0,0,1,8.36,7H6.84V5.7H10.7a4.62,4.62,0,0,0-.47-1.17l1.41-.47a11.73,11.73,0,0,1,.58,1.4l-.7.24h3.86V7.22Zm-4.32,0a5.73,5.73,0,0,0,1.52,2.22,7,7,0,0,0,1.28-2.22Z"/><path class="a" d="M30.69,32.88H19V17.44H9.44l-8.1,7.24V0H21.23V15.45H38.66V40Zm6.09,2.59v-18H21.23V30.89H31.65ZM3.45,20.15l5.27-4.7H19V2.12H3.45Z"/><path class="a" d="M29.87,19.8H28.6l-3.66,8.61h1.75l.78-2h3.42l.78,2h1.76ZM28,25l1.14-2.89L30.32,25Z"/></svg>