<svg width="16" height="16" viewBox="0 0 16 16" fill="none" xmlns="http://www.w3.org/2000/svg">
<path fill-rule="evenodd" clip-rule="evenodd" d="M3.625 5.375H7.125V6.25H3.625V5.375V5.375ZM3.625 8H7.125V7.125H3.625V8V8ZM3.625 9.75H7.125V8.875H3.625V9.75V9.75ZM13.25 5.375H9.75V6.25H13.25V5.375V5.375ZM13.25 7.125H9.75V8H13.25V7.125V7.125ZM13.25 8.875H9.75V9.75H13.25V8.875V8.875ZM15 3.625V11.5C15 11.9813 14.6063 12.375 14.125 12.375H9.3125L8.4375 13.25L7.5625 12.375H2.75C2.26875 12.375 1.875 11.9813 1.875 11.5V3.625C1.875 3.14375 2.26875 2.75 2.75 2.75H7.5625L8.4375 3.625L9.3125 2.75H14.125C14.6063 2.75 15 3.14375 15 3.625V3.625ZM8 4.0625L7.5625 3.625H2.75V11.5H8V4.0625V4.0625ZM14.125 3.625H9.3125L8.875 4.0625V11.5H14.125V3.625V3.625Z" fill="#4B4B4B"/>
</svg>
