<svg xmlns:dc="http://purl.org/dc/elements/1.1/" xmlns:cc="http://creativecommons.org/ns#" xmlns:rdf="http://www.w3.org/1999/02/22-rdf-syntax-ns#" xmlns:svg="http://www.w3.org/2000/svg" xmlns="http://www.w3.org/2000/svg" xmlns:xlink="http://www.w3.org/1999/xlink" viewBox="0 0 267 267">
<title id="title4">Antarctic Treaty System flag</title>
<defs id="defs6">
<g id="lines" style="fill:none">
<circle cx="133.5" cy="133.5" r="49.5" id="circle9"/>
<circle cx="133.5" cy="133.5" r="92.5" id="circle11"/>
<circle cx="133.5" cy="133.5" r="133" id="circle13"/>
<path d="M -100,133.5 H 367 M 133.5,-100 v 467" id="axes"/>
<use transform="matrix(0.8660254,0.5,-0.5,0.8660254,84.635609,-48.864391)" id="use16" x="0" y="0" width="267" height="267" xlink:href="#axes"/>
<use transform="matrix(0.5,0.8660254,-0.8660254,0.5,182.36439,-48.864391)" id="use18" x="0" y="0" width="267" height="267" xlink:href="#axes"/>
</g>
<path d="m 146.39642,44.921091 -0.62414,-0.267304 0.62414,0.267304 z m 17.83255,176.420599 -2.40739,-1.42562 -7.13302,1.78204 -6.24138,-3.92046 0,1.51472 -1.51576,-2.04931 1.78325,-1.78204 -0.26749,-5.34606 2.05074,0 1.24828,-3.56408 1.4266,-0.62369 -1.15911,-1.78204 1.78325,-0.62369 -0.26748,-2.67305 -1.78326,-0.891 2.31823,-0.26731 -1.4266,-6.50441 -3.56652,-3.56405 -2.13991,0.89101 0.89163,2.94035 -7.40052,0 -6.24138,-2.67304 -2.40739,-1.15832 -11.85865,-2.67304 -0.89162,1.42563 -4.19065,0.35638 -1.15912,0 -1.78325,2.94035 -5.08228,-3.56408 -2.67488,0.89104 0.35665,2.40573 -6.598031,-3.56408 -0.26749,2.31663 -6.50889,-2.94032 -0.356652,0.26728 -3.20987,1.24742 -0.624139,-2.4057 -7.757141,-3.83136 -8.292116,-2.67305 -1.515767,-6.86082 0,-1.51472 -3.20987,-5.88068 1.426603,-7.1281 -2.674879,-0.89101 -0.891627,-3.02945 4.458122,-0.53459 -2.05074,0 0.267488,-4.45506 -6.508889,2.04932 -0.267488,-1.78201 -0.891627,3.29674 -3.566522,1.4256 -2.407394,-2.3166 -0.891627,-2.40577 -0.891628,-4.72236 2.050743,-1.51473 0.891627,1.15831 0.624137,-1.42559 -1.515764,-10.69218 2.407391,0.53461 1.159115,-11.22677 0.356652,-0.35641 2.318231,-1.42562 -2.94237,0.26731 -1.159113,-2.67304 5.349753,-5.96979 -4.814774,-0.89102 -3.566521,3.56407 -1.426604,-4.09865 -2.139906,2.94034 -0.534973,-2.04933 -2.674882,0.89102 -1.783255,0.89101 1.426603,-5.34607 -1.159112,-0.6237 0.624137,-1.51472 -1.515764,0.3564 -0.267488,-3.02946 5.617258,0 -0.267488,-1.42562 -1.783258,0 -3.299015,-5.702466 -1.783255,0.623709 -1.159115,-2.049329 -0.624137,1.782028 -1.783255,-1.247416 1.783255,-1.158315 -2.674882,-0.891014 0.624139,-1.514723 -2.1399,-1.158315 -0.53498,-4.72237 -2.1399,-0.623709 1.24827,-0.891014 -2.40739,-6.237081 0.26749,-2.049328 0.89163,-6.237084 1.78325,0 -0.53497,3.831353 4.458119,6.237084 3.20987,4.187761 6.598037,1.782027 0,0.267302 0.891628,-1.51472 3.566521,4.187761 1.783255,2.049326 0.891627,0.891013 10.07538,4.811459 1.783255,0.891013 0.624137,0.534606 4.725627,5.702472 2.67488,-1.24742 19.615777,-4.455046 0.62414,-3.564064 1.4266,0.623707 -0.26748,-1.158312 0.89162,-0.62371 4.190651,-1.514723 0,-4.098642 1.4266,-1.514723 1.78326,-6.860809 -0.89163,-2.673038 4.19065,-10.068437 0,-1.514723 0,-4.72237 2.05074,0 2.4074,-3.564064 2.94236,-0.891013 0.35665,-3.296745 4.10147,-4.989662 1.78326,0.891014 8.3813,-3.029456 0.89163,-0.891013 1.78325,-1.782025 -0.62414,-2.940342 1.78326,0 0.89163,4.72237 9.18374,2.138432 1.51577,-1.514723 0.62414,0.267304 8.02464,1.782028 0.26749,-0.267305 4.19065,-2.405736 0.26749,2.673038 3.56652,0.356405 2.94237,2.316633 0.62412,0.623709 4.45812,3.831354 5.34976,0.356408 3.29902,0.534605 4.10147,-1.425619 0.35665,2.673038 1.78328,1.158315 1.42658,-2.673038 1.78328,0 1.24829,6.860811 1.42656,0.267305 -0.26746,2.405733 -0.26753,0.267302 0.53499,0 3.56654,-1.782025 3.299,-1.158315 9.18376,3.207656 1.78324,-0.534606 0.62418,3.207659 2.40739,0.356405 -0.62418,-1.51472 2.05074,0 0.62417,3.296745 2.40739,-2.673038 5.61725,3.564066 1.51575,6.504404 -2.40738,0.623706 0.62417,4.989662 0.89158,1.51472 6.24139,15.770913 -3.29902,2.940335 -0.26746,3.56407 -2.67491,3.29674 2.9424,2.04933 -1.15913,0.89101 2.67488,2.67304 4.10147,0.62371 1.24829,1.78203 1.15909,2.31663 2.94237,1.24741 3.56655,-2.40573 2.40736,0.26731 -2.94234,4.18776 2.94234,7.75179 -3.56652,2.94034 1.51578,4.72237 -0.8916,4.18776 1.78321,2.40574 4.72564,0.891 -4.72564,6.50441 0.89164,1.15834 1.15912,1.24739 -2.05076,3.20767 2.05076,1.24741 -10.43202,8.55373 2.40739,5.96978 -0.62415,3.56408 -3.56654,1.15828 -0.89158,3.02946 -4.10147,1.78204 -1.24829,3.83136 -0.89163,2.04932 4.19066,2.13845 -6.2414,0.53459 1.51575,3.29674 -3.03153,2.94036 -4.72565,0.891 -1.51575,2.67305 3.56652,1.78201 -6.77635,6.23709 2.05073,3.29674 -5.34975,-1.15832 -5.97391,3.56408 -8.02463,3.83135 -1.78328,2.67305 -1.15909,-0.89101 1.15909,-2.67307 -5.34976,2.04932 -1.15909,-2.04932 -8.02464,4.72239 -3.56652,-1.15831 -6.50888,1.15831 -1.78327,-0.89103 m 0.26749,-172.232701 -0.62415,-0.623706 -0.26746,0 0,0.356404 0.62412,0 0.26749,0.267305 0,0 z m -2.05076,171.341841 1.78327,0.89101 -1.78327,-0.89101 z m 0,0 1.78327,0.89101 M 39.044473,98.738565 l 0.356652,-2.138429 -3.299019,-2.049329 2.94237,4.187761 -3e-6,0 z m -7.133017,-16.394636 -1.78325,0 0.89163,2.673035 0.89162,-2.316633 0,-0.356405 0,0 z m -0.89162,-2.673038 -0.89163,0.891014 1.78325,1.247418 -0.89162,-2.138432 z m 8.02464,19.067656 0.356652,-2.138429 -3.299022,-2.049329 2.942373,4.187761 0,0 z m -7.13301,-16.394636 -1.78326,0 0.89163,2.673035 0.89163,-2.31663 0,-0.356408 0,0 z m -0.89163,-2.673038 -0.89163,0.891013 1.78326,1.247419 -0.89163,-2.138432 z m 8.024643,19.067659 0.356652,-2.138432 -3.299015,-2.049326 2.942366,4.187761 -3e-6,0 z m -7.133013,-16.394639 -1.78325,0 0.89162,2.673038 0.89163,-2.316633 0,-0.356408 0,0 z m -0.89163,-2.673035 -0.89162,0.89101 1.78325,1.247419 -0.89163,-2.138429 z m 5.34976,-6.237084 0,-2.316633 -2.05075,0.534605 0.26749,1.514723 1.78326,0.267305 0,0 z m -2.31824,-6.504404 0.53498,1.158316 1.24828,-2.673039 -1.78326,1.247419 0,0.267304 0,0 z m 2.31824,6.504404 0,-2.316633 -2.05075,0.534605 0.26749,1.514723 1.78326,0.267305 0,0 z m -2.31824,-6.504404 0.53498,1.158316 1.24828,-2.673039 -1.78326,1.247419 0,0.267304 0,0 z m 2.31824,6.504404 0,-2.316633 -2.05075,0.534605 0.26749,1.514723 1.78326,0.267305 0,0 z m -2.31824,-6.504404 0.53498,1.158316 1.24828,-2.673039 -1.78326,1.247419 0,0.267304 0,0 z m 31.74199,90.88333 -2.050742,0.26734 -1.783255,2.4057 2.94237,-0.62369 0.891627,-2.04932 0,0 z m 0,0 -2.050742,0.26734 -1.783255,2.4057 2.94237,-0.62369 0.891627,-2.04932 0,0 z m 0,0 -2.050742,0.26734 -1.783255,2.4057 2.94237,-0.62369 0.891627,-2.04932 0,0 z m 2.139904,-60.321433 -0.62414,-0.534606 -1.783254,-0.891013 1.783254,0.891013 0.62414,0.534606 z" transform="translate(0,-1.5)" id="antarctica" style="fill:#ffffff"/>
<clipPath id="clip">
<use id="use22" x="0" y="0" width="267" height="267" xlink:href="#antarctica"/>
</clipPath>
</defs>
<rect width="267" height="267" x="0" y="0" id="fondo" style="fill:#072b5f;fill-opacity:1"/>
<use id="use25" style="stroke:#ffffff;stroke-width:3;stroke-miterlimit:4;stroke-dasharray:none" x="0" y="0" width="267" height="267" xlink:href="#lines"/>
<use id="use27" x="0" y="0" width="267" height="267" xlink:href="#antarctica"/>
<use clip-path="url(#clip)" id="use29" style="stroke:#072b5f;stroke-width:3;stroke-miterlimit:4;stroke-opacity:1;stroke-dasharray:none" x="0" y="0" width="267" height="267" xlink:href="#lines"/>
</svg>
