<svg xmlns="http://www.w3.org/2000/svg" xmlns:xlink="http://www.w3.org/1999/xlink" viewBox="-2100 -1470 4200 2940"><defs><path id="D" fill-rule="evenodd" d="m-31.5 0h33a30 30 0 0 0 30 -30v-10a30 30 0 0 0 -30 -30h-33zm13-13h19a19 19 0 0 0 19 -19v-6a19 19 0 0 0 -19 -19h-19z"/><path id="E" d="m0 0h63v-13h-51v-18h40v-12h-40v-14h48v-13h-60z" transform="translate(-31.5)"/><path id="e" d="m-26.25 0h52.5v-12h-40.5v-16h33v-12h-33v-11h39.25v-12h-51.25z"/><g id="G"><clipPath id="gcut"><path d="m-31.5 0v-70h63v70zm31.5-47v12h31.5v-12z"/></clipPath><use clip-path="url(#gcut)" xlink:href="#O"/><rect width="26.5" height="10" x="5" y="-35"/><rect width="10" height="35" x="21.5" y="-35"/></g><path id="M" d="m-31.5 0h12v-48l14 48h11l14-48v48h12v-70h-17.5l-14 48-14-48h-17.5z"/><path id="O" fill-rule="evenodd" d="m0 0a31.5 35 0 0 0 0 -70 31.5 35 0 0 0 0 70m0-13a18.5 22 0 0 0 0 -44 18.5 22 0 0 0 0 44"/><path id="P" fill-rule="evenodd" d="m-31.5 0h13v-26h28a22 22 0 0 0 0 -44h-40zm13-39h27a9 9 0 0 0 0 -18h-27z"/><g id="R"><use xlink:href="#P"/><path d="m28 0c0-10 0-32-15-32h-19c22 0 22 22 22 32"/></g><path id="S" d="m-15.75-22c0 7 6.75 10.5 16.75 10.5s14.74-3.25 14.75-7.75c0-14.25-46.75-5.25-46.5-30.25 0.25-21.5 24.75-20.5 33.75-20.5s26 4 25.75 21.25h-15.25c0-7.5-7-10.25-15-10.25-7.75 0-13.25 1.25-13.25 8.5-0.25 11.75 46.25 4 46.25 28.75 0 18.25-18 21.75-31.5 21.75-11.5 0-31.55-4.5-31.5-22z"/><g id="star" fill="#fff"><g id="c"><path id="t" d="m0-1v1h0.5" transform="rotate(18 0,-1)"/><use transform="scale(-1,1)" xlink:href="#t"/></g><use transform="rotate(72)" xlink:href="#c"/><use transform="rotate(-72)" xlink:href="#c"/><use transform="rotate(144)" xlink:href="#c"/><use transform="rotate(216)" xlink:href="#c"/></g><use id="star1" transform="scale(31.5)" xlink:href="#star"/><use id="star2" transform="scale(26.25)" xlink:href="#star"/><use id="star3" transform="scale(21)" xlink:href="#star"/><use id="star4" transform="scale(15)" xlink:href="#star"/><use id="star5" transform="scale(10.5)" xlink:href="#star"/></defs><rect width="100%" height="100%" x="-50%" y="-50%" fill="#009b3a"/><path fill="#fedf00" d="m-1743 0 1743 1113 1743-1113-1743-1113z"/><circle r="735" fill="#002776"/><clipPath id="band"><circle r="735"/></clipPath><path fill="#fff" d="m-2205 1470a1785 1785 0 0 1 3570 0h-105a1680 1680 0 1 0 -3360 0z" clip-path="url(#band)"/><g fill="#009b3a" transform="translate(-420,1470)"><use y="-1697.5" transform="rotate(-7)" xlink:href="#O"/><use y="-1697.5" transform="rotate(-4)" xlink:href="#R"/><use y="-1697.5" transform="rotate(-1)" xlink:href="#D"/><use y="-1697.5" transform="rotate(2)" xlink:href="#E"/><use y="-1697.5" transform="rotate(5)" xlink:href="#M"/><use y="-1697.5" transform="rotate(9.75)" xlink:href="#e"/><use y="-1697.5" transform="rotate(14.5)" xlink:href="#P"/><use y="-1697.5" transform="rotate(17.5)" xlink:href="#R"/><use y="-1697.5" transform="rotate(20.5)" xlink:href="#O"/><use y="-1697.5" transform="rotate(23.5)" xlink:href="#G"/><use y="-1697.5" transform="rotate(26.5)" xlink:href="#R"/><use y="-1697.5" transform="rotate(29.5)" xlink:href="#E"/><use y="-1697.5" transform="rotate(32.5)" xlink:href="#S"/><use y="-1697.5" transform="rotate(35.5)" xlink:href="#S"/><use y="-1697.5" transform="rotate(38.5)" xlink:href="#O"/></g><use id="αCMi" x="-600" y="-132" xlink:href="#star1"/><use id="αCMa" x="-535" y="177" xlink:href="#star1"/><use id="βCMa" x="-625" y="243" xlink:href="#star2"/><use id="γCMa" x="-463" y="132" xlink:href="#star4"/><use id="δCMa" x="-382" y="250" xlink:href="#star2"/><use id="εCMa" x="-404" y="323" xlink:href="#star3"/><use id="αVir" x="228" y="-228" xlink:href="#star1"/><use id="αSco" x="515" y="258" xlink:href="#star1"/><use id="βSco" x="617" y="265" xlink:href="#star3"/><use id="εSco" x="545" y="323" xlink:href="#star2"/><use id="θSco" x="368" y="477" xlink:href="#star2"/><use id="ιSco" x="367" y="551" xlink:href="#star3"/><use id="κSco" x="441" y="419" xlink:href="#star3"/><use id="λSco" x="500" y="382" xlink:href="#star2"/><use id="μSco" x="365" y="405" xlink:href="#star3"/><use id="αHya" x="-280" y="30" xlink:href="#star2"/><use id="γHya" x="200" y="-37" xlink:href="#star3"/><use id="αCru" y="330" xlink:href="#star1"/><use id="βCru" x="85" y="184" xlink:href="#star2"/><use id="γCru" y="118" xlink:href="#star2"/><use id="δCru" x="-74" y="184" xlink:href="#star3"/><use id="εCru" x="-37" y="235" xlink:href="#star4"/><use id="αTrA" x="220" y="495" xlink:href="#star2"/><use id="βTrA" x="283" y="430" xlink:href="#star3"/><use id="γTrA" x="162" y="412" xlink:href="#star3"/><use id="αCar" x="-295" y="390" xlink:href="#star1"/><use id="σOct" y="575" xlink:href="#star5"/></svg>