<svg xmlns="http://www.w3.org/2000/svg" xmlns:xlink="http://www.w3.org/1999/xlink" viewBox="0 0 600 300"><clipPath id="cp"><path d="M0,0V75H350V150H300zM300,0H150V200H0V150z"/></clipPath><rect width="600" height="300" fill="#00247d"/><path stroke="#fff" stroke-width="30" d="M0,0L300,150M300,0L0,150"/><path stroke="#cf142b" stroke-width="20" d="M0,0L300,150M300,0L0,150" clip-path="url(#cp)"/><path stroke="#fff" stroke-width="50" d="M150,0V200M0,75H350"/><path stroke="#cf142b" stroke-width="30" d="M150,0V200M0,75H350"/><path fill="#00247d" d="M300,0V150H0V300H600V0z"/><g transform="translate(450,150)"><g id="s1" fill="#fff" transform="translate(0,-102)"><g id="c"><path id="t" d="M0,-22.5V0H12" transform="rotate(18,0,-22.5)"/><use transform="scale(-1,1)" xlink:href="#t"/></g><use transform="rotate(72)" xlink:href="#c"/><use transform="rotate(144)" xlink:href="#c"/><use transform="rotate(216)" xlink:href="#c"/><use transform="rotate(288)" xlink:href="#c"/></g><g id="s7"><use transform="rotate(24)" xlink:href="#s1"/><use transform="rotate(48)" xlink:href="#s1"/><use transform="rotate(72)" xlink:href="#s1"/><use transform="rotate(96)" xlink:href="#s1"/><use transform="rotate(120)" xlink:href="#s1"/><use transform="rotate(144)" xlink:href="#s1"/><use transform="rotate(168)" xlink:href="#s1"/></g><use transform="rotate(168)" xlink:href="#s7"/></g></svg>