<svg xmlns="http://www.w3.org/2000/svg" xmlns:xlink="http://www.w3.org/1999/xlink" viewBox="0 0 500 300"><defs><g id="s"><g id="c"><path id="t" fill="#fcd116" d="M 0,-1 v 1 h .5" transform="rotate(18 0,-1)"/><use transform="scale(-1,1)" xlink:href="#t"/></g><use transform="rotate(72)" xlink:href="#c"/><use transform="rotate(144)" xlink:href="#c"/><use transform="rotate(216)" xlink:href="#c"/><use transform="rotate(288)" xlink:href="#c"/></g></defs><rect width="500" height="300" fill="#ce1126"/><rect width="416" height="216" x="42" y="42" fill="#007a5e"/><path fill="#fcd116" d="M 42,42 h 416 l -416,216 h 416 z"/><circle cx="250" cy="150" r="36" fill="#ce1126"/><use transform="translate(250,150) scale(33)" xlink:href="#s"/><use x="-100" xlink:href="#s2"/><use id="s2" transform="translate(250,21) scale(19.5)" xlink:href="#s"/><use x="100" xlink:href="#s2"/><use x="-100" y="258" xlink:href="#s2"/><use y="258" xlink:href="#s2"/><use x="100" y="258" xlink:href="#s2"/><path fill="#ce1126" d="M 67.749,150.41 c 4.504,8.39 13.265,17.52 20.916,20.73 c .123,-8.52 -2.9,-19.44 -7.034,-28.14 l -13.882,7.41 z"/><path fill="#fcd116" d="M 60.112,121.63 c 6.529,13.61 -16.933,46.08 22.156,53.69 c -4.822,-6.58 -7.931,-17.44 -6.755,-26.16 c 8.201,3.12 16.83,12.25 20.317,19.23 c 10.23,-37.15 -26.24,-34.89 -35.718,-46.76 z"/></svg>