<svg xmlns:dc="http://purl.org/dc/elements/1.1/" xmlns:cc="http://creativecommons.org/ns#" xmlns:rdf="http://www.w3.org/1999/02/22-rdf-syntax-ns#" xmlns:svg="http://www.w3.org/2000/svg" xmlns="http://www.w3.org/2000/svg" xmlns:sodipodi="http://sodipodi.sourceforge.net/DTD/sodipodi-0.dtd" xmlns:inkscape="http://www.inkscape.org/namespaces/inkscape" id="Layer_1" x="0px" y="0px" width="411px" height="274px" viewBox="79.461 52.641 411 274" enable-background="new 79.461 52.641 411 274" xml:space="preserve" inkscape:version="0.48.1 " sodipodi:docname="Flag of Iraq.svg"><defs id="defs32"/><sodipodi:namedview pagecolor="#ffffff" bordercolor="#666666" borderopacity="1" objecttolerance="10" gridtolerance="10" guidetolerance="10" inkscape:pageopacity="0" inkscape:pageshadow="2" inkscape:window-width="1440" inkscape:window-height="838" id="namedview30" showgrid="false" inkscape:zoom="0.95255474" inkscape:cx="205.5" inkscape:cy="137" inkscape:window-x="-8" inkscape:window-y="-8" inkscape:window-maximized="1" inkscape:current-layer="Layer_1"/>
<rect id="rect7_1_" x="79.501" y="139.356" fill="#FFFFFF" width="410.998" height="101.287"/>
<rect id="rect3" x="79.5" y="53" fill="#CF2029" width="410.998" height="91.288" style="fill:#ce1126;fill-opacity:1"/>
<rect id="rect7" x="79.5" y="235.713" fill="#020202" width="410.998" height="91.287" style="fill:#000000;fill-opacity:1"/>
<g id="g6" style="fill:#007a3d;fill-opacity:1">
	<g id="g8" style="fill:#007a3d;fill-opacity:1">
		<g id="g10" style="fill:#007a3d;fill-opacity:1">
			<path fill="#119B4A" d="M325.525,173.177c-0.558-0.294-1.186-0.767-1.395-1.053c-0.314-0.439-0.131-0.456,1.163-0.105     c2.319,0.629,3.815,0.384,5.298-0.872l1.308-1.103l1.54,0.784c0.848,0.428,1.748,0.724,2.008,0.656     c0.667-0.176,2.05-1.95,2.005-2.564c-0.054-0.759,0.587-0.569,0.896,0.263c0.615,1.631-0.281,3.503-1.865,3.918     c-0.774,0.202-1.488,0.127-2.659-0.28c-1.439-0.502-1.684-0.495-2.406,0.057C329.801,174.118,327.549,174.234,325.525,173.177z" id="path12" style="fill:#007a3d;fill-opacity:1"/>
			<path fill="#119B4A" d="M331.258,167.935c-0.563-0.716-1.239-3.423-1.02-4.088c0.192-0.575,0.39-0.69,0.914-0.526     c0.918,0.287,1.13,0.92,0.993,3.063C332.038,168.132,331.779,168.591,331.258,167.935z" id="path14" style="fill:#007a3d;fill-opacity:1"/>
		</g>
		<path fill="#119B4A" d="M263.743,165.991c-0.185,1.31,2.325,4.567,3.458,5.157c-0.77,0.345-1.728,0.189-2.434,0.577    c-3.948,3.948-18.367,18.005-21,21.366c7.799,0.154,16.449-0.106,23.761-0.44c-0.007-5.299,5.018-5.573,8.381-7.503    c1.73,2.725,6.075,2.516,6.618,6.618c0,4.91,0.009,12.306,0.009,17.646c-22.059,0-44.566,0-66.625,0    c-1.172,5.176-5.844,9.125-12.354,7.5c2.014-2.103,5.406-2.827,6.619-5.734c1.025-6.365-2.045-10.296-4.031-13.907    c3.284-1.195,3.782-1.493,7.121-3.737c-2.343,7.12,6.091,6.338,12.353,6.175c0.211-2.417,0.089-5.271-1.766-5.624    c2.396-0.87,2.794-1.168,6.619-4.412c0,2.942,0,6.652,0,9.592c14.886,0,30.943-0.111,46.139-0.111    c0-3.002,0.795-7.824-1.581-7.824c-2.269,0-0.107,6.173-1.87,6.173s-23.719,0-35.63,0c0-1.328-0.034-4.104-0.034-6.104    c1.51-1.511,1.331-1.38,11.648-11.698C250.172,178.672,257.41,172.134,263.743,165.991z" id="path16" style="fill:#007a3d;fill-opacity:1"/>
		<path fill="#119B4A" d="M352.803,165.737c2.488,1.338,4.457,3.191,7.502,3.971c-0.353,1.26-1.475,1.759-1.769,3.087    c0,8.97,0,17.941,0,26.91c3.402,0.75,4.118-1.178,5.737-2.205c0.442,4.307,3.185,8.53,3.088,11.91c-4.851,0-9.706,0-14.559,0    C352.803,194.855,352.803,180.296,352.803,165.737z" id="path18" style="fill:#007a3d;fill-opacity:1"/>
		<path fill="#119B4A" d="M333.391,180.149c0,0,5.296-4.471,5.296-4.643c0,7.646,0,15.837,0,23.485l3.814-0.006    c0-8.948-0.118-18.023-0.118-26.338c1.548-1.549,4.58-3.792,5.338-5.359c0,15.987,0,29.519,0,42.059    c-10.746,0-30.793,0.013-33.443,0.013c-0.493-8.73-0.577-17.771,9.599-15.827c0-1.488,0-2.369,0-3.562    c-0.31-0.609-0.868,0.147-0.998-0.645c1.616-1.617,2.163-2.029,6.538-5.851c0,4.612,0.081,15.499,0.081,15.499    c1.07,0,3.153,0.004,3.857,0.004C333.356,198.979,333.391,180.75,333.391,180.149z M320.837,198.751    c0.716,1.075,3.155,1.056,3.04-0.755C323.466,196.503,320.262,197.072,320.837,198.751z" id="path20" style="fill:#007a3d;fill-opacity:1"/>
		<circle fill="#119B4A" cx="224.026" cy="214.369" r="2.042" id="circle22" style="fill:#007a3d;fill-opacity:1"/>
		<path fill="#119B4A" d="M341.175,199.295" id="path24" style="fill:#007a3d;fill-opacity:1"/>
		<path fill="#119B4A" d="M329.451,199.295" id="path26" style="fill:#007a3d;fill-opacity:1"/>
		<path fill="#119B4A" d="M287.048,165.779c2.488,1.339,4.457,3.191,7.502,3.971c-0.353,1.26-1.476,1.759-1.768,3.087    c0,8.97,0,17.94,0,26.911c3.401,0.749,4.117-1.179,5.736-2.206c0.441,4.307,3.185,8.529,3.088,11.91c-4.851,0-9.706,0-14.559,0    C287.048,194.897,287.048,180.338,287.048,165.779z" id="path28" style="fill:#007a3d;fill-opacity:1"/>
	</g>
</g>
</svg>
