<svg xmlns:rdf="http://www.w3.org/1999/02/22-rdf-syntax-ns#" xmlns="http://www.w3.org/2000/svg" xmlns:cc="http://creativecommons.org/ns#" xmlns:dc="http://purl.org/dc/elements/1.1/" viewBox="-72 -28 144 96">
<path fill="#cd2a3e" d="m-72-28h144v96h-144z"/>
<path fill="#006233" d="M-72,-13.6H72V53.6H-72Z"/>
<path d="m29.999999 2.9199999c-0.08 16.4960001-13.488 29.8400001-29.99999952 29.8400001-16.51200048 0-29.91999948-13.344-29.99999948-29.8400001-0.656 2.512-1.008 5.1360001-1.008 7.8400001 0 17.12 13.871999 31.008 31.00799948 31.008 17.13599952 0 31.00799952-13.872 31.00799952-31.008 0-2.704-0.352-5.3440001-1.008-7.8400001z" class="st1" fill="#ffc400"/>
<path d="m-0.000001-9.2399582-2.694398 8.291438-8.718241 0.000318 7.053009 5.12472l-2.693771 8.2916412 7.053401-5.1241852 7.0534 5.1241862-2.693771-8.2916422 7.053012-5.12472-8.718243-0.000318z" fill="#ffc400"/>
</svg>
