<svg xmlns="http://www.w3.org/2000/svg" xmlns:xlink="http://www.w3.org/1999/xlink" viewBox="0 0 120 60"><clipPath id="t"><path d="M0,0V15H70V30H60zM0,30V40H30V0H60z"/></clipPath><title>Flag of Niue</title><rect width="120" height="60" fill="#002868"/><g stroke="#cf142b" stroke-width="6"><path stroke="#fff" d="M0,0L60,30M60,0L0,30"/><path stroke-width="4" d="M0,0L60,30M60,0L0,30" clip-path="url(#t)"/><path stroke="#fff" stroke-width="10" d="M30,0V40M0,15H70"/><path d="M30,0V40M0,15H70"/></g><path fill="#fcd116" d="M60,0h60V60H0V30H60z"/><g transform="translate(30,15)"><g transform="scale(5.10390485)"><circle r="1" fill="#002868"/><path id="s" fill="#fcd116" d="M0,-513674 301930,415571 -488533,-158734H488533L-301930,415571" transform="scale(0.00000194676)"/></g><use transform="translate(-17.5,0.29) scale(3)" xlink:href="#s"/><use transform="translate(17.5,0.29) scale(3)" xlink:href="#s"/><use transform="translate(0,10.29) scale(3)" xlink:href="#s"/><use transform="translate(0,-9.71) scale(3)" xlink:href="#s"/></g></svg>