<svg xmlns="http://www.w3.org/2000/svg" xmlns:xlink="http://www.w3.org/1999/xlink" viewBox="0 0 1200 600"><defs><clipPath id="Canton"><path d="M 0,0 L 600,0 L 600,300 L 0,300 z"/></clipPath><clipPath id="Diagonals"><path d="M 0,0 L 300,150 L 0,150 z M 300,0 L 600,0 L 300,150 z M 300,150 L 600,150 L 600,300 z M 300,150 L 300,300 L 0,300 z"/></clipPath><g id="Pentagram"><g id="Arm"><path d="M 0,0 L 0,0.5 L 1,0 z" transform="translate(0,-0.324925)"/><path d="M 0,0 L 0,-0.5 L 1,0 z" transform="translate(0,-0.324925) rotate(-36,1,0)"/></g><use transform="scale(-1,1)" xlink:href="#Arm"/><use transform="rotate(72,0,0)" xlink:href="#Arm"/><use transform="rotate(-72,0,0)" xlink:href="#Arm"/><use transform="rotate(-72,0,0) scale(-1,1)" xlink:href="#Arm"/></g></defs><rect width="1200" height="600" x="0" y="0" fill="#00247d"/><g id="Flag_of_the_United_Kingdom"><path id="Saint_Andrews_Cross" stroke="#fff" stroke-width="60" d="M 0,0 L 600,300 M 0,300 L 600,0" clip-path="url(#Canton)"/><path id="Saint_Patricks_Cross" stroke="#cc142b" stroke-width="40" d="M 0,0 L 600,300 M 0,300 L 600,0" clip-path="url(#Diagonals)"/><g id="Saint_Georges_Cross"><path stroke="#fff" stroke-width="100" d="M 300,0 L 300,300 M 0,150 L 600,150" clip-path="url(#Canton)"/><path stroke="#cc142b" stroke-width="60" d="M 300,0 L 300,300 M 0,150 L 600,150" clip-path="url(#Canton)"/></g></g><g id="Southern_Cross"><g id="Gamma_Crucis"><use fill="#fff" transform="translate(900,120) scale(45.4)" xlink:href="#Pentagram"/><use fill="#cc142b" transform="translate(900,120) scale(30)" xlink:href="#Pentagram"/></g><g transform="rotate(82,900,240)"><g id="Delta_Crucis"><use fill="#fff" transform="translate(900,120) rotate(-82) scale(40.4)" xlink:href="#Pentagram"/><use fill="#cc142b" transform="translate(900,120) rotate(-82) scale(25)" xlink:href="#Pentagram"/></g><g id="Beta_Crucis"><use fill="#fff" transform="translate(900,380) rotate(-82) scale(45.4)" xlink:href="#Pentagram"/><use fill="#cc142b" transform="translate(900,380) rotate(-82) scale(30)" xlink:href="#Pentagram"/></g></g><g id="Alpha_Crucis"><use fill="#fff" transform="translate(900,480) scale(50.4)" xlink:href="#Pentagram"/><use fill="#cc142b" transform="translate(900,480) scale(35)" xlink:href="#Pentagram"/></g></g></svg>