<svg xmlns="http://www.w3.org/2000/svg" xmlns:xlink="http://www.w3.org/1999/xlink" viewBox="0 0 600 400"><defs><path id="s" fill="#fff" d="M0,-1 L0.58779,0.80902 L-0.95106,-0.30902 L0.95106,-0.30902 L-0.58779,0.80902z" transform="scale(21)"/></defs><rect width="600" height="400" fill="#002395"/><rect width="244" height="164" fill="#fff"/><rect width="80" height="160" fill="#002395"/><rect width="80" height="160" x="160" fill="#ED2939"/><path fill="#fff" d="M355,183 l12.875,20.5 h36.625 v71.5 l-27.5,-43 -37,59 h18 l19,-34 39,70 39,-70 19,34 h18 l-37,-59 -27.5,43 v-39.5 h16.5 l12.25,-19.5 h-28.75 v-12.5 h36.625 l12.875,-20.5 h-122z M398,270.5h-40v14h40z M474,270.5h-40v14h40z"/><use x="416" y="362" xlink:href="#s"/><use x="371" y="328" xlink:href="#s"/><use x="461" y="328" xlink:href="#s"/><use x="333" y="227" xlink:href="#s"/><use x="499" y="227" xlink:href="#s"/></svg>