<svg xmlns="http://www.w3.org/2000/svg" xmlns:xlink="http://www.w3.org/1999/xlink" viewBox="0 0 1400 700"><rect width="1400" height="700" fill="#060"/><rect width="1400" height="500" fill="#fff"/><rect width="1400" height="200" fill="#c00"/><g fill="#f8c300"><path d="M 672.0,340.7 a 12.5,12.5 0,0,1 23.3,5.9 v 50 h 9.4 v -50 a 12.5,12.5 0,0,1 23.3,-5.9 a 29.5,29.5 0,1,0 -56,0"/><path fill="#fff" d="M 678.7,327.65 a 20,20 0,0,1 21.3,9.55 a 20,20 0,0,1 21.3,-9.55 a 21.5,21.5 0,0,0 -42.6,0"/><path id="w" d="M 695.3,376.627 a 38,38 0 0 1 -63.845,24.316 a 39.5,39.5 0 0 1 -59.734,17.467 c 3.6496,36.426 58.252,28.989 62.32,-6.4288 17.154,30.115 54.873,21.49 65.91,-15.4 z"/><use transform="translate(700,0) scale(-1,1) translate(-700,0)" xlink:href="#w"/><path id="r" d="M 658.84,441.31 c -7.6181,16.446 -22.845,19.271 -36.164,5.9953 0,0 5.3539,-3.7831 11.086,-4.826 -1.0748,-4.5744 1.1291,-10.902 4.2354,-14.324 3.2575,2.2264 7.8036,6.6886 8.9598,11.874 8.0291,-1.0394 11.883,1.2815 11.883,1.2815 z"/><use transform="rotate(9.37, 700,804)" xlink:href="#r"/><use transform="rotate(18.74, 700,804)" xlink:href="#r"/><path fill="none" stroke="#f8c300" stroke-width="16" d="M 603,478 a 340,340 0 0 1 194,0"/><g transform="translate(700,380)"><g transform="translate(0,-140)"><polygon id="s" points="0 -513674 301930 415571 -488533 -158734 488533 -158734 -301930 415571" transform="scale(0.000048669)"/></g><g id="h"><use transform="rotate(-30) translate(0,-140) rotate(30)" xlink:href="#s"/><use transform="rotate(-60) translate(0,-140) rotate(60)" xlink:href="#s"/><use transform="rotate(-90) translate(0,-140) rotate(90)" xlink:href="#s"/></g><use transform="scale(-1,1)" xlink:href="#h"/></g></g></svg>