<svg xmlns="http://www.w3.org/2000/svg" xmlns:xlink="http://www.w3.org/1999/xlink" viewBox="0 0 1200 600"><defs><clipPath id="c"><path d="M0,0V150H700V300H600zM0,300V400H300V0H600z"/></clipPath><path id="star" fill="#ffce00" d="M0,-50.0808 29.4368,40.5162 -47.6297,-15.4758H47.6297L-29.4368,40.5172z"/><use id="rats" transform="rotate(36)" xlink:href="#star"/></defs><rect width="1200" height="600" fill="#00247d"/><path stroke="#fff" stroke-width="60" d="M0,0 600,300M0,300 600,0"/><path stroke="#cf142b" stroke-width="40" d="M0,0 600,300M0,300 600,0" clip-path="url(#c)"/><path stroke="#fff" stroke-width="100" d="M300,0V400M0,150H700"/><path stroke="#cf142b" stroke-width="60" d="M300,0V400M0,150H700"/><path fill="#5b97b1" d="M0,300H600V0H1200V600H0z"/><use x="645.34" y="540.994" xlink:href="#star"/><use x="788.026" y="504.516" xlink:href="#rats"/><use x="788.026" y="382.532" xlink:href="#rats"/><use x="914.03" y="473.684" xlink:href="#rats"/><use x="914.03" y="208.271" xlink:href="#rats"/><use x="996.442" y="390.046" xlink:href="#star"/><use x="1019.928" y="172.078" xlink:href="#rats"/><use x="1102.836" y="321.554" xlink:href="#star"/><use x="1102.836" y="87.486" xlink:href="#star"/></svg>