<?xml version="1.0" encoding="UTF-8"?>
<svg xmlns="http://www.w3.org/2000/svg" xmlns:xlink="http://www.w3.org/1999/xlink" width="28pt" height="12pt" viewBox="0 0 28 12" version="1.1">
<g id="surface1">
<path style=" stroke:none;fill-rule:nonzero;fill:rgb(100%,100%,100%);fill-opacity:1;" d="M 27.984375 8.246094 C 27.914062 7.5625 27.429688 7.253906 26.976562 7.253906 C 26.769531 7.253906 26.601562 7.316406 26.539062 7.34375 L 26.449219 7.382812 L 26.375 7.4375 C 26.265625 7.519531 26.082031 7.636719 25.914062 7.695312 C 25.90625 7.554688 25.910156 7.378906 25.929688 7.226562 L 25.9375 7.203125 C 26.058594 5.992188 25.8125 5.289062 25.203125 5.109375 C 25.101562 5.078125 24.996094 5.066406 24.890625 5.066406 C 24.519531 5.066406 24.195312 5.25 23.980469 5.40625 C 23.804688 5.175781 23.503906 5.042969 23.132812 5.042969 C 22.574219 5.042969 22.128906 5.3125 21.96875 5.738281 C 21.949219 5.785156 21.929688 5.847656 21.902344 5.9375 C 21.578125 5.191406 20.910156 4.910156 20.289062 4.910156 C 19.703125 4.910156 19.132812 5.144531 18.921875 5.3125 C 18.914062 5.320312 18.898438 5.324219 18.886719 5.335938 C 18.332031 5.746094 17.898438 6.257812 17.589844 6.875 C 17.441406 6.339844 17.117188 5.839844 16.527344 5.464844 L 16.519531 5.457031 C 16.503906 5.445312 16.492188 5.4375 16.472656 5.429688 C 17.046875 4.378906 17.558594 2.988281 17.25 1.660156 C 16.929688 0.246094 16.121094 0.0351562 15.667969 0.0351562 C 15.480469 0.0351562 15.289062 0.0703125 15.09375 0.140625 L 15.082031 0.144531 L 15.066406 0.148438 C 14.214844 0.496094 13.839844 1.015625 13.757812 1.140625 C 13.675781 1.269531 12.738281 2.734375 12.515625 4.875 C 12.488281 5.109375 12.464844 5.355469 12.4375 5.601562 C 12.304688 5.40625 12.089844 5.230469 11.746094 5.121094 C 11.640625 5.085938 11.527344 5.074219 11.417969 5.074219 C 10.945312 5.074219 10.5625 5.371094 10.359375 5.570312 L 10.355469 5.566406 C 10.175781 5.292969 9.894531 5.132812 9.578125 5.117188 L 9.5 5.117188 C 9 5.117188 8.601562 5.347656 8.308594 5.605469 C 8.121094 5.265625 7.777344 5.058594 7.375 5.058594 C 7.339844 5.058594 7.308594 5.058594 7.28125 5.0625 L 7.210938 5.0625 C 6.65625 5.0625 6.21875 5.332031 6.039062 5.785156 C 6.027344 5.820312 6.007812 5.863281 5.992188 5.917969 C 5.554688 5.359375 5 5.097656 4.25 5.097656 L 4.179688 5.097656 C 3.710938 5.105469 2.546875 5.308594 1.832031 6.960938 C 1.722656 7.214844 1.636719 7.472656 1.574219 7.726562 C 1.445312 7.667969 1.308594 7.636719 1.164062 7.636719 C 0.792969 7.636719 0.511719 7.855469 0.375 8.058594 C 0.265625 8.226562 -0.0859375 8.816406 0.0859375 9.394531 C 0.179688 9.707031 0.398438 9.941406 0.703125 10.066406 C 0.96875 10.175781 1.308594 10.277344 1.566406 10.351562 C 1.722656 10.722656 2.003906 11.144531 2.5 11.535156 C 2.851562 11.8125 3.304688 11.949219 3.835938 11.949219 C 4.726562 11.949219 5.589844 11.550781 5.683594 11.507812 L 5.714844 11.492188 L 5.726562 11.484375 C 5.894531 11.667969 6.121094 11.796875 6.40625 11.855469 C 6.488281 11.871094 6.601562 11.886719 6.726562 11.886719 C 7.210938 11.886719 7.546875 11.632812 7.859375 11.15625 C 8.113281 11.566406 8.574219 11.796875 9.125 11.796875 L 9.128906 11.796875 C 9.15625 11.796875 9.1875 11.820312 9.222656 11.820312 C 9.511719 11.820312 9.871094 11.714844 10.171875 11.214844 C 10.421875 11.679688 10.882812 11.945312 11.425781 11.945312 C 11.910156 11.945312 12.332031 11.742188 12.40625 11.703125 L 12.425781 11.691406 C 12.585938 11.605469 12.722656 11.527344 12.828125 11.464844 C 13.191406 11.664062 13.738281 11.882812 14.410156 11.882812 C 14.523438 11.882812 14.636719 11.875 14.753906 11.863281 L 14.78125 11.859375 L 14.8125 11.855469 C 16.234375 11.566406 17.164062 11.214844 17.714844 10.949219 C 18.101562 11.394531 18.71875 11.824219 19.597656 11.890625 C 19.695312 11.898438 19.796875 11.902344 19.894531 11.902344 C 20.617188 11.902344 21.195312 11.691406 21.617188 11.460938 C 21.753906 11.609375 21.925781 11.746094 22.144531 11.835938 C 22.277344 11.894531 22.414062 11.921875 22.554688 11.921875 C 23.4375 11.921875 23.851562 10.835938 23.964844 10.46875 L 24.175781 9.878906 C 24.363281 10.085938 24.601562 10.253906 24.902344 10.339844 C 25.070312 10.386719 25.246094 10.414062 25.429688 10.414062 C 26.402344 10.414062 27.335938 9.707031 27.488281 9.585938 C 27.753906 9.359375 28.046875 8.890625 27.984375 8.246094 "/>
<path style=" stroke:none;fill-rule:nonzero;fill:rgb(88.627451%,29.411765%,19.215686%);fill-opacity:1;" d="M 19.070312 8.542969 C 19.070312 8.542969 18.945312 8.097656 19.40625 7.234375 C 19.859375 6.378906 20.21875 6.847656 20.21875 6.847656 C 20.21875 6.847656 20.609375 7.285156 20.164062 7.9375 C 19.714844 8.59375 19.070312 8.542969 19.070312 8.542969 M 15.566406 9.167969 C 15.042969 10.574219 13.773438 10.003906 13.773438 10.003906 C 13.773438 10.003906 13.628906 9.5 14.039062 8.085938 C 14.453125 6.675781 15.421875 7.226562 15.421875 7.226562 C 15.421875 7.226562 16.085938 7.757812 15.566406 9.167969 M 14.617188 3.261719 C 14.617188 3.261719 15.40625 1.136719 15.597656 2.171875 C 15.789062 3.203125 13.941406 6.277344 13.941406 6.277344 C 13.960938 5.585938 14.617188 3.261719 14.617188 3.261719 M 3.316406 8.542969 C 3.351562 7.179688 4.214844 6.582031 4.519531 6.882812 C 4.820312 7.179688 4.710938 7.824219 4.140625 8.226562 C 3.574219 8.628906 3.316406 8.542969 3.316406 8.542969 M 27.261719 8.320312 C 27.21875 7.863281 26.816406 8.03125 26.816406 8.03125 C 26.816406 8.03125 26.167969 8.550781 25.601562 8.492188 C 25.035156 8.429688 25.214844 7.125 25.214844 7.125 C 25.214844 7.125 25.335938 5.925781 25 5.828125 C 24.664062 5.726562 24.253906 6.136719 24.253906 6.136719 C 24.253906 6.136719 23.738281 6.722656 23.496094 7.46875 L 23.429688 7.488281 C 23.429688 7.488281 23.507812 6.179688 23.417969 5.882812 C 23.347656 5.734375 22.738281 5.746094 22.640625 6.011719 C 22.539062 6.273438 22.046875 8.105469 22.015625 8.878906 C 22.015625 8.878906 21.058594 9.714844 20.222656 9.851562 C 19.382812 9.988281 19.183594 9.449219 19.183594 9.449219 C 19.183594 9.449219 21.457031 8.796875 21.378906 6.929688 C 21.300781 5.058594 19.546875 5.75 19.347656 5.90625 C 19.15625 6.054688 18.132812 6.6875 17.828125 8.453125 C 17.820312 8.515625 17.800781 8.777344 17.800781 8.777344 C 17.800781 8.777344 16.921875 9.386719 16.433594 9.546875 C 16.433594 9.546875 17.800781 7.175781 16.128906 6.09375 C 15.375 5.625 14.769531 6.609375 14.769531 6.609375 C 14.769531 6.609375 17.03125 4.019531 16.53125 1.824219 C 16.292969 0.785156 15.785156 0.671875 15.320312 0.839844 C 14.613281 1.128906 14.347656 1.550781 14.347656 1.550781 C 14.347656 1.550781 13.433594 2.914062 13.21875 4.945312 C 13.007812 6.976562 12.695312 9.429688 12.695312 9.429688 C 12.695312 9.429688 12.265625 9.867188 11.863281 9.886719 C 11.464844 9.910156 11.644531 8.664062 11.644531 8.664062 C 11.644531 8.664062 11.953125 6.757812 11.933594 6.4375 C 11.910156 6.121094 11.890625 5.945312 11.519531 5.832031 C 11.15625 5.71875 10.75 6.199219 10.75 6.199219 C 10.75 6.199219 9.695312 7.847656 9.605469 8.101562 L 9.550781 8.207031 L 9.492188 8.136719 C 9.492188 8.136719 10.242188 5.886719 9.527344 5.855469 C 8.8125 5.820312 8.347656 6.65625 8.347656 6.65625 C 8.347656 6.65625 7.535156 8.058594 7.5 8.214844 L 7.445312 8.144531 C 7.445312 8.144531 7.78125 6.519531 7.714844 6.117188 C 7.644531 5.710938 7.28125 5.796875 7.28125 5.796875 C 7.28125 5.796875 6.8125 5.738281 6.691406 6.050781 C 6.566406 6.359375 6.121094 8.414062 6.066406 9.066406 C 6.066406 9.066406 4.898438 9.929688 4.128906 9.9375 C 3.359375 9.949219 3.4375 9.433594 3.4375 9.433594 C 3.4375 9.433594 6.257812 8.441406 5.488281 6.480469 C 5.144531 5.976562 4.738281 5.816406 4.175781 5.828125 C 3.605469 5.839844 2.9375 6.195312 2.480469 7.25 C 2.261719 7.753906 2.171875 8.230469 2.171875 8.59375 C 2.171875 8.59375 1.644531 8.699219 1.378906 8.464844 C 1.109375 8.238281 0.957031 8.464844 0.957031 8.464844 C 0.957031 8.464844 0.492188 9.152344 0.945312 9.335938 C 1.398438 9.519531 2.105469 9.691406 2.105469 9.691406 C 2.167969 9.988281 2.359375 10.476562 2.917969 10.910156 C 3.75 11.558594 5.355469 10.808594 5.355469 10.808594 L 6.015625 10.40625 C 6.015625 10.40625 6.035156 11.011719 6.515625 11.105469 C 6.996094 11.195312 7.195312 11.097656 8.027344 9.011719 C 8.515625 7.945312 8.550781 8 8.550781 8 L 8.605469 7.988281 C 8.605469 7.988281 8.226562 10.027344 8.371094 10.578125 C 8.515625 11.132812 9.148438 11.074219 9.148438 11.074219 C 9.148438 11.074219 9.492188 11.203125 9.773438 10.191406 C 10.054688 9.179688 10.585938 8.125 10.585938 8.125 L 10.652344 8.125 C 10.652344 8.125 10.421875 10.15625 10.777344 10.820312 C 11.132812 11.484375 12.054688 11.019531 12.054688 11.019531 C 12.054688 11.019531 12.703125 10.667969 12.804688 10.5625 C 12.804688 10.5625 13.566406 11.226562 14.652344 11.105469 C 17.070312 10.613281 17.925781 9.949219 17.925781 9.949219 C 17.925781 9.949219 18.34375 11.03125 19.625 11.132812 C 21.097656 11.246094 21.898438 10.292969 21.898438 10.292969 C 21.898438 10.292969 21.886719 10.910156 22.402344 11.128906 C 22.914062 11.347656 23.257812 10.191406 23.257812 10.191406 L 24.117188 7.824219 L 24.195312 7.824219 C 24.195312 7.824219 24.238281 9.335938 25.085938 9.589844 C 25.941406 9.839844 27.039062 8.964844 27.039062 8.964844 C 27.039062 8.964844 27.308594 8.78125 27.261719 8.320312 "/>
</g>
</svg>
