<?xml version="1.0" encoding="UTF-8"?>
<svg xmlns="http://www.w3.org/2000/svg" xmlns:xlink="http://www.w3.org/1999/xlink" width="37pt" height="16pt" viewBox="0 0 37 16" version="1.1">
<g id="surface1">
<path style=" stroke:none;fill-rule:nonzero;fill:rgb(100%,100%,100%);fill-opacity:1;" d="M 36.980469 10.996094 C 36.886719 10.082031 36.246094 9.671875 35.648438 9.671875 C 35.375 9.671875 35.152344 9.753906 35.070312 9.792969 L 34.949219 9.84375 L 34.851562 9.917969 C 34.707031 10.027344 34.464844 10.183594 34.242188 10.261719 C 34.234375 10.074219 34.238281 9.839844 34.265625 9.636719 L 34.273438 9.605469 C 34.433594 7.988281 34.109375 7.050781 33.304688 6.8125 C 33.167969 6.769531 33.03125 6.753906 32.890625 6.753906 C 32.402344 6.753906 31.972656 7 31.6875 7.207031 C 31.457031 6.902344 31.058594 6.722656 30.566406 6.722656 C 29.832031 6.722656 29.242188 7.082031 29.03125 7.652344 C 29.003906 7.714844 28.980469 7.796875 28.941406 7.917969 C 28.515625 6.921875 27.632812 6.546875 26.808594 6.546875 C 26.035156 6.546875 25.28125 6.859375 25.003906 7.082031 C 24.992188 7.09375 24.972656 7.097656 24.957031 7.113281 C 24.222656 7.660156 23.652344 8.34375 23.242188 9.167969 C 23.046875 8.453125 22.621094 7.785156 21.839844 7.285156 L 21.828125 7.277344 C 21.808594 7.261719 21.792969 7.25 21.765625 7.238281 C 22.527344 5.839844 23.203125 3.984375 22.792969 2.214844 C 22.371094 0.328125 21.304688 0.046875 20.703125 0.046875 C 20.457031 0.046875 20.203125 0.09375 19.945312 0.1875 L 19.929688 0.191406 L 19.910156 0.199219 C 18.785156 0.660156 18.289062 1.355469 18.179688 1.519531 C 18.070312 1.691406 16.832031 3.644531 16.539062 6.5 C 16.503906 6.8125 16.472656 7.140625 16.433594 7.46875 C 16.261719 7.207031 15.976562 6.972656 15.523438 6.828125 C 15.382812 6.78125 15.234375 6.765625 15.089844 6.765625 C 14.464844 6.765625 13.957031 7.160156 13.6875 7.425781 L 13.683594 7.421875 C 13.445312 7.058594 13.074219 6.84375 12.65625 6.824219 L 12.554688 6.824219 C 11.894531 6.824219 11.367188 7.128906 10.980469 7.472656 C 10.730469 7.019531 10.277344 6.746094 9.746094 6.746094 C 9.699219 6.746094 9.65625 6.746094 9.621094 6.75 L 9.527344 6.75 C 8.796875 6.75 8.21875 7.109375 7.980469 7.714844 C 7.964844 7.761719 7.9375 7.816406 7.917969 7.890625 C 7.339844 7.144531 6.605469 6.796875 5.617188 6.796875 L 5.523438 6.796875 C 4.902344 6.808594 3.367188 7.078125 2.421875 9.28125 C 2.277344 9.621094 2.164062 9.964844 2.082031 10.300781 C 1.910156 10.222656 1.730469 10.183594 1.539062 10.183594 C 1.046875 10.183594 0.675781 10.472656 0.496094 10.746094 C 0.351562 10.96875 -0.113281 11.753906 0.113281 12.527344 C 0.238281 12.941406 0.527344 13.253906 0.929688 13.421875 C 1.28125 13.566406 1.730469 13.703125 2.070312 13.800781 C 2.277344 14.296875 2.648438 14.859375 3.304688 15.378906 C 3.769531 15.75 4.367188 15.933594 5.070312 15.933594 C 6.246094 15.933594 7.386719 15.402344 7.511719 15.34375 L 7.550781 15.324219 L 7.566406 15.3125 C 7.789062 15.558594 8.089844 15.730469 8.464844 15.808594 C 8.574219 15.828125 8.722656 15.847656 8.886719 15.847656 C 9.527344 15.847656 9.972656 15.511719 10.386719 14.875 C 10.722656 15.421875 11.332031 15.730469 12.058594 15.730469 L 12.0625 15.730469 C 12.097656 15.730469 12.140625 15.761719 12.1875 15.761719 C 12.570312 15.761719 13.042969 15.621094 13.441406 14.953125 C 13.773438 15.574219 14.378906 15.925781 15.097656 15.925781 C 15.738281 15.925781 16.296875 15.65625 16.394531 15.605469 L 16.417969 15.589844 C 16.632812 15.472656 16.8125 15.371094 16.953125 15.285156 C 17.429688 15.550781 18.152344 15.84375 19.042969 15.84375 C 19.191406 15.84375 19.339844 15.832031 19.496094 15.816406 L 19.53125 15.8125 L 19.574219 15.808594 C 21.453125 15.421875 22.679688 14.953125 23.410156 14.597656 C 23.917969 15.191406 24.734375 15.765625 25.898438 15.855469 C 26.027344 15.863281 26.160156 15.871094 26.289062 15.871094 C 27.246094 15.871094 28.007812 15.589844 28.566406 15.28125 C 28.746094 15.480469 28.972656 15.660156 29.261719 15.78125 C 29.4375 15.859375 29.617188 15.894531 29.804688 15.894531 C 30.972656 15.894531 31.519531 14.449219 31.667969 13.957031 L 31.945312 13.171875 C 32.195312 13.449219 32.507812 13.671875 32.90625 13.785156 C 33.128906 13.847656 33.359375 13.886719 33.605469 13.886719 C 34.890625 13.886719 36.121094 12.941406 36.324219 12.78125 C 36.675781 12.480469 37.0625 11.855469 36.980469 10.996094 "/>
<path style=" stroke:none;fill-rule:nonzero;fill:rgb(88.627451%,29.411765%,19.215686%);fill-opacity:1;" d="M 25.199219 11.390625 C 25.199219 11.390625 25.035156 10.796875 25.644531 9.644531 C 26.242188 8.503906 26.71875 9.128906 26.71875 9.128906 C 26.71875 9.128906 27.234375 9.714844 26.644531 10.582031 C 26.050781 11.457031 25.199219 11.390625 25.199219 11.390625 M 20.570312 12.222656 C 19.878906 14.097656 18.199219 13.339844 18.199219 13.339844 C 18.199219 13.339844 18.007812 12.667969 18.550781 10.78125 C 19.097656 8.902344 20.378906 9.636719 20.378906 9.636719 C 20.378906 9.636719 21.257812 10.34375 20.570312 12.222656 M 19.316406 4.347656 C 19.316406 4.347656 20.359375 1.515625 20.609375 2.894531 C 20.863281 4.269531 18.421875 8.371094 18.421875 8.371094 C 18.449219 7.449219 19.316406 4.347656 19.316406 4.347656 M 4.382812 11.390625 C 4.429688 9.574219 5.570312 8.777344 5.972656 9.175781 C 6.371094 9.574219 6.226562 10.433594 5.472656 10.96875 C 4.722656 11.503906 4.382812 11.390625 4.382812 11.390625 M 36.023438 11.09375 C 35.96875 10.484375 35.4375 10.707031 35.4375 10.707031 C 35.4375 10.707031 34.578125 11.402344 33.832031 11.324219 C 33.082031 11.238281 33.320312 9.5 33.320312 9.5 C 33.320312 9.5 33.480469 7.902344 33.035156 7.769531 C 32.589844 7.636719 32.050781 8.183594 32.050781 8.183594 C 32.050781 8.183594 31.367188 8.964844 31.046875 9.957031 L 30.960938 9.984375 C 30.960938 9.984375 31.0625 8.238281 30.945312 7.84375 C 30.851562 7.644531 30.046875 7.660156 29.917969 8.015625 C 29.785156 8.363281 29.132812 10.808594 29.09375 11.839844 C 29.09375 11.839844 27.828125 12.953125 26.722656 13.136719 C 25.613281 13.316406 25.351562 12.597656 25.351562 12.597656 C 25.351562 12.597656 28.355469 11.730469 28.25 9.238281 C 28.148438 6.746094 25.828125 7.667969 25.566406 7.875 C 25.3125 8.074219 23.960938 8.917969 23.558594 11.269531 C 23.546875 11.355469 23.523438 11.703125 23.523438 11.703125 C 23.523438 11.703125 22.359375 12.515625 21.714844 12.730469 C 21.714844 12.730469 23.523438 9.566406 21.3125 8.125 C 20.316406 7.5 19.515625 8.8125 19.515625 8.8125 C 19.515625 8.8125 22.503906 5.359375 21.84375 2.433594 C 21.53125 1.046875 20.859375 0.894531 20.246094 1.121094 C 19.308594 1.503906 18.960938 2.066406 18.960938 2.066406 C 18.960938 2.066406 17.75 3.886719 17.46875 6.59375 C 17.1875 9.300781 16.777344 12.574219 16.777344 12.574219 C 16.777344 12.574219 16.207031 13.15625 15.675781 13.183594 C 15.148438 13.214844 15.386719 11.550781 15.386719 11.550781 C 15.386719 11.550781 15.796875 9.011719 15.769531 8.582031 C 15.738281 8.160156 15.710938 7.925781 15.222656 7.777344 C 14.742188 7.625 14.207031 8.265625 14.207031 8.265625 C 14.207031 8.265625 12.8125 10.464844 12.691406 10.800781 L 12.621094 10.941406 L 12.542969 10.847656 C 12.542969 10.847656 13.535156 7.847656 12.589844 7.808594 C 11.644531 7.761719 11.03125 8.875 11.03125 8.875 C 11.03125 8.875 9.957031 10.746094 9.910156 10.953125 L 9.839844 10.859375 C 9.839844 10.859375 10.28125 8.691406 10.195312 8.15625 C 10.101562 7.613281 9.621094 7.730469 9.621094 7.730469 C 9.621094 7.730469 9.003906 7.652344 8.84375 8.066406 C 8.675781 8.480469 8.089844 11.21875 8.015625 12.089844 C 8.015625 12.089844 6.472656 13.238281 5.457031 13.25 C 4.4375 13.265625 4.542969 12.578125 4.542969 12.578125 C 4.542969 12.578125 8.269531 11.253906 7.253906 8.640625 C 6.796875 7.96875 6.261719 7.753906 5.519531 7.769531 C 4.765625 7.785156 3.882812 8.261719 3.277344 9.667969 C 2.988281 10.339844 2.871094 10.972656 2.871094 11.457031 C 2.871094 11.457031 2.171875 11.597656 1.820312 11.285156 C 1.464844 10.984375 1.265625 11.285156 1.265625 11.285156 C 1.265625 11.285156 0.652344 12.203125 1.25 12.449219 C 1.847656 12.691406 2.78125 12.921875 2.78125 12.921875 C 2.863281 13.316406 3.117188 13.96875 3.855469 14.546875 C 4.957031 15.410156 7.078125 14.410156 7.078125 14.410156 L 7.949219 13.875 C 7.949219 13.875 7.976562 14.683594 8.609375 14.808594 C 9.246094 14.925781 9.507812 14.796875 10.609375 12.015625 C 11.253906 10.59375 11.300781 10.667969 11.300781 10.667969 L 11.371094 10.652344 C 11.371094 10.652344 10.871094 13.371094 11.0625 14.105469 C 11.253906 14.84375 12.089844 14.765625 12.089844 14.765625 C 12.089844 14.765625 12.542969 14.9375 12.914062 13.589844 C 13.285156 12.238281 13.988281 10.832031 13.988281 10.832031 L 14.078125 10.832031 C 14.078125 10.832031 13.773438 13.542969 14.242188 14.425781 C 14.710938 15.3125 15.929688 14.691406 15.929688 14.691406 C 15.929688 14.691406 16.785156 14.222656 16.921875 14.082031 C 16.921875 14.082031 17.925781 14.96875 19.363281 14.808594 C 22.558594 14.152344 23.6875 13.265625 23.6875 13.265625 C 23.6875 13.265625 24.238281 14.707031 25.933594 14.84375 C 27.878906 14.996094 28.9375 13.722656 28.9375 13.722656 C 28.9375 13.722656 28.921875 14.546875 29.601562 14.839844 C 30.277344 15.128906 30.734375 13.589844 30.734375 13.589844 L 31.871094 10.433594 L 31.972656 10.433594 C 31.972656 10.433594 32.027344 12.449219 33.148438 12.785156 C 34.28125 13.121094 35.730469 11.953125 35.730469 11.953125 C 35.730469 11.953125 36.085938 11.707031 36.023438 11.09375 "/>
</g>
</svg>
