<?xml version="1.0" encoding="UTF-8"?>
<svg xmlns="http://www.w3.org/2000/svg" xmlns:xlink="http://www.w3.org/1999/xlink" width="10pt" height="12pt" viewBox="0 0 10 12" version="1.1">
<defs>
<linearGradient id="linear0" gradientUnits="userSpaceOnUse" x1="-2115.0029" y1="1930.7407" x2="-2115.0029" y2="1929.7407" gradientTransform="matrix(1.918164,-1.820768,-0.267773,-0.254159,4579.683881,-3350.650024)">
<stop offset="0.2" style="stop-color:rgb(0%,0%,0%);stop-opacity:0.14902;"/>
<stop offset="0.85" style="stop-color:rgb(38.039216%,38.039216%,38.039216%);stop-opacity:0.0117647;"/>
</linearGradient>
<linearGradient id="linear1" gradientUnits="userSpaceOnUse" x1="-2115.2688" y1="1946.3563" x2="-2114.2688" y2="1946.3563" gradientTransform="matrix(2.850444,0,0,-1.823351,6034.255015,3558.454334)">
<stop offset="0.2" style="stop-color:rgb(0%,0%,0%);stop-opacity:0.54902;"/>
<stop offset="0.85" style="stop-color:rgb(38.039216%,38.039216%,38.039216%);stop-opacity:0.0117647;"/>
</linearGradient>
</defs>
<g id="surface1">
<path style=" stroke:none;fill-rule:nonzero;fill:rgb(25.882353%,64.705882%,96.078431%);fill-opacity:0.8;" d="M 1.921875 7.742188 L 0 5.921875 L 6.238281 0 L 10.082031 0 M 10.082031 5.464844 L 6.238281 5.464844 L 4.800781 6.828125 L 6.722656 8.652344 "/>
<path style=" stroke:none;fill-rule:nonzero;fill:rgb(5.098039%,27.843137%,63.137255%);fill-opacity:1;" d="M 4.800781 10.476562 L 6.238281 11.84375 L 10.082031 11.84375 L 6.722656 8.652344 "/>
<path style=" stroke:none;fill-rule:nonzero;fill:rgb(25.882353%,64.705882%,96.078431%);fill-opacity:1;" d="M 2.882812 8.652344 L 4.800781 6.832031 L 6.71875 8.652344 L 4.800781 10.472656 Z M 2.882812 8.652344 "/>
<path style=" stroke:none;fill-rule:nonzero;fill:url(#linear0);" d="M 4.800781 10.472656 L 6.71875 8.652344 L 6.988281 8.90625 L 5.070312 10.730469 Z M 4.800781 10.472656 "/>
<path style=" stroke:none;fill-rule:nonzero;fill:url(#linear1);" d="M 4.800781 10.476562 L 7.648438 9.542969 L 6.722656 8.652344 "/>
</g>
</svg>
