<svg width="2481" height="2500" viewBox="0 0 256 258" xmlns="http://www.w3.org/2000/svg" preserveAspectRatio="xMinYMin meet"><path d="M255.667 35.561c0-18.607-15.084-33.691-33.691-33.691-16.99 0-31.035 12.578-33.349 28.929l-.341-.18c-27.553-12.427-50.762 9.584-50.762 9.584l-61.391 61.692 24.257 23.36 49.413-48.546c23.074-23.075 35.638-7.457 35.638-7.457 17.37 14.674.598 32.044.598 32.044l24.857 23.959c20.298-21.923 21.475-41.056 15.305-56.276 16.612-2.08 29.466-16.243 29.466-33.418" fill="#F9AE41"/><path d="M226.514 190.507c.115-.215.18-.34.18-.34 12.428-27.554-9.584-50.763-9.584-50.763l-61.693-61.393-23.359 24.259 48.546 49.412c23.074 23.075 7.456 35.64 7.456 35.64-14.673 17.37-32.043.598-32.043.598l-23.959 24.856c21.922 20.298 41.056 21.475 56.275 15.305 2.08 16.612 16.244 29.467 33.419 29.467 18.607 0 33.69-15.084 33.69-33.691 0-16.99-12.577-31.035-28.928-33.35" fill="#EE4035"/><path d="M155.942 133.04l-49.413 48.545c-23.075 23.076-35.639 7.459-35.639 7.459C53.52 174.369 70.291 157 70.291 157L45.436 133.04c-20.298 21.922-21.476 41.055-15.307 56.275C13.517 191.396.663 205.558.663 222.734c0 18.607 15.084 33.69 33.692 33.69 16.99.001 31.035-12.576 33.349-28.927.216.115.341.179.341.179 27.554 12.43 50.762-9.584 50.762-9.584l61.392-61.693-24.257-23.359" fill="#4F91CD"/><path d="M75.727 106.613c-23.075-23.075-7.459-35.64-7.459-35.64 14.676-17.37 32.045-.598 32.045-.598l23.959-24.855C102.35 25.222 83.217 24.045 67.997 30.214 65.917 13.601 51.755.747 34.577.747 15.973.747.89 15.831.888 34.438c0 16.991 12.577 31.036 28.929 33.35-.115.216-.179.342-.179.342-12.43 27.552 9.583 50.76 9.583 50.76l61.694 61.393 23.359-24.257-48.546-49.413" fill="#7AC043"/></svg>