<?xml version="1.0" encoding="UTF-8"?>
<svg xmlns="http://www.w3.org/2000/svg" xmlns:xlink="http://www.w3.org/1999/xlink" width="37pt" height="12pt" viewBox="0 0 37 12" version="1.1">
<g id="surface1">
<path style=" stroke:none;fill-rule:nonzero;fill:rgb(0%,0%,0%);fill-opacity:1;" d="M 32.46875 10.441406 L 32.46875 12 L 35.542969 12 C 36.179688 12 37.257812 11.578125 37.296875 10.394531 L 37.296875 9.792969 C 37.296875 8.785156 36.394531 8.191406 35.542969 8.191406 L 34.011719 8.191406 L 34.011719 7.464844 L 37.054688 7.464844 L 37.054688 5.894531 L 34.132812 5.894531 C 33.375 5.894531 32.375 6.464844 32.375 7.523438 L 32.375 8.066406 C 32.375 9.128906 33.371094 9.675781 34.132812 9.675781 C 36.253906 9.679688 33.625 9.675781 35.585938 9.675781 L 35.585938 10.429688 M 15.957031 10.058594 C 15.957031 10.058594 17.605469 9.933594 17.605469 7.980469 C 17.605469 6.035156 15.613281 5.855469 15.613281 5.855469 L 12.011719 5.855469 L 12.011719 12 L 13.824219 12 L 13.824219 10.519531 L 15.386719 12 L 18.0625 12 Z M 15.261719 8.800781 L 13.824219 8.800781 L 13.824219 7.394531 L 15.269531 7.394531 C 15.269531 7.394531 15.675781 7.535156 15.675781 8.097656 C 15.675781 8.652344 15.261719 8.800781 15.261719 8.800781 Z M 22.074219 5.894531 L 20.234375 5.894531 C 18.929688 5.894531 18.484375 6.984375 18.484375 7.5 L 18.484375 12 L 20.320312 12 L 20.320312 10.921875 L 22.046875 10.921875 L 22.046875 12 L 23.824219 12 L 23.824219 7.5 C 23.824219 6.1875 22.523438 5.894531 22.074219 5.894531 Z M 22.046875 9.183594 L 20.308594 9.183594 L 20.308594 7.6875 C 20.308594 7.6875 20.308594 7.355469 20.886719 7.355469 L 21.515625 7.355469 C 22.03125 7.355469 22.035156 7.6875 22.035156 7.6875 L 22.035156 9.183594 Z M 24.664062 5.894531 L 26.574219 5.894531 L 26.574219 12 L 24.664062 12 Z M 29.261719 10.425781 L 29.261719 5.894531 L 27.363281 5.894531 L 27.363281 12 L 31.832031 12 L 31.832031 10.425781 Z M 29.261719 10.425781 "/>
<path style=" stroke:none;fill-rule:nonzero;fill:rgb(0%,0%,0%);fill-opacity:1;" d="M 0.660156 12 L 8.101562 12 C 8.101562 12 6.679688 6.058594 11.386719 3.65625 C 12.417969 3.199219 15.6875 1.496094 21.039062 5.109375 C 21.207031 4.980469 21.363281 4.878906 21.363281 4.878906 C 21.363281 4.878906 16.46875 0.402344 11.015625 0.902344 C 8.269531 1.128906 4.902344 3.417969 2.917969 6.433594 C 0.945312 9.449219 0.660156 12 0.660156 12 Z M 0.660156 12 "/>
<path style=" stroke:none;fill-rule:nonzero;fill:rgb(0%,0%,0%);fill-opacity:1;" d="M 0.660156 12 L 8.101562 12 C 8.101562 12 6.679688 6.058594 11.386719 3.65625 C 12.417969 3.199219 15.6875 1.496094 21.039062 5.109375 C 21.207031 4.980469 21.363281 4.878906 21.363281 4.878906 C 21.363281 4.878906 16.46875 0.402344 11.015625 0.902344 C 8.269531 1.128906 4.902344 3.417969 2.917969 6.433594 C 0.945312 9.449219 0.660156 12 0.660156 12 Z M 0.660156 12 "/>
<path style=" stroke:none;fill-rule:nonzero;fill:rgb(0%,0%,0%);fill-opacity:1;" d="M 0.660156 12 L 8.101562 12 C 8.101562 12 6.679688 6.058594 11.386719 3.65625 C 12.417969 3.199219 15.6875 1.496094 21.039062 5.109375 C 21.207031 4.980469 21.363281 4.878906 21.363281 4.878906 C 21.363281 4.878906 16.46875 0.402344 11.015625 0.902344 C 8.265625 1.128906 4.890625 3.417969 2.914062 6.433594 C 0.933594 9.449219 0.660156 12 0.660156 12 Z M 16.167969 1.386719 L 16.207031 0.808594 C 16.121094 0.769531 15.886719 0.660156 15.292969 0.511719 L 15.25 1.078125 C 15.566406 1.171875 15.863281 1.277344 16.167969 1.386719 Z M 16.167969 1.386719 "/>
<path style=" stroke:none;fill-rule:nonzero;fill:rgb(0%,0%,0%);fill-opacity:1;" d="M 15.269531 3.214844 L 15.234375 3.753906 C 15.542969 3.769531 15.859375 3.800781 16.167969 3.863281 L 16.207031 3.328125 C 15.886719 3.269531 15.570312 3.234375 15.269531 3.214844 Z M 11.785156 0.527344 L 11.882812 0.527344 L 11.691406 0 C 11.398438 0 11.097656 0.0195312 10.789062 0.0507812 L 10.96875 0.5625 C 11.242188 0.535156 11.511719 0.527344 11.785156 0.527344 Z M 12.238281 3.699219 L 12.453125 4.292969 C 12.726562 4.171875 13.003906 4.066406 13.277344 3.988281 L 13.066406 3.421875 C 12.746094 3.511719 12.472656 3.605469 12.238281 3.699219 Z M 7.960938 1.429688 L 7.535156 0.839844 C 7.300781 0.949219 7.058594 1.066406 6.800781 1.207031 L 7.238281 1.808594 C 7.484375 1.667969 7.714844 1.542969 7.960938 1.429688 Z M 9.890625 5.308594 L 10.34375 5.929688 C 10.5 5.714844 10.695312 5.519531 10.898438 5.320312 L 10.480469 4.734375 C 10.257812 4.917969 10.066406 5.109375 9.890625 5.308594 Z M 8.527344 8.085938 L 9.289062 8.636719 C 9.324219 8.300781 9.394531 7.964844 9.488281 7.628906 L 8.8125 7.136719 C 8.683594 7.457031 8.601562 7.777344 8.527344 8.085938 Z M 4.398438 3.988281 L 3.730469 3.457031 C 3.484375 3.675781 3.253906 3.890625 3.035156 4.101562 L 3.757812 4.667969 C 3.957031 4.441406 4.171875 4.207031 4.398438 3.988281 Z M 1.554688 7.847656 L 0.472656 7.480469 C 0.292969 7.851562 0.09375 8.285156 0 8.519531 L 1.082031 8.878906 C 1.207031 8.582031 1.40625 8.160156 1.554688 7.847656 Z M 8.386719 10.277344 C 8.402344 10.734375 8.449219 11.105469 8.496094 11.363281 L 9.628906 11.730469 C 9.546875 11.394531 9.457031 11.015625 9.398438 10.613281 Z M 8.386719 10.277344 "/>
</g>
</svg>
