<?xml version="1.0" encoding="UTF-8"?>
<svg xmlns="http://www.w3.org/2000/svg" xmlns:xlink="http://www.w3.org/1999/xlink" width="13pt" height="12pt" viewBox="0 0 13 12" version="1.1">
<g id="surface1">
<path style=" stroke:none;fill-rule:nonzero;fill:rgb(100%,100%,100%);fill-opacity:1;" d="M 0.0390625 5.878906 C 0.0390625 6.863281 1 7.785156 2.511719 8.300781 C 2.210938 9.824219 2.460938 11.054688 3.289062 11.53125 C 4.140625 12.023438 5.410156 11.683594 6.613281 10.628906 C 7.789062 11.640625 8.976562 12.039062 9.804688 11.558594 C 10.65625 11.066406 10.914062 9.753906 10.601562 8.183594 C 12.179688 7.660156 13.0625 6.878906 13.0625 5.878906 C 13.0625 4.917969 12.097656 4.085938 10.605469 3.570312 C 10.941406 1.9375 10.65625 0.738281 9.792969 0.238281 C 8.960938 -0.242188 7.761719 0.175781 6.570312 1.214844 C 5.328125 0.113281 4.140625 -0.222656 3.277344 0.277344 C 2.445312 0.757812 2.210938 2.007812 2.511719 3.5625 C 1.050781 4.070312 0.0390625 4.921875 0.0390625 5.878906 Z M 0.0390625 5.878906 "/>
<path style=" stroke:none;fill-rule:nonzero;fill:rgb(32.54902%,75.686275%,87.058824%);fill-opacity:1;" d="M 10.289062 4.082031 C 10.167969 4.039062 10.042969 4 9.917969 3.964844 C 9.9375 3.882812 9.957031 3.796875 9.976562 3.710938 C 10.257812 2.339844 10.074219 1.238281 9.445312 0.875 C 8.839844 0.527344 7.851562 0.890625 6.859375 1.757812 C 6.757812 1.84375 6.664062 1.929688 6.570312 2.023438 C 6.503906 1.960938 6.441406 1.902344 6.375 1.84375 C 5.332031 0.917969 4.285156 0.523438 3.65625 0.890625 C 3.054688 1.238281 2.875 2.277344 3.128906 3.574219 C 3.15625 3.703125 3.183594 3.832031 3.214844 3.957031 C 3.066406 4 2.925781 4.046875 2.785156 4.09375 C 1.5625 4.519531 0.78125 5.191406 0.78125 5.882812 C 0.78125 6.601562 1.621094 7.320312 2.894531 7.757812 C 2.996094 7.792969 3.101562 7.828125 3.207031 7.855469 C 3.175781 7.992188 3.144531 8.132812 3.117188 8.269531 C 2.875 9.542969 3.0625 10.558594 3.664062 10.90625 C 4.285156 11.261719 5.328125 10.894531 6.34375 10.007812 C 6.421875 9.9375 6.503906 9.863281 6.585938 9.785156 C 6.683594 9.882812 6.789062 9.976562 6.898438 10.070312 C 7.882812 10.917969 8.851562 11.257812 9.453125 10.910156 C 10.074219 10.550781 10.273438 9.460938 10.011719 8.140625 C 9.992188 8.039062 9.96875 7.933594 9.941406 7.832031 C 10.015625 7.808594 10.089844 7.785156 10.160156 7.765625 C 11.484375 7.320312 12.347656 6.613281 12.347656 5.882812 C 12.347656 5.1875 11.539062 4.515625 10.289062 4.082031 Z M 10.289062 4.082031 "/>
<path style=" stroke:none;fill-rule:nonzero;fill:rgb(100%,100%,100%);fill-opacity:1;" d="M 10.003906 7.292969 C 9.9375 7.3125 9.875 7.335938 9.808594 7.351562 C 9.664062 6.890625 9.464844 6.398438 9.222656 5.886719 C 9.453125 5.390625 9.640625 4.902344 9.785156 4.441406 C 9.90625 4.476562 10.019531 4.511719 10.128906 4.550781 C 11.199219 4.917969 11.851562 5.464844 11.851562 5.882812 C 11.851562 6.332031 11.148438 6.914062 10.003906 7.292969 Z M 9.527344 8.234375 C 9.640625 8.820312 9.660156 9.351562 9.582031 9.765625 C 9.511719 10.132812 9.375 10.382812 9.203125 10.480469 C 8.839844 10.695312 8.058594 10.417969 7.21875 9.695312 C 7.125 9.613281 7.027344 9.523438 6.929688 9.429688 C 7.253906 9.074219 7.582031 8.65625 7.898438 8.195312 C 8.457031 8.148438 8.984375 8.066406 9.464844 7.957031 C 9.488281 8.050781 9.507812 8.144531 9.527344 8.234375 Z M 4.722656 10.445312 C 4.367188 10.570312 4.082031 10.578125 3.914062 10.476562 C 3.546875 10.265625 3.394531 9.453125 3.601562 8.363281 C 3.625 8.234375 3.65625 8.105469 3.6875 7.976562 C 4.160156 8.082031 4.683594 8.15625 5.246094 8.203125 C 5.566406 8.65625 5.902344 9.070312 6.238281 9.429688 C 6.167969 9.5 6.09375 9.570312 6.019531 9.632812 C 5.570312 10.027344 5.117188 10.304688 4.722656 10.445312 Z M 3.054688 7.289062 C 2.492188 7.097656 2.023438 6.847656 1.707031 6.574219 C 1.417969 6.328125 1.273438 6.082031 1.273438 5.882812 C 1.273438 5.464844 1.902344 4.925781 2.949219 4.558594 C 3.082031 4.515625 3.210938 4.472656 3.347656 4.433594 C 3.492188 4.90625 3.683594 5.398438 3.910156 5.898438 C 3.679688 6.402344 3.488281 6.902344 3.339844 7.378906 C 3.246094 7.351562 3.148438 7.320312 3.054688 7.289062 Z M 3.613281 3.480469 C 3.398438 2.367188 3.539062 1.527344 3.90625 1.320312 C 4.292969 1.09375 5.148438 1.414062 6.046875 2.214844 C 6.105469 2.265625 6.164062 2.320312 6.222656 2.375 C 5.886719 2.738281 5.554688 3.148438 5.238281 3.59375 C 4.691406 3.648438 4.171875 3.726562 3.695312 3.835938 C 3.664062 3.71875 3.636719 3.597656 3.613281 3.480469 Z M 8.605469 4.710938 C 8.492188 4.519531 8.371094 4.324219 8.253906 4.132812 C 8.621094 4.179688 8.976562 4.242188 9.304688 4.320312 C 9.207031 4.636719 9.082031 4.972656 8.9375 5.316406 C 8.828125 5.113281 8.71875 4.910156 8.605469 4.710938 Z M 6.570312 2.730469 C 6.796875 2.976562 7.027344 3.25 7.25 3.550781 C 6.792969 3.53125 6.335938 3.53125 5.882812 3.550781 C 6.109375 3.253906 6.335938 2.980469 6.570312 2.730469 Z M 4.519531 4.71875 C 4.410156 4.914062 4.300781 5.113281 4.195312 5.316406 C 4.050781 4.972656 3.925781 4.636719 3.828125 4.3125 C 4.15625 4.238281 4.507812 4.179688 4.875 4.132812 C 4.753906 4.324219 4.636719 4.519531 4.519531 4.71875 Z M 4.886719 7.671875 C 4.507812 7.628906 4.152344 7.574219 3.820312 7.5 C 3.921875 7.167969 4.046875 6.828125 4.195312 6.480469 C 4.300781 6.679688 4.410156 6.878906 4.523438 7.078125 C 4.640625 7.277344 4.761719 7.476562 4.886719 7.671875 Z M 6.582031 9.074219 C 6.347656 8.824219 6.113281 8.542969 5.886719 8.242188 C 6.109375 8.25 6.332031 8.253906 6.5625 8.253906 C 6.800781 8.253906 7.03125 8.25 7.261719 8.238281 C 7.035156 8.546875 6.808594 8.828125 6.582031 9.074219 Z M 8.941406 6.460938 C 9.09375 6.8125 9.226562 7.15625 9.328125 7.480469 C 8.992188 7.554688 8.632812 7.617188 8.25 7.664062 C 8.371094 7.46875 8.492188 7.273438 8.605469 7.074219 C 8.722656 6.871094 8.832031 6.667969 8.941406 6.460938 Z M 8.179688 6.828125 C 8.003906 7.132812 7.816406 7.429688 7.625 7.722656 C 7.28125 7.746094 6.925781 7.757812 6.5625 7.757812 C 6.203125 7.757812 5.855469 7.75 5.515625 7.726562 C 5.316406 7.433594 5.128906 7.136719 4.949219 6.832031 C 4.773438 6.523438 4.609375 6.214844 4.457031 5.898438 C 4.609375 5.578125 4.773438 5.265625 4.949219 4.964844 C 5.125 4.65625 5.3125 4.359375 5.511719 4.070312 C 5.855469 4.042969 6.207031 4.03125 6.5625 4.03125 C 6.921875 4.03125 7.273438 4.042969 7.621094 4.070312 C 7.816406 4.359375 8 4.65625 8.175781 4.960938 C 8.351562 5.265625 8.519531 5.574219 8.671875 5.890625 C 8.519531 6.207031 8.355469 6.519531 8.179688 6.828125 Z M 9.195312 1.304688 C 9.585938 1.527344 9.734375 2.429688 9.492188 3.613281 C 9.476562 3.6875 9.457031 3.765625 9.441406 3.84375 C 8.960938 3.730469 8.4375 3.648438 7.894531 3.597656 C 7.574219 3.144531 7.246094 2.730469 6.914062 2.375 C 7 2.292969 7.089844 2.210938 7.179688 2.128906 C 8.035156 1.386719 8.832031 1.09375 9.195312 1.304688 Z M 9.195312 1.304688 "/>
<path style=" stroke:none;fill-rule:nonzero;fill:rgb(32.54902%,75.686275%,87.058824%);fill-opacity:1;" d="M 6.5625 4.851562 C 7.132812 4.851562 7.597656 5.3125 7.597656 5.882812 C 7.597656 6.457031 7.132812 6.917969 6.5625 6.917969 C 5.992188 6.917969 5.53125 6.457031 5.53125 5.882812 C 5.53125 5.3125 5.992188 4.851562 6.5625 4.851562 "/>
</g>
</svg>
