<?xml version="1.0" encoding="UTF-8"?>
<svg xmlns="http://www.w3.org/2000/svg" xmlns:xlink="http://www.w3.org/1999/xlink" width="12pt" height="11pt" viewBox="0 0 12 11" version="1.1">
<g id="surface1">
<path style=" stroke:none;fill-rule:nonzero;fill:rgb(14.117647%,53.72549%,79.215686%);fill-opacity:1;" d="M 0.347656 3.929688 C 0.347656 3.929688 0.0585938 3.742188 0.402344 3.484375 L 1.203125 2.824219 C 1.203125 2.824219 1.433594 2.601562 1.675781 2.792969 L 9.0625 7.972656 L 9.0625 10.457031 C 9.0625 10.457031 9.058594 10.847656 8.519531 10.804688 Z M 0.347656 3.929688 "/>
<path style=" stroke:none;fill-rule:nonzero;fill:rgb(6.27451%,43.921569%,70.196078%);fill-opacity:1;" d="M 2.25 5.535156 L 0.347656 7.136719 C 0.347656 7.136719 0.148438 7.269531 0.347656 7.511719 L 1.230469 8.257812 C 1.230469 8.257812 1.441406 8.464844 1.75 8.226562 L 3.769531 6.8125 Z M 2.25 5.535156 "/>
<path style=" stroke:none;fill-rule:nonzero;fill:rgb(3.137255%,46.666667%,72.54902%);fill-opacity:1;" d="M 5.59375 5.546875 L 9.085938 3.078125 L 9.0625 0.605469 C 9.0625 0.605469 8.914062 0.0664062 8.417969 0.347656 L 3.769531 4.265625 Z M 5.59375 5.546875 "/>
<path style=" stroke:none;fill-rule:nonzero;fill:rgb(23.529412%,60%,83.137255%);fill-opacity:1;" d="M 8.519531 10.808594 C 8.722656 11 8.964844 10.9375 8.964844 10.9375 L 11.6875 9.695312 C 12.039062 9.476562 11.988281 9.203125 11.988281 9.203125 L 11.988281 1.785156 C 11.988281 1.460938 11.628906 1.347656 11.628906 1.347656 L 9.269531 0.296875 C 8.753906 0 8.417969 0.347656 8.417969 0.347656 C 8.417969 0.347656 8.851562 0.0585938 9.0625 0.605469 L 9.0625 10.414062 C 9.0625 10.480469 9.046875 10.546875 9.015625 10.605469 C 8.953125 10.71875 8.820312 10.828125 8.496094 10.785156 Z M 8.519531 10.808594 "/>
</g>
</svg>
