<svg xmlns="http://www.w3.org/2000/svg" xmlns:xlink="http://www.w3.org/1999/xlink" id="Layer_1" x="0" y="0" enable-background="new 0 0 24 24" version="1.1" viewBox="0 0 24 24" xml:space="preserve"><style type="text/css">.st0{fill:#c5c5c540}</style><path d="M11.8,9l3.2,3.2c0-0.1,0-0.1,0-0.2c0-1.7-1.3-3-3-3C11.9,9,11.9,9,11.8,9 M7.5,9.8l1.5,1.6C9,11.6,9,11.8,9,12	c0,1.7,1.3,3,3,3c0.2,0,0.4,0,0.6-0.1l1.6,1.6C13.5,16.8,12.8,17,12,17c-2.8,0-5-2.2-5-5C7,11.2,7.2,10.5,7.5,9.8 M2,4.3l2.3,2.3	L4.7,7c-1.7,1.3-3,3-3.7,5c1.7,4.4,6,7.5,11,7.5c1.6,0,3-0.3,4.4-0.8l0.4,0.4l2.9,2.9l1.3-1.3L3.3,3 M12,7c2.8,0,5,2.2,5,5	c0,0.6-0.1,1.3-0.4,1.8l2.9,2.9c1.5-1.3,2.7-2.9,3.4-4.8c-1.7-4.4-6-7.5-11-7.5c-1.4,0-2.7,0.3-4,0.7l2.2,2.2C10.7,7.1,11.4,7,12,7z" class="st0"/></svg>