<svg width="16" height="16" viewBox="0 0 16 16" fill="none" xmlns="http://www.w3.org/2000/svg">
<path fill-rule="evenodd" clip-rule="evenodd" d="M8 2C6.5 2 5.2 2.4 4.1 3.2L4.9 3.9C5.8 3.3 6.8 3 8 3C11.3 3 14 5.7 14 9H15C15 5.1 11.9 2 8 2ZM1 3.00005L2.6 4.50005C1.6 5.70005 1 7.30005 1 9.00005H2C2 7.50005 2.5 6.20005 3.4 5.20005L5.6 7.20005C5.2 7.70005 5 8.30005 5 9.00005C5 10.7 6.3 12 8 12C8.8 12 9.5 11.7 10 11.2L13 14L13.7 13.3L1.7 2.30005L1 3.00005ZM6.3 7.90005L9.2 10.6C8.9 10.8 8.5 11 8 11C6.9 11 6 10.1 6 9.00005C6 8.60005 6.1 8.20005 6.3 7.90005ZM11 9.5L10 8.6C9.8 7.8 9.1 7.1 8.2 7L7.2 6.1C7.5 6 7.7 6 8 6C9.7 6 11 7.3 11 9V9.5Z" fill="#C5C5C540"/>
</svg>
