<svg xmlns="http://www.w3.org/2000/svg" xmlns:xlink="http://www.w3.org/1999/xlink" aria-hidden="true" role="img" class="iconify iconify--codicon" width="32" height="32" preserveAspectRatio="xMidYMid meet" viewBox="0 0 16 16">
<g fill="#C8C8C850">
<path fill-rule="evenodd" clip-rule="evenodd" d="M2 2L1 3v9l1 1h12l1-1V3l-1-1H2zm0 10V3h12v9H2zm3.356-3.07H6V7.22C6 6.408 5.685 6 5.056 6c-.135 0-.285.024-.45.073a1.444 1.444 0 0 0-.388.167v.665c.237-.203.487-.304.75-.304c.261 0 .392.156.392.469l-.6.103c-.506.086-.76.406-.76.961c0 .263.061.473.183.631A.61.61 0 0 0 4.69 9c.29 0 .509-.16.657-.48h.009v.41zm.004-1.355v.193a.75.75 0 0 1-.12.436a.368.368 0 0 1-.313.17a.276.276 0 0 1-.22-.095a.38.38 0 0 1-.08-.248c0-.222.11-.351.332-.389l.4-.067zM7.6 8.626h-.007v.31H7V5h.593v1.677h.008c.146-.31.355-.465.625-.465c.248 0 .44.118.573.353c.134.236.201.557.201.966c0 .443-.078.798-.235 1.067C8.61 8.866 8.4 9 8.138 9c-.237 0-.416-.125-.537-.374zm-.016-1.121v.272a.78.78 0 0 0 .107.426c.071.113.163.169.274.169c.135 0 .24-.072.314-.216c.075-.145.113-.35.113-.615c0-.22-.035-.39-.104-.514c-.067-.124-.164-.187-.29-.187c-.12 0-.219.062-.298.185a.887.887 0 0 0-.116.48zM11.262 9c.321 0 .567-.058.738-.173v-.71a.9.9 0 0 1-.552.207a.619.619 0 0 1-.5-.215c-.12-.145-.181-.345-.181-.598c0-.26.063-.464.189-.612a.644.644 0 0 1 .516-.223c.194 0 .37.069.528.207v-.749c-.129-.09-.338-.134-.626-.134c-.417 0-.751.14-1.001.422c-.249.28-.373.662-.373 1.148c0 .42.116.764.349 1.03c.232.267.537.4.913.4z"></path>
</g>
</svg>
