<?xml version="1.0" encoding="utf-8"?>
<!-- Generator: Adobe Illustrator 23.0.3, SVG Export Plug-In . SVG Version: 6.00 Build 0)  -->
<svg version="1.1" id="Layer_1" xmlns="http://www.w3.org/2000/svg" xmlns:xlink="http://www.w3.org/1999/xlink" x="0px" y="0px"
	 viewBox="0 0 24 24" style="enable-background:new 0 0 24 24;" xml:space="preserve">
<style type="text/css">
	.st0{fill:#db3d25;}
</style>
<path class="st0" d="M21.5,10.8l-8.3-8.3c-0.7-0.7-1.7-0.7-2.4,0l-8.3,8.3c-0.7,0.7-0.7,1.7,0,2.4l8.3,8.3c0.7,0.7,1.7,0.7,2.4,0
	l8.3-8.3C22.1,12.5,22.1,11.5,21.5,10.8 M20.3,12L12,20.3L3.7,12L12,3.7L20.3,12 M11,15.5h1.5V17H11V15.5 M12,7
	c2.7,0.1,3.9,2.8,2.3,4.9c-0.4,0.5-1.1,0.8-1.4,1.3c-0.4,0.4-0.4,0.9-0.4,1.4H11c0-0.9,0-1.6,0.4-2.1c0.3-0.5,1-0.8,1.4-1.1
	c1.2-1.1,0.9-2.7-0.8-2.9c-0.8,0-1.5,0.7-1.5,1.5H9C9,8.3,10.4,7,12,7z"/>
</svg>
