<?xml version="1.0" standalone="no"?><!DOCTYPE svg PUBLIC "-//W3C//DTD SVG 1.1//EN" "http://www.w3.org/Graphics/SVG/1.1/DTD/svg11.dtd"><svg fill="#CCCDCE" t="1542356880619" class="icon" style="" viewBox="0 0 1024 1024" version="1.1" xmlns="http://www.w3.org/2000/svg" p-id="974" xmlns:xlink="http://www.w3.org/1999/xlink" width="200" height="200"><defs><style type="text/css"></style></defs><path d="M678.016 726.016l137.984 0-70.016-185.984zM790.016 425.984l192 512-86.016 0-48-128-201.984 0-48 128-86.016 0 192-512 86.016 0zM550.016 642.005333l-34.005333 88.021333-132.010667-132.010667-214.016 212.010667-59.989333-59.989333 217.984-214.016q-80-88.021333-128-194.005333l86.016 0q41.984 80 98.005333 141.994667 91.989333-102.016 136.021333-228.010667l-477.994667 0 0-86.016 299.989333 0 0-84.010667 84.010667 0 0 84.010667 299.989333 0 0 86.016-125.994667 0q-52.010667 160-157.994667 278.016l-2.005333 2.005333z" p-id="975"></path></svg>