<svg xmlns="http://www.w3.org/2000/svg" viewBox="0 0 113.6 113.6"><defs><style>.a,.b{fill:#cccdce;}.b{opacity:0.6;}</style></defs><title>logo-view-container</title><polygon class="a" points="69.52 75.06 74.41 75.06 71.95 64.06 69.52 75.06"/><path class="a" d="M86.79,47.78H57.28A8.31,8.31,0,0,0,49,56.07V86.79a8.31,8.31,0,0,0,8.28,8.29H86.79a8.31,8.31,0,0,0,8.28-8.29V56.07A8.31,8.31,0,0,0,86.79,47.78ZM77,86.72l-1.12-5H68l-1.09,5h-7l8.37-30.58h7.49l8.36,30.58ZM31.5,65.82h9.12v0H31.5Z"/><polygon class="a" points="69.52 75.06 74.41 75.06 71.95 64.06 69.52 75.06"/><path class="b" d="M82.31,47.78V41l-3.71-3.81-1.92-2-3.82-3.92h-8V26.81a8.31,8.31,0,0,0-8.29-8.28H27a8.3,8.3,0,0,0-8.28,8.28V57.54A8.3,8.3,0,0,0,27,65.82H31.5v6.79l3.71,3.8,1.93,2L41,82.31h8V73H40.6l0-7.13H56.51a8.31,8.31,0,0,0,8.29-8.28V40.65h8.4v7.13ZM46.15,57.47H37.54L27.82,26.88h8.31l5.79,22,5.72-22h8.07Z"/></svg>