<svg xmlns="http://www.w3.org/2000/svg" viewBox="0 0 32 32"><defs><style>.a{fill:#fff;}.b{fill:#33495d;}.c{fill:#39b881;}</style></defs><title>logo</title><rect class="a" x="16.61" y="14.24" width="9.17" height="12.54"/><rect class="b" x="6.3" y="4.72" width="8.72" height="12.29"/><path class="c" d="M15.83,3.17H5.94A2.78,2.78,0,0,0,3.16,5.94V16.25A2.79,2.79,0,0,0,5.94,19h9.89a2.79,2.79,0,0,0,2.78-2.78V5.94A2.78,2.78,0,0,0,15.83,3.17ZM12.67,15.61a2.94,2.94,0,0,1-2.19.87,3.44,3.44,0,0,1-2.14-.8V13.24a2.8,2.8,0,0,0,2,1.13,1.12,1.12,0,0,0,.75-.26.78.78,0,0,0,.31-.63,1.81,1.81,0,0,0-.78-1.23A11.49,11.49,0,0,1,9,10.62a3.84,3.84,0,0,1-.57-1.07,3.22,3.22,0,0,1-.19-1.1,2.62,2.62,0,0,1,.81-2,2.9,2.9,0,0,1,2.07-.77,3.65,3.65,0,0,1,1.9.56V8.86a2.31,2.31,0,0,0-1.65-1,.92.92,0,0,0-.63.24.69.69,0,0,0-.28.54c0,.36.29.78.88,1.28a11.54,11.54,0,0,1,1.3,1.18,3.28,3.28,0,0,1,.62,1,3.4,3.4,0,0,1,.24,1.29A3.12,3.12,0,0,1,12.67,15.61Z"/><path class="b" d="M26.06,13H16.17a2.79,2.79,0,0,0-2.78,2.78V26.06a2.78,2.78,0,0,0,2.78,2.77h9.89a2.78,2.78,0,0,0,2.78-2.77V15.75A2.79,2.79,0,0,0,26.06,13ZM22.79,25.75l-.34-1.61H19.8l-.36,1.61H17.31l2.88-10.33h2.2l2.53,10.33Z"/><polygon class="b" points="21.23 17.95 20.2 22.47 22.15 22.47 21.26 17.95 21.23 17.95"/><polygon class="b" points="13.51 22.3 13.51 25.44 10.46 25.44 9.17 24.12 8.53 23.46 7.29 22.18 7.28 19.01 10.34 19.01 10.34 22.3 13.51 22.3"/></svg>