<svg xmlns="http://www.w3.org/2000/svg" viewBox="0 0 32 32"><defs><style>.a,.b{fill:#cccdce;}.a,.c{opacity:0.7;}</style></defs><title>Artboard 2</title><path class="a" d="M15.86,4.9H7.3A2.41,2.41,0,0,0,4.9,7.31v8.9a2.42,2.42,0,0,0,2.4,2.41h8.56a2.42,2.42,0,0,0,2.4-2.41V7.31A2.41,2.41,0,0,0,15.86,4.9ZM13.12,15.66a2.5,2.5,0,0,1-1.89.76,3,3,0,0,1-1.86-.7v-2.1a2.44,2.44,0,0,0,1.75,1,1,1,0,0,0,.65-.22.71.71,0,0,0,.26-.55,1.55,1.55,0,0,0-.67-1.06A10.29,10.29,0,0,1,10,11.35a3.8,3.8,0,0,1-.49-.93,2.84,2.84,0,0,1-.17-.95A2.26,2.26,0,0,1,10,7.77,2.47,2.47,0,0,1,11.8,7.1a3.14,3.14,0,0,1,1.64.49V9.82A2,2,0,0,0,12,8.93a.8.8,0,0,0-.54.21.6.6,0,0,0-.24.46c0,.31.25.68.76,1.1a12.28,12.28,0,0,1,1.13,1,3,3,0,0,1,.53.88,2.88,2.88,0,0,1,.2,1.11A2.66,2.66,0,0,1,13.12,15.66Z"/><path class="b" d="M24.7,13.38H16.14a2.42,2.42,0,0,0-2.4,2.41v8.9a2.41,2.41,0,0,0,2.4,2.41H24.7a2.41,2.41,0,0,0,2.4-2.41v-8.9A2.42,2.42,0,0,0,24.7,13.38Zm-2.83,11L21.58,23H19.29L19,24.43H17.13l2.49-8.93h1.91l2.18,8.93Z"/><polygon class="b" points="20.52 17.68 19.63 21.59 21.31 21.59 20.55 17.68 20.52 17.68"/><g class="c"><polygon class="b" points="13.85 21.45 13.85 24.16 11.21 24.16 10.1 23.02 9.54 22.45 8.46 21.35 8.46 18.61 11.11 18.61 11.11 21.45 13.85 21.45"/></g></svg>