<?xml version="1.0" encoding="utf-8"?>
<!-- Generator: Adobe Illustrator 23.0.3, SVG Export Plug-In . SVG Version: 6.00 Build 0)  -->
<svg version="1.1" id="Layer_1" xmlns="http://www.w3.org/2000/svg" xmlns:xlink="http://www.w3.org/1999/xlink" x="0px" y="0px"
	 viewBox="0 0 113.6 113.6" style="enable-background:new 0 0 113.6 113.6;" xml:space="preserve">
<style type="text/css">
	.st0{fill:#CCCDCE;}
	.st1{opacity:0.6;fill:#CCCDCE;enable-background:new    ;}
</style>
<title>logo-view-container</title>
<polygon class="st0" points="75.6,83.9 82.9,83.9 79.2,67.6 "/>
<path class="st0" d="M101.3,43.4H57.5c-6.8,0-12.3,5.5-12.3,12.3v45.6c0,6.8,5.5,12.3,12.3,12.3h43.8c6.8,0,12.3-5.5,12.3-12.3V55.7
	C113.5,48.9,108,43.4,101.3,43.4z M86.7,101.2l-1.7-7.4H73.4l-1.6,7.4H61.4l12.4-45.4h11.1l12.4,45.4H86.7z M19.2,70.2h13.5l0,0
	H19.2z"/>
<polygon class="st0" points="75.6,83.9 82.9,83.9 79.2,67.6 "/>
<path class="st1" d="M94.6,43.4V33.3l-5.5-5.7l-2.8-3l-5.7-5.8H68.7v-6.6C68.7,5.5,63.2,0,56.4,0H12.5C5.7,0,0.3,5.5,0.2,12.3v45.6
	c0,6.8,5.5,12.3,12.3,12.3h6.7v10.1l5.5,5.6l2.9,3l5.7,5.8h11.9V80.8H32.7V70.3h23.6c6.8,0,12.3-5.5,12.3-12.3V32.8h12.5v10.6
	L94.6,43.4z M40.9,57.8H28.2L13.7,12.4h12.3L34.7,45l8.5-32.7h12L40.9,57.8z"/>
</svg>
