<svg xmlns="http://www.w3.org/2000/svg" viewBox="0 0 32 32"><defs><style>.a,.b{fill:#cccdce;}.a,.c{opacity:0.7;}</style></defs><title>Artboard 2 copy</title><path class="a" d="M15.8.92H4.18A3.28,3.28,0,0,0,.91,4.18V16.29a3.27,3.27,0,0,0,3.27,3.26H15.8a3.27,3.27,0,0,0,3.27-3.26V4.18A3.28,3.28,0,0,0,15.8.92ZM12.08,15.54a3.4,3.4,0,0,1-2.57,1A4.18,4.18,0,0,1,7,15.63V12.76a3.29,3.29,0,0,0,2.37,1.32,1.33,1.33,0,0,0,.89-.3A1,1,0,0,0,10.6,13a2.13,2.13,0,0,0-.91-1.45,14.05,14.05,0,0,1-1.9-1.91,5.14,5.14,0,0,1-.67-1.26A3.84,3.84,0,0,1,6.9,7.13a3.06,3.06,0,0,1,1-2.31,3.37,3.37,0,0,1,2.43-.92,4.27,4.27,0,0,1,2.23.67v3a2.72,2.72,0,0,0-1.94-1.22,1.16,1.16,0,0,0-.74.28.83.83,0,0,0-.33.64c0,.42.35.92,1,1.49a15.09,15.09,0,0,1,1.53,1.4,4,4,0,0,1,.73,1.2,4.08,4.08,0,0,1,.27,1.5A3.63,3.63,0,0,1,12.08,15.54Z"/><path class="b" d="M27.82,12.45H16.2a3.27,3.27,0,0,0-3.27,3.26V27.82a3.28,3.28,0,0,0,3.27,3.26H27.82a3.28,3.28,0,0,0,3.27-3.26V15.71A3.27,3.27,0,0,0,27.82,12.45ZM24,27.46l-.4-1.9H20.47L20,27.46h-2.5l3.38-12.14h2.59l3,12.14Z"/><polygon class="b" points="22.14 18.29 20.94 23.6 23.22 23.6 22.18 18.29 22.14 18.29"/><g class="c"><polygon class="b" points="13.07 23.4 13.07 27.09 9.49 27.09 7.98 25.55 7.22 24.77 5.76 23.27 5.75 19.54 9.35 19.54 9.35 23.4 13.07 23.4"/></g></svg>