<svg xmlns="http://www.w3.org/2000/svg" xmlns:xlink="http://www.w3.org/1999/xlink" viewBox="0 0 900 600">
<path fill="#FFF" d="M0 625h937.5V0H0V625z"/>
<g fill="none">
<path fill="#CE0F25" d="M659.049 394.35c10.735 25.244 6.121 45.149 0 64.53 15.479-5.609 48.359-21.014 44.419-40.226C696.574 401.836 675.119 397.716 659.049 394.35"/>
<path stroke="#221B0F" d="M659.049 394.35c10.735 25.244 6.121 45.149 0 64.53 15.479-5.609 48.359-21.014 44.419-40.226C696.574 401.836 675.119 397.716 659.049 394.35z"/>
<path fill="#FAF8F0" d="M604.198 503.635c9.756-3.152 16.456-6.744 32.61-8.985 6.658-0.923 24.596 0.161 34.996-3.075 10.015-3.12 15.813-6.081 16.099-11.106 0.509-9.006 3.43-19.321 6.961-28.685 5.036-13.362 11.151-24.134 12.095-27.744 0.891-3.404-0.64-6.816-2.896-9.945 -8.792-12.194-28.496-21.087-46.054-21.066l0.746 2.989c13.518 0.245 40.244 10.371 41.851 23.915 2.423 20.399-66.544 23.491-104.855 31.064 0 0-9.878 2.456-13.244 5.93 -2.384 2.456-3.599 8.816-1.119 11.172C598.908 484.747 604.198 503.635 604.198 503.635"/>
<path stroke="#221B0F" d="M604.198 503.635c9.756-3.152 16.456-6.744 32.61-8.985 6.658-0.923 24.596 0.161 34.996-3.075 10.015-3.12 15.813-6.081 16.099-11.106 0.509-9.006 3.43-19.321 6.961-28.685 5.036-13.362 11.151-24.134 12.095-27.744 0.891-3.404-0.64-6.816-2.896-9.945 -8.792-12.194-28.496-21.087-46.054-21.066l0.746 2.989c13.518 0.245 40.244 10.371 41.851 23.915 2.423 20.399-66.544 23.491-104.855 31.064 0 0-9.878 2.456-13.244 5.93 -2.384 2.456-3.599 8.816-1.119 11.172C598.908 484.747 604.198 503.635 604.198 503.635z"/>
<path fill="#F6E4BE" d="M700.591 432.568c-25.791 16.68-60.626 17.901-91.055 20.664l-19.374 19.696 17.76 26.156c0 0 19.784-6.49 30.028-8.074 7.24-1.117 15.374-0.115 22.601-1.29 6.188-1.007 11.685-0.457 15.823-5.167 4.81-5.48 4.564-15.445 7.103-22.28 1.62-4.356 4.209-7.956 7.579-13.121C696.457 440.869 700.591 432.568 700.591 432.568"/>
<path fill="#CE0F25" d="M594.856 514.846c4.751-22.985-10-32.042-17.935-45.961 0 0 8.549 3.504 13.076 4.109 8.494 1.134 13.394 0.96 25.681-1.019 10.059-1.621 18.512-6.689 25.515-3.465 0.973 0.448 1.72 1.554 1.867 2.617 0.454 3.278-1.45 6.64-3.362 9.341C629.205 495.276 594.856 514.846 594.856 514.846"/>
<path stroke="#221B0F" d="M594.856 514.846c4.751-22.985-10-32.042-17.935-45.961 0 0 8.549 3.504 13.076 4.109 8.494 1.134 13.394 0.96 25.681-1.019 10.059-1.621 18.512-6.689 25.515-3.465 0.973 0.448 1.72 1.554 1.867 2.617 0.454 3.278-1.45 6.64-3.362 9.341C629.205 495.276 594.856 514.846 594.856 514.846z"/>
<path fill="#CE0F25" d="M278.37 394.35c-10.736 25.244-6.121 45.149 0 64.53 -15.479-5.609-48.36-21.014-44.417-40.226C240.847 401.836 262.3 397.716 278.37 394.35"/>
<path stroke="#221B0F" d="M278.37 394.35c-10.736 25.244-6.121 45.149 0 64.53 -15.479-5.609-48.36-21.014-44.417-40.226C240.847 401.836 262.3 397.716 278.37 394.35z"/>
<path fill="#FAF8F0" d="M333.22 503.635c-9.757-3.152-16.455-6.744-32.608-8.985 -6.66-0.923-24.596 0.161-34.996-3.075 -10.016-3.12-15.816-6.081-16.1-11.106 -0.51-9.006-3.431-19.321-6.961-28.685 -5.039-13.362-11.154-24.134-12.096-27.744 -0.89-3.404 0.64-6.816 2.898-9.945 8.792-12.194 28.499-21.087 46.054-21.066l-0.747 2.989c-13.516 0.245-40.242 10.371-41.851 23.915 -2.423 20.399 66.544 23.491 104.856 31.064 0 0 9.876 2.456 13.244 5.93 2.384 2.456 3.599 8.816 1.117 11.172C338.513 484.747 333.22 503.635 333.22 503.635"/>
<path stroke="#221B0F" d="M333.22 503.635c-9.757-3.152-16.455-6.744-32.608-8.985 -6.66-0.923-24.596 0.161-34.996-3.075 -10.016-3.12-15.816-6.081-16.1-11.106 -0.51-9.006-3.431-19.321-6.961-28.685 -5.039-13.362-11.154-24.134-12.096-27.744 -0.89-3.404 0.64-6.816 2.898-9.945 8.792-12.194 28.499-21.087 46.054-21.066l-0.747 2.989c-13.516 0.245-40.242 10.371-41.851 23.915 -2.423 20.399 66.544 23.491 104.856 31.064 0 0 9.876 2.456 13.244 5.93 2.384 2.456 3.599 8.816 1.117 11.172C338.513 484.747 333.22 503.635 333.22 503.635z"/>
<path fill="#F6E4BE" d="M236.83 432.568c25.79 16.68 60.625 17.901 91.054 20.664l19.372 19.696 -17.759 26.156c0 0-19.785-6.49-30.029-8.074 -7.239-1.117-15.37-0.115-22.601-1.29 -6.188-1.007-11.686-0.457-15.821-5.167 -4.81-5.48-4.564-15.445-7.104-22.28 -1.617-4.356-4.207-7.956-7.579-13.121C240.964 440.869 236.83 432.568 236.83 432.568"/>
<path fill="#CE0F25" d="M342.561 514.846c-4.749-22.985 10-32.042 17.938-45.961 0 0-8.55 3.504-13.08 4.109 -8.49 1.134-13.391 0.96-25.679-1.019 -10.057-1.621-18.513-6.689-25.514-3.465 -0.974 0.448-1.722 1.554-1.869 2.617 -0.454 3.278 1.45 6.64 3.362 9.341C308.215 495.276 342.561 514.846 342.561 514.846"/>
<path stroke="#221B0F" d="M342.561 514.846c-4.749-22.985 10-32.042 17.938-45.961 0 0-8.55 3.504-13.08 4.109 -8.49 1.134-13.391 0.96-25.679-1.019 -10.057-1.621-18.513-6.689-25.514-3.465 -0.974 0.448-1.722 1.554-1.869 2.617 -0.454 3.278 1.45 6.64 3.362 9.341C308.215 495.276 342.561 514.846 342.561 514.846z"/>
<path fill="#FAF8F0" d="M305.291 543.188c-4.464-2.861-9.549-5.693-12.377-9.996 -1.949-2.965-2.796-7.039-1.904-10.474 5.216-20.094 4.106-30.854 0.49-46.069 -1.167-4.917-2.358-12.341 3.794-12.01 15.78 0.851 33.471 5.886 46.178 5.431 5.191-0.189 12.95-1.221 13.616-6.881 0.791-6.723-16.472-12.695-16.472-12.695 10.261 1.178 18.752 5.424 21.666 11.428 1.184 2.441 0.635 5.897-0.894 8.141 -3.009 4.423-8.734 5.621-14.034 6.331 -10.558 1.425-28.455-1.47-38.575-3.412 -4.577-0.878-6.177-1.598-6.976-0.971 -2.002 1.577 0.731 4.762 7.103 10.72 12.891 12.055 27.917 21.872 43.424 30.307 42.229 22.967 74.524 30.305 118.381 30.305 43.855 0 76.149-7.337 118.38-30.305 15.506-8.435 30.531-18.253 43.423-30.307 6.372-5.957 9.108-9.143 7.1-10.72 -0.794-0.626-2.395 0.094-6.974 0.971 -10.12 1.943-28.017 4.837-38.576 3.413 -5.296-0.71-11.024-1.909-14.033-6.331 -1.529-2.244-2.077-5.7-0.891-8.141 2.914-6.004 11.402-10.25 21.664-11.427 0 0-17.262 5.973-16.471 12.695 0.665 5.66 8.424 6.693 13.615 6.881 12.709 0.455 30.396-4.58 46.179-5.431 6.152-0.331 4.962 7.092 3.792 12.01 -3.616 15.215-4.728 25.975 0.491 46.069 0.89 3.435 0.042 7.509-1.905 10.474 -2.827 4.304-7.911 7.135-12.378 9.996 -51.901 33.279-110.235 50.366-163.416 50.366C415.528 593.555 357.193 576.467 305.291 543.188"/>
<path stroke="#221B0F" d="M305.291 543.188c-4.464-2.861-9.549-5.693-12.377-9.996 -1.949-2.965-2.796-7.039-1.904-10.474 5.216-20.094 4.106-30.854 0.49-46.069 -1.167-4.917-2.358-12.341 3.794-12.01 15.78 0.851 33.471 5.886 46.178 5.431 5.191-0.189 12.95-1.221 13.616-6.881 0.791-6.723-16.472-12.695-16.472-12.695 10.261 1.178 18.752 5.424 21.666 11.428 1.184 2.441 0.635 5.897-0.894 8.141 -3.009 4.423-8.734 5.621-14.034 6.331 -10.558 1.425-28.455-1.47-38.575-3.412 -4.577-0.878-6.177-1.598-6.976-0.971 -2.002 1.577 0.731 4.762 7.103 10.72 12.891 12.055 27.917 21.872 43.424 30.307 42.229 22.967 74.524 30.305 118.381 30.305 43.855 0 76.149-7.337 118.38-30.305 15.506-8.435 30.531-18.253 43.423-30.307 6.372-5.957 9.108-9.143 7.1-10.72 -0.794-0.626-2.395 0.094-6.974 0.971 -10.12 1.943-28.017 4.837-38.576 3.413 -5.296-0.71-11.024-1.909-14.033-6.331 -1.529-2.244-2.077-5.7-0.891-8.141 2.914-6.004 11.402-10.25 21.664-11.427 0 0-17.262 5.973-16.471 12.695 0.665 5.66 8.424 6.693 13.615 6.881 12.709 0.455 30.396-4.58 46.179-5.431 6.152-0.331 4.962 7.092 3.792 12.01 -3.616 15.215-4.728 25.975 0.491 46.069 0.89 3.435 0.042 7.509-1.905 10.474 -2.827 4.304-7.911 7.135-12.378 9.996 -51.901 33.279-110.235 50.366-163.416 50.366C415.528 593.555 357.193 576.467 305.291 543.188z"/>
<path fill="#F6E4BE" d="M637.419 535.408c0 0 3.499-3.49 4.145-6.447 1.611-7.385-2.131-15.006-2.303-22.563 -0.185-8.148 1.383-24.404 1.383-24.404 -20.186 19.274-75.825 68.013-171.934 68.013 -93.4 0-151.749-48.739-171.935-68.013 0 0 1.565 16.256 1.381 24.404 -0.17 7.556-3.915 15.178-2.301 22.563 0.645 2.958 4.143 6.448 4.143 6.448 52.923 33.996 109.461 54.795 168.712 54.795C527.959 590.203 584.498 569.404 637.419 535.408"/>
</g>
<path d="M365.845 550.515c1.832-5.256 7.756-10.813 17.201-7.524 7.839 2.731 11.168 8.888 8.714 15.929 -2.452 7.039-9.43 10.85-17.426 8.066C365.298 563.839 363.949 555.956 365.845 550.515M386.956 558.521c2.399-6.886-0.174-12.572-5.338-14.371 -3.62-1.261-8.43-0.731-11.098 6.925 -2.227 6.395-0.374 12.729 5.671 14.831C378.396 566.676 383.86 567.408 386.956 558.521"/>
<path d="M398.135 558.267c1.155-4.813 1.368-5.697 1.545-6.727 0.195-1.091 0.056-1.659-0.961-2.138 -0.245-0.126-0.787-0.29-1.241-0.399 -0.356-0.085-0.536-0.193-0.484-0.418 0.054-0.22 0.296-0.23 0.783-0.11 1.719 0.41 3.737 0.996 4.71 1.229 0.779 0.188 2.844 0.583 4.011 0.859 0.487 0.117 0.699 0.236 0.646 0.456 -0.054 0.224-0.264 0.24-0.589 0.16 -0.355-0.082-0.557-0.1-0.961-0.128 -0.915-0.052-1.304 0.423-1.634 1.515 -0.307 0.997-0.521 1.884-1.675 6.696l-1.064 4.431c-1.101 4.59-0.624 6.745 0.661 8.395 1.178 1.519 2.639 2.004 3.741 2.269 1.428 0.341 3.284 0.319 4.885-0.639 2.201-1.311 2.982-4.137 3.764-7.397l0.95-3.958c1.154-4.811 1.366-5.697 1.545-6.726 0.194-1.092 0.056-1.661-0.961-2.138 -0.245-0.125-0.789-0.29-1.144-0.375 -0.357-0.086-0.537-0.198-0.484-0.418 0.053-0.223 0.295-0.23 0.75-0.12 1.653 0.396 3.673 0.981 3.705 0.989 0.389 0.095 2.455 0.489 3.72 0.79 0.454 0.109 0.665 0.226 0.612 0.448 -0.054 0.223-0.264 0.24-0.652 0.145 -0.356-0.085-0.559-0.1-0.964-0.13 -0.912-0.051-1.301 0.424-1.632 1.516 -0.307 0.999-0.52 1.884-1.675 6.695l-0.813 3.388c-0.842 3.516-2.096 7.164-5.366 8.79 -2.765 1.38-5.184 1.167-7.291 0.664 -1.719-0.413-4.809-1.255-6.673-3.913 -1.305-1.852-1.975-4.491-0.874-9.081L398.135 558.267z"/>
<path d="M427.129 571.524c-0.165-0.025-0.24 0.031-0.334 0.215l-2.416 4.159c-0.445 0.759-0.72 1.509-0.776 1.897 -0.084 0.579 0.153 1.04 1.176 1.188l0.495 0.07c0.396 0.056 0.485 0.135 0.459 0.329 -0.037 0.258-0.245 0.294-0.607 0.241 -1.056-0.153-2.463-0.45-3.485-0.598 -0.363-0.052-2.191-0.216-3.908-0.462 -0.429-0.061-0.618-0.153-0.581-0.412 0.029-0.194 0.169-0.239 0.434-0.201 0.296 0.044 0.764 0.079 1.031 0.083 1.548 0.025 2.331-0.981 3.222-2.497l11.15-18.791c0.53-0.879 0.779-1.204 1.107-1.156 0.298 0.042 0.454 0.361 0.679 1.15 0.537 1.886 3.967 15.532 5.378 20.734 0.838 3.081 1.73 3.668 2.399 3.929 0.481 0.167 0.972 0.27 1.369 0.326 0.264 0.038 0.424 0.095 0.391 0.321 -0.036 0.258-0.343 0.28-1.564 0.102 -1.189-0.17-3.598-0.515-6.229-0.959 -0.589-0.115-0.985-0.172-0.952-0.399 0.027-0.193 0.169-0.239 0.504-0.224 0.24-0.031 0.513-0.288 0.403-0.698l-1.688-7.019c-0.043-0.169-0.132-0.25-0.298-0.271L427.129 571.524zM434.091 570.877c0.166 0.025 0.214-0.066 0.192-0.169l-1.832-8.354c-0.014-0.134-0.022-0.3-0.123-0.315 -0.097-0.014-0.187 0.138-0.239 0.265l-4.17 7.46c-0.051 0.122-0.033 0.225 0.1 0.244L434.091 570.877z"/>
<path d="M451.349 578.297c-0.025 2.54 0.378 3.401 1.036 3.654 0.559 0.214 1.191 0.27 1.724 0.288 0.366 0.016 0.565 0.089 0.557 0.282 -0.01 0.259-0.311 0.315-0.777 0.299 -2.166-0.079-3.495-0.225-4.129-0.246 -0.3-0.011-1.869 0.028-3.601-0.034 -0.434-0.015-0.732-0.057-0.721-0.351 0.006-0.195 0.21-0.254 0.542-0.241 0.433 0.016 1.034 0.005 1.505-0.109 0.876-0.23 1.043-1.167 1.179-3.996l0.991-19.151c0.024-0.65 0.14-1.101 0.472-1.089 0.366 0.014 0.653 0.446 1.196 1.05 0.385 0.441 5.261 5.826 9.955 10.719 2.186 2.295 6.515 7.141 7.063 7.683l0.167 0.005 0.193-14.619c0.039-1.985-0.239-2.614-1.026-2.969 -0.493-0.211-1.292-0.242-1.757-0.259 -0.401-0.013-0.531-0.115-0.524-0.311 0.01-0.26 0.378-0.28 0.878-0.26 1.731 0.063 3.329 0.219 4.025 0.244 0.368 0.014 1.639-0.039 3.27 0.017 0.435 0.015 0.768 0.06 0.757 0.321 -0.007 0.194-0.211 0.286-0.61 0.27 -0.334-0.012-0.601-0.022-1.005 0.063 -0.943 0.226-1.232 0.901-1.333 2.721l-1.107 20.513c-0.026 0.716-0.167 1.005-0.469 0.994 -0.366-0.013-0.754-0.386-1.107-0.758 -2.029-2.028-6.139-6.443-9.482-9.917 -3.506-3.644-7.06-7.746-7.638-8.386l-0.1-0.003L451.349 578.297z"/>
<path d="M483.181 574.563c-0.169 0.014-0.229 0.081-0.281 0.283l-1.472 4.578c-0.273 0.836-0.383 1.627-0.353 2.019 0.041 0.584 0.371 0.984 1.404 0.907l0.499-0.035c0.396-0.028 0.503 0.027 0.516 0.224 0.019 0.259-0.175 0.339-0.541 0.365 -1.064 0.078-2.502 0.084-3.533 0.161 -0.365 0.024-2.189 0.255-3.916 0.381 -0.431 0.033-0.636-0.018-0.656-0.279 -0.013-0.194 0.114-0.269 0.381-0.29 0.3-0.02 0.762-0.085 1.025-0.138 1.516-0.307 2.066-1.456 2.614-3.128l6.88-20.739c0.331-0.971 0.505-1.342 0.837-1.367 0.3-0.022 0.52 0.256 0.908 0.98 0.926 1.727 7.195 14.326 9.681 19.106 1.479 2.83 2.475 3.215 3.185 3.328 0.505 0.06 1.007 0.057 1.406 0.028 0.268-0.02 0.435 0 0.452 0.227 0.018 0.261-0.276 0.346-1.509 0.438 -1.195 0.086-3.623 0.264-6.288 0.39 -0.6 0.014-1.002 0.041-1.016-0.185 -0.015-0.195 0.114-0.269 0.444-0.328 0.228-0.081 0.44-0.39 0.244-0.768l-3.147-6.495c-0.079-0.159-0.184-0.214-0.349-0.204L483.181 574.563zM489.846 572.447c0.166-0.014 0.191-0.113 0.152-0.208l-3.575-7.769c-0.043-0.128-0.09-0.289-0.189-0.281s-0.155 0.174-0.176 0.306l-2.481 8.178c-0.024 0.134 0.018 0.229 0.15 0.219L489.846 572.447z"/>
<path d="M509.529 570.608c0.65 4.115 0.999 6.334 1.781 6.804 0.635 0.396 1.527 0.486 4.095 0.081 1.746-0.274 3.027-0.509 3.714-1.506 0.329-0.481 0.583-1.445 0.551-2.066 -0.011-0.291 0.024-0.497 0.289-0.537 0.229-0.039 0.286 0.119 0.347 0.503 0.056 0.355 0.206 2.804 0.088 3.78 -0.085 0.737-0.225 0.925-1.939 1.194 -2.37 0.371-4.094 0.576-5.58 0.781 -1.493 0.166-2.684 0.319-4.034 0.534 -0.363 0.056-1.088 0.173-1.872 0.328 -0.757 0.119-1.604 0.319-2.263 0.422 -0.429 0.068-0.675 0.006-0.711-0.217 -0.024-0.162 0.091-0.279 0.488-0.341 0.494-0.079 0.879-0.204 1.166-0.315 0.639-0.232 0.691-0.968 0.676-1.919 -0.049-1.378-0.448-3.917-0.912-6.876l-0.891-5.661c-0.768-4.889-0.909-5.79-1.137-6.807 -0.236-1.083-0.581-1.556-1.704-1.609 -0.275-0.025-0.674 0.005-1.103 0.074 -0.363 0.054-0.569 0.023-0.605-0.201 -0.035-0.225 0.185-0.325 0.679-0.405 1.549-0.244 3.638-0.474 4.528-0.612 0.791-0.126 3.179-0.601 4.466-0.802 0.46-0.073 0.701-0.045 0.735 0.181 0.037 0.225-0.151 0.321-0.545 0.384 -0.364 0.056-0.886 0.171-1.271 0.299 -0.864 0.299-1.041 0.888-0.93 2.024 0.096 1.04 0.237 1.941 1.006 6.83L509.529 570.608z"/>
<path d="M527.885 568.32c-0.16 0.04-0.209 0.119-0.23 0.324l-0.699 4.759c-0.132 0.87-0.11 1.667-0.018 2.046 0.137 0.57 0.529 0.91 1.534 0.667l0.486-0.117c0.389-0.096 0.502-0.054 0.547 0.134 0.061 0.254-0.119 0.364-0.474 0.451 -1.037 0.251-2.452 0.493-3.459 0.738 -0.356 0.086-2.116 0.611-3.802 1.02 -0.42 0.103-0.631 0.086-0.691-0.167 -0.045-0.189 0.069-0.284 0.327-0.347 0.291-0.069 0.739-0.21 0.99-0.306 1.445-0.55 1.8-1.775 2.064-3.515l3.381-21.584c0.166-1.01 0.276-1.409 0.6-1.486 0.291-0.069 0.555 0.166 1.055 0.816 1.2 1.552 9.452 12.95 12.69 17.258 1.923 2.55 2.969 2.766 3.69 2.759 0.506-0.024 1-0.109 1.39-0.204 0.26-0.061 0.43-0.071 0.484 0.151 0.059 0.254-0.215 0.388-1.415 0.677 -1.166 0.282-3.531 0.855-6.14 1.421 -0.591 0.109-0.98 0.203-1.034-0.019 -0.048-0.189 0.069-0.285 0.384-0.395 0.212-0.119 0.37-0.459 0.116-0.799l-4.173-5.889c-0.103-0.141-0.216-0.182-0.376-0.143L527.885 568.32zM534.114 565.137c0.162-0.039 0.171-0.141 0.116-0.228l-4.804-7.075c-0.06-0.119-0.134-0.27-0.23-0.246 -0.096 0.025-0.125 0.198-0.128 0.33l-1.1 8.472c-0.004 0.134 0.054 0.222 0.183 0.19L534.114 565.137z"/>
<path d="M545.004 560.026c-1.8-5.266-0.558-13.291 8.909-16.526 7.857-2.681 14.272 0.115 16.683 7.17 2.409 7.055-0.735 14.355-8.75 17.09C552.79 570.856 546.866 565.481 545.004 560.026M566.566 553.32c-2.358-6.901-7.889-9.794-13.064-8.025 -3.629 1.237-7.089 4.621-4.47 12.291 2.188 6.409 7.553 10.253 13.611 8.184C564.852 565.016 569.609 562.224 566.566 553.32"/>
<path fill="#666" d="M600.99 134.593H336.514v18.726H600.99V134.593z"/>
<path fill="none" stroke="#552200" d="M600.99 134.593H336.514v18.726H600.99V134.593z"/>
<g fill="#5E520E" stroke="#552200">
<path fill="#EACE24" stroke="#806600" stroke-width="2" d="M336.514 153.318l-29.936-70.443 -5.031 1.529 -10.99-25.175 20.187-5.964 4.571 11.818 9.746-2.889 -4.171-11.585 20.56-4.742 3.655 12.07 10.121-1.949L351.723 43.8l20.62-3.595 2.823 12.279 13.641-1.932 1.185 6.206 5.063-0.641 -1.04-6.175 10.45-1.36 1.066 6.281 5.11-0.515 -0.769-6.331 10.382-0.948 0.872 6.326 10.099-0.775 -1.841-18.731 20.92-1.069 0.684 12.324 9.976-0.152 -0.18-12.441 21.006 0.001 -0.323 12.592 10.155 0.208 0.739-12.533 20.871 0.917 -1.906 18.997 10.095 0.699 0.876-6.261 10.35 0.95 -0.821 6.271 5.219 0.511 0.944-6.116 10.415 1.115 -1 6.25 5.158 0.716 1.247-6.245 13.487 1.995 2.859-12.379 20.592 3.594 -3.194 12.415 9.72 1.908 3.766-12.221 20.524 4.649 -4.271 12.059 9.779 2.671 4.725-12.066 20.263 5.779L641.07 84.203l-8.674-2.857 -30.483 71.973C517.724 129.097 417.809 128.996 336.514 153.318"/>
<path d="M462.536 95.047V72.721c0-8.93 16.066-8.93 16.066 0v22.326"/>
<path d="M345.25 110.217l-6.93-21.565c-2.771-8.625 12.746-12.092 15.519-3.466l6.929 21.565"/>
<path d="M579.064 105.929l6.929-21.564c2.775-8.626 18.29-5.16 15.519 3.465l-6.931 21.565"/>
<path fill="none" stroke="#806600" d="M514.974 119.629l-0.915 7.759M333.067 144.973c88.135-25.836 184.129-26.221 272.559-1.09M329.87 137.896c90.111-26.456 188.276-26.865 278.703-1.165M327.021 130.716c92.091-27.003 192.401-27.375 284.776-1.056M324.11 124.146c93.783-27.525 195.94-27.951 290.05-1.212M549.956 123.741l-1.609 7.573M596.106 133.588l-2.605 7.077M576.629 128.849l-2.204 7.189M548.824 115.996l-1.526 7.467M564.871 118.697l-1.971 7.166M583.166 122.409l-2.198 7.155M603.71 127.503l-2.72 7.089M578.848 114.276l-1.96 6.535M602.296 119.591l-2.536 6.84M593.418 117.503l-2.266 6.595M558.132 110.558l-1.626 6.79M546.068 108.28l-1.464 7.136M503.769 118.94l-0.689 7.505M530.669 121.308l-1.236 7.325M497.786 110.866l-0.525 7.583M511.589 111.635l-0.804 7.483M535.02 114.313l-1.284 7.229M529.905 106.382l-1.091 6.825M516.019 105.132l-0.854 7.013M494.619 103.346l-0.442 7M365.031 129.124l2.147 6.95M488.345 118.026l-0.356 7.741M351.105 132.363l2.505 7.096M433.071 119.18l0.79 7.59M452.047 118.344l0.397 7.355M410.636 121.244l1.295 7.516M464.826 118.026l0.135 7.47M383.307 125.404l1.8 7.411M357.934 122.717l2.351 7.265M375.902 119.012l1.938 7.189M387.103 117.042l1.699 7.427M403.415 114.579l1.386 7.331M425.885 112.362l0.944 7.518M443.539 111.024l0.589 7.699M459.268 110.489l0.246 7.474M481.416 110.03l-0.21 7.471M340.824 126.968l2.734 7.245M477.316 103.044l-0.118 7.185M461.38 103.235l0.184 6.9M446.812 103.804l0.457 6.908M419.722 105.892l0.981 7M398.551 108.28l1.342 6.74M383.754 110.458l1.655 6.865M366.379 113.665l1.927 6.596M340.5 119.212l2.599 7.026M556.506 101.82l8.036-37.306M321.068 116.431c95.924-28.114 200.404-28.491 296.615-1.075M506.806 67.845c18.643 1.164 37.333 3.221 55.693 6.163M513.746 52.902l-0.69 5.793 0 0c-27.5-1.91-55.476-1.919-82.977-0.013l0 0 -0.737-5.916M379.247 74.024c18.179-2.916 37.099-4.966 55.557-6.138M376.891 64.68l8.567 37.223M437.545 96.112l-3.638-37.683M507.314 58.353l-2.018 37.784M377.7 52.127l2.61 12.115 0 0c-26.975 4.16-52.976 12.363-78.764 20.163M562.536 51.915c0 0-2.528 11.995-2.527 11.996 27.659 4.176 54.641 12.294 81.062 20.292"/>
</g>
<path fill="#1353B4" stroke="#554400" stroke-width="2" d="M336.514 153.317c-0.704 45.093-0.662 90.191 0 135.284 0.636 43.444 2.766 77.346 21.895 103.856 23.042 31.931 61.427 54.975 110.806 77.616 49.376-22.641 87.764-45.685 110.806-77.616 19.126-26.51 21.258-60.413 21.894-103.856 0.664-45.092 0.704-90.191 0-135.284L336.514 153.317 336.514 153.317z"/>
<path fill="#CE0F25" d="M598.216 344.999c0.088-11.274 2.433-16.629 2.434-27.901 1.169-22.626 1.618-45.096 1.265-67.644H336.514c-0.354 22.548 0.094 44.817 1.262 67.644 0.004 11.272 2.416 16.628 2.501 27.901H598.216z"/>
<path fill="none" stroke="#554400" stroke-width="2" d="M336.135 248.863h266.159M340.106 344.999h258.111"/>
<path fill="#FFF" stroke="#000" stroke-width="0.805" d="M436.14 311.056l32.228-13.13 -13.13 32.229 14.324-9.548 14.325 9.548 -13.131-32.229 32.229 13.13 -9.55-14.323 9.55-14.324 -32.229 13.13 13.131-32.228 -14.325 9.549 -14.324-9.549 13.13 32.228 -32.228-13.13 9.549 14.324L436.14 311.056z"/>
<g id="t1" fill="#FFF" stroke="#000">
<path fill="#EACE24" stroke="none" d="M256.42 398.03c-0.345 39.061-0.69 40.443-0.69 40.443 17.109 16.765 19.139 22.906 24.195 28.346 6.567-9.507 16.764-5.705 16.764-5.705 2.075-8.986 12.964-16.764 12.964-16.764 -15.209-1.209-41.48-8.989-43.554-12.099 -6.888-10.332 2.592-41.651 2.592-41.651L256.42 398.03z"/>
<path fill="none" stroke="#806600" d="M256.42 398.03c-0.345 39.061-0.69 40.443-0.69 40.443 17.109 16.765 19.139 22.906 24.195 28.346 6.567-9.507 16.764-5.705 16.764-5.705 2.075-8.986 12.964-16.764 12.964-16.764 -15.209-1.209-41.48-8.989-43.554-12.099 -6.888-10.332 2.592-41.651 2.592-41.651L256.42 398.03z"/>
<path fill="#EACE24" stroke="none" d="M293.936 459.211l-16.865-12.953 20.042 11.975"/>
<path fill="none" stroke="#806600" d="M293.936 459.211l-16.865-12.953 20.042 11.975"/>
<path fill="#EACE24" d="M268.904 379.505c0 0 21.131-8.626 42.788 6.57 2.069 0.604 3.581 0.427 5.227 0.141 4.186-4.489 13.681-17.685 21.014-15.974 0.54-11.15-0.734-55.728-0.734-55.728 -3.176-0.124-4.277 6.11-4.277 6.11 1.834 12.709-5.5 89.948-35.563 38.862l-21.265 2.2L268.904 379.505z"/>
<path fill="none" stroke="#806600" d="M268.904 379.505c0 0 21.131-8.626 42.788 6.57 2.069 0.604 3.581 0.427 5.227 0.141 4.186-4.489 13.681-17.685 21.014-15.974 0.54-11.15-0.734-55.728-0.734-55.728 -3.176-0.124-4.277 6.11-4.277 6.11 1.834 12.709-5.5 89.948-35.563 38.862l-21.265 2.2L268.904 379.505z"/>
<path fill="#EACE24" stroke="none" d="M257.333 200.842c18.148 6.567 18.375 10.037 36.347 25.937 14.345 5.705 35.71 19.692 36.92 22.804l-1.164 4.543c2.766 1.727 5.378-4.644 5.378-4.644 -2.765-15.729-53.276-63.103-53.276-63.103l-22.249 4.685L257.333 200.842z"/>
<path fill="none" stroke="#806600" d="M257.333 200.842c18.148 6.567 18.375 10.037 36.347 25.937 14.345 5.705 35.71 19.692 36.92 22.804l-1.164 4.543c2.766 1.727 5.378-4.644 5.378-4.644 -2.765-15.729-53.276-63.103-53.276-63.103l-22.249 4.685L257.333 200.842z"/>
<path fill="none" d="M274.395 193.804l56.861 52.195 1.211 3.802"/>
<path fill="none" d="M286.838 213.161c5.704 10.025 16.248 13.654 16.248 13.654"/>
<path d="M263.87 180.412c-0.244-18.82 21.999-31.285 21.999-32.996 -2.201-13.415-33.976 18.575-35.688 22.731 -1.964 6.064 2.445 13.443 2.445 13.443"/>
<path d="M269.981 155.725c-6.6 5.377-11.976 22.976-11.976 22.976"/>
<path d="M253.604 180.168c-2.688-18.088 11-33.73 10.022-34.219 -8.411-4.205-19.311 18.086-22.487 25.42l4.155 24.93"/>
<path d="M249.205 165.258c-3.423 8.799 0.244 20.775 0.244 20.775"/>
<path d="M246.516 189.7c-4.4-4.399-0.245-35.929-1.467-35.929 -9.288 0-14.175 30.307-12.22 36.663 6.342 20.614 11.487 24.197 11.487 24.197"/>
<path d="M238.206 178.946c-0.734 9.289 6.599 20.776 6.599 20.776"/>
<path d="M244.316 212.92c-11.731-10.999-13.766-40.511-15.397-43.506 -12.553 2.445-6.11 33.73-6.11 33.73 0.244 2.444 16.62 21.998 16.62 21.998"/>
<path d="M227.451 188.967c-4.155 8.31 14.665 32.998 14.665 32.998"/>
<path d="M258.982 282.823c0 0-3.178-42.528 2.199-48.882l-15.886-23.465 -20.531 40.817 18.575 33.975L258.982 282.823z"/>
<path fill="none" d="M258.982 282.823c0 0-3.178-42.528 2.199-48.882l-15.886-23.465 -20.531 40.817 18.575 33.975L258.982 282.823z"/>
<path d="M244.026 375.503c6.966 8.92 10.37 29.036 10.37 29.036l2.074-6.569c0.978 0.611 1.571 5.705 2.938 5.705 0.611 0 0.504-5.251 1.901-5.533 0.611-0.12 0.206 7.26 1.556 7.26 1.1 0 1.188-5.256 1.555-5.013 0.864 0.575 1.035 6.978 1.729 3.63 -0.977-34.341 66.34-62.443 64.985-100.936 1.711-39.839-41.135-54.959-67.405-88.488 0 0-7.381-21.987 6.221-12.271 11-1.711 10.025-12.616 10.025-12.616h6.049c2.69-23.464-20.912-17.974-20.912-17.974 -21.875 0-23.85 22.64-23.85 22.64 -5.622 29.454 32.542 64.53 32.542 64.53 5.621 12.221-0.05 33.295-0.05 33.295l-53.114 50.04"/>
<path d="M221.253 341.843c-2.934 3.545-18.003 21.403-21.669 27.635 -5.191 5.723 4.9 4.113 4.9 4.113s-14.922 15.775-22.17 20.389c2.225 6.675 16.536-2.994 16.536-2.994s-13.933 8.555-13.198 10.266c4.251 3.244 16.619-5.865 16.619-5.865s-2.954 4.154-0.489 5.621c4.156 0 13.687-7.576 13.687-7.576s-1.955 4.399 0.245 5.131c3.974-2.505 28.843-23.221 28.843-23.221"/>
<path fill="none" d="M230.855 331.268c0 0-7.432 9.851-2.42 8.296"/>
<path d="M229.809 305.698c-6.049 11.753-13.77 31.131-5.359 39.75 2.766 0.865 10.145-27.608 15.901-30.245 0.864-2.936 4.666-15.899 4.666-15.899"/>
<path d="M239.184 304.332c3.173 0-6.347 6.356-9.778 15.154"/>
<path d="M241.734 306.564c-4.666 21.949-0.345 26.615 1.556 26.789 2.765-1.385 7.605-21.434 13.135-22.643"/>
<path d="M218.056 204.938c-19.356-18.148-21.95-38.886-24.024-39.061 -9.135-0.76 3.111 36.815 3.111 36.815l23.159 18.492"/>
<path d="M214.986 209.499c0 0-9.286-7.089-14.176-16.621"/>
<path d="M218.056 218.074c-28.69-15.901-32.147-41.825-34.566-40.962 -8.834 3.489 2.419 27.309 2.419 27.309 1.556 6.567 24.37 27.134 24.37 27.134"/>
<path d="M212.542 225.63c0 0-12.22-9.044-21.997-23.954"/>
<path d="M209.242 229.653c-34.393-19.01-35.085-40.789-38.887-39.405 -8.168 22.139 21.776 43.034 42.862 58.762"/>
<path d="M211.076 239.073c0 0-15.644-5.621-25.421-20.531"/>
<path d="M212.526 248.491c-29.9-9.505-44.336-37.371-48.048-35.949 -8.641 3.284 9.506 26.616 9.506 26.616 14.69 13.654 38.887 23.678 38.887 23.678"/>
<path d="M213.276 252.761c0 0-20.776-3.911-32.02-15.4"/>
<path d="M212.699 261.108c-47.874-15.383-49.775-30.418-54.269-29.209 -8.525 6.483 18.839 27.999 18.839 27.999 3.455 5.184 38.369 14.691 38.369 14.691"/>
<path d="M216.453 263.516c0 0-24.198 0.489-34.463-7.822"/>
<path d="M214.945 274.417c-45.8-9.68-52.54-23.16-56.171-22.295 -5.724 7.781 21.951 24.713 21.951 24.713 17.11 9.852 40.269 11.234 40.269 11.234"/>
<path d="M220.119 279.89c0 0-16.131 0.489-26.398-5.132"/>
<path d="M213.562 304.487c-12.788 11.753-20.047 33.695-13.48 35.086 3.629 0.171 13.48-25.581 27.826-29.208l9.159-7.952"/>
<path d="M231.851 301.155c3.171 0-16.614 6.112-20.043 14.911"/>
<path d="M206.822 293.773c-18.665 13.999-24.637 30.557-21.948 31.455 4.147 1.383 20.745-15.871 26.789-16.939 2.938-0.518 20.394-9.85 20.394-9.85"/>
<path d="M218.164 295.533c3.171 0-12.948 5.621-16.376 14.423"/>
<path d="M220.131 287.724c-20.394 2.419-56.17-19.357-56.861-17.456 -8.879 10.401 29.554 27.826 38.022 26.961l30.072 1.901"/>
<path d="M228.184 293.577c0 0-24.686 0.246-35.93-4.886"/>
<path d="M284.156 290.157c0 0 0-11.488-5.621-11.977 0 0-12.71-0.976-26.886 1.467 -32.424-19.357-7.024-44.221-11.489-52.795 -1.466-13.198-23.219-32.997-23.219-32.997 -2.2 1.957 0.443 14.277-1.223 13.444 -4.399-2.199-1.686 7.485-2.933 10.021 -4.155-1.466-3.942 4.823-2.933 9.532 -3.422 0.49-2.201 6.355-1.467 10.511 -6.71-3.691 2.031 10.464-0.245 10.02 -10.265-1.467 1.467 9.778 1.467 9.778 -5.866 2.2-3.126 6.563 0.979 8.31 -5.134 3.666 0.121 9.519 1.954 9.778 -4.644 2.443 0.524 5.976 3.177 8.554 -4.155 3.911 3.422 5.581 7.09 7.087 -2.934 4.644 0.515 5.648 3.665 7.088 -1.955 3.666 2.856 3.394 5.865 2.935 -3.665 3.91 2.445 5.621 4.889 5.13 0 0 1.304 5.074 5.623 3.179 -1.221 3.913 7.578 3.423 7.578 3.423 0 3.914 12.954 2.445 12.954 2.445"/>
<g fill="none">
<path d="M221.087 223.77c0 0 2.689 7.088 5.866 7.088"/>
<path d="M216.209 207.054c0 0 3.421 11.978 6.599 11.978"/>
<path d="M213.276 216.342c0 0 0.978 7.821 4.154 7.821"/>
<path d="M209.854 226.363c0 0 2.689 7.088 5.865 7.088"/>
<path d="M208.142 236.628c0 0 2.934 6.355 6.111 6.355"/>
<path d="M208.387 246.894c0 0 4.889 7.821 8.065 7.821"/>
<path d="M209.365 257.405c0 0 5.132 4.4 8.31 4.4"/>
<path d="M210.586 265.714c0 0 5.132 4.4 8.31 4.4"/>
<path d="M211.809 274.758c0 0 7.576 3.666 10.754 3.666"/>
<path d="M215.23 283.313c0 0 8.555 0.734 11.732 0.734"/>
<path d="M222.205 290.33c0 0 7.173-0.304 10.349-0.304"/>
<path d="M226.354 297.244c0 0 6.136-1.688 10.004-0.304"/>
<path d="M232.057 301.218c0 0 6.134-1.689 10.004-0.304"/>
<path d="M236.55 305.884c0 0 5.963-0.82 10.176-2.551"/>
<path d="M242.6 308.996c0 0 2.504 0.732 6.719-0.994"/>
<path d="M249.859 312.105c0 0 2.16-0.13 6.375-1.856"/>
<path d="M280.26 189.816c-5.011-9.505-10.198-8.468-10.198-8.468 -2.591 0-3.456 1.728-6.394 1.728 -3.63 0-2.765-3.803-2.765-3.803"/>
</g>
<path fill="#000" stroke="none" d="M272.137 181.521c-1.037 4.494-4.338 5.366-4.338 5.366s0.716 4.289 3.474 4.485c5.065 0.907 6.719-3.649 4.32-7.605C274.731 182.73 272.137 181.521 272.137 181.521"/>
<path stroke="none" d="M275.279 186.708c0.164 0.554-0.675 1.33-1.875 1.731 -1.2 0.404-2.306 0.279-2.47-0.276 0 0-0.001-0.001-0.001-0.003 -0.164-0.555 0.676-1.33 1.875-1.732 1.201-0.401 2.306-0.277 2.471 0.277V186.708"/>
<path fill="none" d="M206.061 373.022c-1.589 2.566 5.745 3.248 7.7 0.244 0 4.156 5.665 4.314 7.699 2.322 0.855 2.689 4.813 2.003 7.333-0.489 0.428 1.16 4.014 3.647 5.339 3.17 2.59-0.934 12.71-15.254 14.909-16.475M195.77 392.969c0 0 11.623-11.319 19.226-17.367M199.745 397.117c0 0 15.289-14.13 22.894-20.179M214.436 394.352c0 0 10.156-10.464 17.76-16.512M204.325 373.292c0 0 11.356-13.535 18.961-19.584M213.187 373.652c0 0 9.546-10.953 20.45-18.711M221.89 375.286c0 0 4.499-8.628 18.214-19.196M228.856 375.165c0 0 5.22-9.049 14.658-15.831M228.261 376.377c-7.778 7.95-14 13.309-14 13.309M217.029 377.069c-7.779 7.95-15.727 14.345-15.727 14.345M209.423 374.822c-7.778 7.95-9.851 8.643-9.851 8.643M217.06 347.612c-1.59 2.566 2.004 8.781 9.663 5.086 -2.42 6.402 1.171 4.66 6.145 2.324 -1.392 5.452 4.813 2 7.331-0.49 0.427 1.161 0.557 3.995 2.919 4.21 2.743 0.249 5.623-7.651 7.824-8.871M226.471 352.814l13.889-12.731M219.081 353.483l6.761-10.289M232.714 354.938l8.338-9.151M239.943 354.744l4.392-4.809M226.534 356.155c-1.729 1.902-5.704 4.84-5.704 4.84M233.965 358.058c-3.803 2.938-7.085 6.05-7.085 6.05M246.064 360.995c-7.778 7.95-6.049 5.876-6.049 5.876M241.915 357.711c-3.803 2.939-6.049 5.185-6.049 5.185M249.692 338.354c-11.061 13.827 4.84 2.765 4.84 2.765M235.44 344.943c0 0-6.486 1.188 0.945-7.799M247.965 330.577l-2.074 3.284M245.539 239.562c-1.955 5.621 3.423 11.244 3.423 11.244M241.384 242.74c-1.956 5.621 7.086 14.909 7.086 14.909M239.671 252.271c-1.954 5.623 8.066 10.266 8.066 10.266M244.072 266.448c0.489 4.155 7.821 3.177 7.821 3.177M233.611 220.838c0 0 0.624 4.735 2.939 11.235 -3.63 3.629-4.32 9.159-4.32 9.159M221.087 223.77c0 0 2.689 7.088 5.866 7.088M219.532 232.586c0 0 2.689 7.088 5.866 7.088M216.594 240.017c0 0 3.38 4.669 6.557 4.669M217.803 249.35c0 0 3.381 4.669 6.559 4.669M220.223 259.201c0 0 3.726 0.866 6.903 0.866M222.47 266.114c0 0 0.787 0.175 3.965 0.175M226.272 217.377c0 0-0.423 3.978 2.756 3.978M229.976 280.763c0 0 3.972-0.463 3.272-3.561M224.1 275.234c0 0 6.91-2.019 6.213-5.117M238.618 288.713c0 0 1.208-8.066 0.509-11.166M248.124 295.109c0 0-1.213-10.66-3.639-12.031M258.666 297.7c-2.591-8.986-6.051-13.079-8.478-13.932M268.864 297.183c-2.592-8.987-9.509-12.387-11.936-13.241M280.961 297.526c-2.592-8.986-9.506-12.387-11.934-13.238M272.498 309.5c-9.333 3.456-13.653 11.925-13.653 11.925M259.947 195.563c-2.445 0-3.178 1.466-3.178 1.466M251.881 209.983c-1.037 2.938 2.23 6.975 1.711 6.111M252.042 186.292c-2.421 0-2.594 4.666-2.594 4.666M265.178 226.734l3.456 4.494M266.905 239.869l3.629 4.147M282.114 253.868l4.321 4.667"/>
<path fill="#000" stroke="none" d="M304.346 270.347c0 0 2.054 5.674 3.519 6.162 0 0 1.666 0.56 2.766-0.172 1.001-0.668 0-2.075 0-2.075C309.289 272.307 304.346 270.347 304.346 270.347M295.601 273.193c0 0-0.339 6.024 0.819 7.049 0 0 1.313 1.17 2.611 0.926 1.184-0.221 0.815-1.908 0.815-1.908C299.376 276.934 295.601 273.193 295.601 273.193M301.589 294.457c0 0-0.338 6.024 0.82 7.05 0 0 1.313 1.167 2.611 0.926 1.181-0.222 0.814-1.909 0.814-1.909C305.364 298.198 301.589 294.457 301.589 294.457M316.377 300.495l-0.13 0.301h-0.329c-0.2 0-0.387-0.087-0.527-0.246 -0.636-0.721-0.359-3.964-0.116-5.977 -0.627-0.818-2.075-2.852-1.885-3.942 0.05-0.286 0.199-0.513 0.43-0.658l0.317-0.198 0.28 0.248c0.368 0.326 3.603 3.232 3.83 4.825C318.38 295.77 316.849 299.403 316.377 300.495zM283.702 318.162c-1.099 0-2.07 3.32-1.346 4.689 0 0 0.816 1.555 2.118 1.785 1.185 0.209 1.434-1.5 1.434-1.5C286.285 320.793 285.906 318.162 283.702 318.162M277.098 366.725c-0.472 0.821-2.362 1.968-2.735 2.189l-0.294 0.174 -0.27-0.211c-0.673-0.529-0.293-1.921 1.128-4.138 0.006-0.99 0.106-3.571 0.945-4.327 0.216-0.193 0.47-0.281 0.745-0.253l0.372 0.039 0.067 0.367C277.145 361.05 277.901 365.332 277.098 366.725zM261.578 371.246c-0.273 0.477-0.762 0.633-1.26 0.633 -0.436 0-0.878-0.119-1.191-0.249l-0.116-0.068c-0.819-0.641-0.438-2.657-0.216-3.561 0.001-0.916 0.081-3.635 0.945-4.413 0.215-0.193 0.473-0.281 0.744-0.253l0.349 0.037 0.083 0.341C261.166 364.729 262.37 369.867 261.578 371.246zM274.41 347.66c-0.285 0.494-0.774 0.637-1.241 0.637 -0.569 0-1.107-0.211-1.208-0.253l-0.118-0.068c-0.839-0.658-0.42-2.752-0.201-3.622 0.176-0.507 1.055-2.805 2.531-2.649l0.384 0.041 0.058 0.382C274.677 342.547 275.207 346.272 274.41 347.66zM294.456 330.261c0 0-2.435 5.519-1.714 6.886 0 0 0.817 1.558 2.119 1.786 1.185 0.209 1.433-1.5 1.433-1.5C296.674 335.091 294.456 330.261 294.456 330.261M287.36 344.519c-3.62 1.194-4.38 5.486-4.112 7.005 0 0 0.3 1.732 1.467 2.351 1.064 0.565 1.825-0.986 1.825-0.986C287.62 350.775 289.926 346.475 287.36 344.519M267.809 323.201c-2.441 1.646-2.449 3.084-2.465 4.629 0 0-0.022 1.756 1.013 2.58 0.943 0.747 4.174-0.638 4.174-0.638C271.979 327.893 267.931 327.844 267.809 323.201M293.961 299.615c-2.441 1.646-2.448 1.371-2.464 4.626 0 0 0.832 2.614 1.869 3.436 0.94 0.748 1.974-1.614 1.974-1.614C296.789 304.186 296.039 300.225 293.961 299.615M311.933 312.664c-1.1 0-2.07 3.32-1.347 4.686 0 0 0.818 1.556 2.119 1.786 1.185 0.21 1.434-1.499 1.434-1.499C314.515 315.294 314.136 312.664 311.933 312.664M304.355 322.073c-1.571 5.08-3.413 6.621-2.691 7.988 0 0 1.794 0.455 3.096 0.684 1.185 0.211 1.432-1.497 1.432-1.497C306.573 326.904 304.721 327.572 304.355 322.073M261.58 381.247c-1.1 0-2.07 3.319-1.347 4.686 0 0 0.816 1.555 2.119 1.785 1.185 0.209 1.432-1.499 1.432-1.499C264.164 383.878 263.783 381.247 261.58 381.247"/>
</g>
<use xlink:href="#t1" transform="matrix(-1,0,0,1,937.5,0) translate(-1,0)"/>
<g id="t2" fill="#EACE24" stroke="#806600">
<path d="M462.575 214.875c0.309-2.981 0.144-8.604-1.376-11.159 -0.514-0.862-1.772-1.869-2.755-1.826 -0.966 0.043-2.298 0.336-2.753 1.216 -0.417 0.808-0.689 2.541-0.59 3.45 0.137 1.264 1.572 3.854 1.572 3.854s-5.142-1.064-6.884-2.434c-1.721-1.356-3.581-3.925-4.13-6.088 -0.189-0.74-0.924-3.139 0.005-6.017 0.539-1.67 2.159-3.905 3.415-5.018 3.276-2.909 9.636-2.064 10.939-1.341 1.719 0.957 3.816 2.991 4.522 4.87 0.549 1.459 1.689 5.766 1.967 7.305 0.568 3.137 0.734 4.323 0.983 7.506 0.171 2.185 0.645 4.146 0.196 6.29 -0.241 1.155-0.541 3.804-1.196 5.549 -0.658 1.754-1.67 2.604-2.541 3.379 -1.78 1.585-7.473 2.435-7.473 2.435s3.128-4.073 3.933-5.884C461.368 218.809 462.333 217.23 462.575 214.875"/>
<path d="M476.522 214.875c-0.308-2.981-0.144-8.604 1.376-11.159 0.514-0.862 1.774-1.869 2.755-1.826 0.966 0.043 2.296 0.336 2.753 1.216 0.419 0.808 0.69 2.541 0.59 3.45 -0.139 1.264-1.574 3.854-1.574 3.854s5.144-1.064 6.886-2.434c1.721-1.356 3.579-3.925 4.129-6.088 0.189-0.74 0.924-3.139-0.005-6.017 -0.539-1.67-2.161-3.905-3.414-5.018 -3.277-2.909-9.639-2.064-10.94-1.341 -1.721 0.957-3.818 2.991-4.524 4.87 -0.549 1.459-1.688 5.766-1.967 7.305 -0.568 3.137-0.733 4.323-0.983 7.506 -0.173 2.185-0.646 4.146-0.197 6.29 0.243 1.155 0.544 3.804 1.197 5.549 0.656 1.754 1.67 2.604 2.541 3.379 1.779 1.585 7.474 2.435 7.474 2.435s-3.129-4.073-3.934-5.884C477.73 218.809 476.766 217.23 476.522 214.875"/>
<path d="M469.513 237.02c0 0 4.594-3.887 5.356-8.286 0.683-3.958-2.362-8.591-2.594-10.455 -0.921-7.454 1.034-17.384 1.21-18.195 0.701-3.224 1.581-4.604 2.051-5.66 0.339-0.76 1.304-2.271 2.269-3.735 0.554-0.841 1.787-2.406 2.416-3.999 0.666-1.687 0.71-3.405 0.721-4.321 0.016-1.561-0.271-2.89-0.673-4.161 -0.381-1.209-1.626-3.186-3.429-4.323 -1.944-1.226-3.515-2.211-4.114-2.601 -1.975-1.289-3.191-5.528-3.215-5.528s-1.24 4.238-3.215 5.528c-0.598 0.39-2.098 1.375-4.043 2.601 -1.802 1.136-3.048 3.114-3.427 4.323 -0.403 1.271-0.689 2.6-0.671 4.161 0.009 0.916 0.054 2.634 0.721 4.321 0.628 1.592 1.861 3.156 2.416 3.999 0.966 1.464 1.93 2.975 2.268 3.735 0.47 1.056 1.351 2.436 2.051 5.66 0.176 0.811 2.132 10.741 1.209 18.195 -0.231 1.864-3.348 6.497-2.664 10.455C464.918 233.132 469.513 237.02 469.513 237.02"/>
<path d="M479.837 213.11l-2.213-3.16h-16.145l-2.218 3.16 2.218 3.144h16.146L479.837 213.11z"/>
</g>
<use xlink:href="#t2" x="-86.94"/>
<use xlink:href="#t2" x="86.94"/>
<g id="t3">
<path fill="#EACE24" stroke="#806600" stroke-miterlimit="10" d="M445.151 439.394h48.684v11.395h-48.684V439.394zM445.149 436.915c-0.081-10.701-1.586-21.734-6.15-31.13 0.566-0.17 1.165-0.26 1.785-0.26 3.441 0 6.231 2.788 6.231 6.229 0 0.854-0.169 1.663-0.479 2.401 0.8-0.374 1.693-0.582 2.634-0.582 3.44 0 6.231 2.79 6.231 6.234 0 3.439-2.791 6.23-6.231 6.23 -0.446 0-0.882-0.05-1.302-0.138 0.467 4.205 2.625 7.391 5.216 7.391 2 0 3.74-1.897 4.647-4.696 0.905 2.799 2.648 4.696 4.647 4.696 2.785 0 5.069-3.681 5.291-8.356 -1.004 0.695-2.221 1.103-3.533 1.103 -3.443 0-6.232-2.791-6.232-6.23 0-3.426 2.765-6.207 6.184-6.234 -0.525-0.911-0.826-1.971-0.826-3.101 0-3.441 2.79-6.23 6.231-6.23 3.441 0 6.232 2.789 6.232 6.23 0 1.128-0.303 2.19-0.827 3.101 3.419 0.026 6.184 2.807 6.184 6.234 0 3.439-2.79 6.23-6.231 6.23 -1.313 0-2.529-0.408-3.534-1.103 0.221 4.675 2.506 8.356 5.293 8.356 2 0 3.741-1.897 4.647-4.696 0.906 2.799 2.646 4.696 4.646 4.696 2.593 0 4.749-3.186 5.218-7.391 -0.42 0.088-0.858 0.138-1.304 0.138 -3.44 0-6.23-2.791-6.23-6.23 0-3.444 2.79-6.234 6.23-6.234 0.941 0 1.835 0.209 2.634 0.582 -0.307-0.739-0.479-1.548-0.479-2.401 0-3.441 2.79-6.229 6.23-6.229 0.622 0 1.223 0.09 1.787 0.26 -4.565 9.396-6.069 20.429-6.151 31.13H445.149L445.149 436.915z"/>
<path fill="#806600" d="M470.924 419.776l6.634-1.04 -6.97-1.095 -1.095-6.969 -1.091 6.969 -6.971 1.095 6.635 1.04H470.924z"/>
<path fill="#806600" d="M444.93 441.269c0.255-0.001 0.509 0.095 0.702 0.289 0.101 0.103 0.176 0.22 0.225 0.35l1.149 2.526c0.121 0.269 0.111 0.563-0.001 0.814h0.001l-1.173 2.579c-0.165 0.366-0.525 0.582-0.904 0.582L444.93 441.269 444.93 441.269z"/>
<path fill="#806600" d="M445.503 421.533l6.361-2.151 -7.054 0.103 -2.26-6.681 1.696 8.401L445.503 421.533z"/>
<path fill="#806600" d="M443.709 418.248h0.05 0.017c0.063 0.004 0.115 0.01 0.158 0.014 0.132 0.016 0.253 0.064 0.351 0.141l0.003 0.004 0.005 0.004c0.119 0.087 0.231 0.18 0.334 0.276l0.034 0.038c0.109 0.102 0.206 0.202 0.286 0.301l0.034 0.042c0.489 0.613 0.783 1.391 0.783 2.235h0.004v0.009h-0.004c0 0.325-0.042 0.632-0.121 0.92l-0.009 0.03 -0.03 0.1c-0.006 0.02-0.013 0.038-0.019 0.056l-0.004 0.008 -0.004 0.009c-0.074 0.219-0.166 0.434-0.278 0.628 -0.061 0.11-0.15 0.194-0.252 0.256h0.001l-0.006 0.004 -0.004 0.001 -0.005 0.005c-0.046 0.026-0.1 0.057-0.165 0.092l-0.13 0.063c-0.321-1.766-0.707-3.514-1.16-5.232l0.042-0.003v-0.001h0.005c0.029 0 0.055 0.001 0.084 0.004C443.709 418.252 443.709 418.248 443.709 418.248z"/>
<path fill="#FF8080" d="M464.851 444.943l4.365-2.579 4.365 2.579 -4.365 2.579L464.851 444.943z"/>
<path fill="none" stroke="#9E7800" stroke-linejoin="round" d="M464.851 444.943l4.365-2.579 4.365 2.579 -4.365 2.579L464.851 444.943z"/>
<path fill="#FF8080" d="M464.851 444.943l4.365-2.579 4.365 2.579 -4.365 2.579L464.851 444.943z"/>
<path fill="#BA0028" d="M473.581 444.943l-4.289 2.534 -0.076 0.045v-2.579H473.581z"/>
<path fill="#CF1E45" d="M469.216 444.943v2.579l-4.366-2.579H469.216z"/>
<path fill="#FF083C" d="M469.216 442.361v2.381 0.2h4.365l-0.103-0.061 -3.95-2.334L469.216 442.361z"/>
<path fill="#FF99CC" d="M442.574 444.852l2.577-2.578 1.174 2.578 -1.174 2.579L442.574 444.852z"/>
<path fill="#F00" d="M442.574 444.852h3.751l-1.174 2.579L442.574 444.852z"/>
<path fill="#CCC" d="M443.626 418.944c0.077 0 0.153 0.004 0.229 0.014 0.732 0.52 1.211 1.379 1.211 2.346 0 0.514-0.138 0.996-0.374 1.414 -0.311 0.191-0.675 0.304-1.066 0.304 -1.126 0-2.04-0.913-2.04-2.039C441.586 419.858 442.5 418.944 443.626 418.944"/>
<path fill="none" stroke="#9E7800" d="M443.626 418.944c0.077 0 0.153 0.004 0.229 0.014 0.732 0.52 1.211 1.379 1.211 2.346 0 0.514-0.138 0.996-0.374 1.414 -0.311 0.191-0.675 0.304-1.066 0.304 -1.126 0-2.04-0.913-2.04-2.039C441.586 419.858 442.5 418.944 443.626 418.944z"/>
<path fill="#FFF" d="M442.649 419.753c0.537 0 0.973 0.438 0.973 0.974 0 0.537-0.435 0.974-0.973 0.974s-0.974-0.436-0.974-0.974C441.675 420.191 442.111 419.753 442.649 419.753"/>
<path fill="#806600" d="M493.485 421.533l-6.36-2.151 7.051 0.103 2.26-6.681 -1.695 8.401L493.485 421.533z"/>
<path fill="#806600" d="M495.281 418.248h-0.05 -0.02c-0.06 0.004-0.114 0.01-0.156 0.014 -0.131 0.016-0.254 0.064-0.35 0.141l-0.004 0.004 -0.004 0.004c-0.119 0.087-0.231 0.18-0.334 0.276l-0.037 0.038c-0.109 0.102-0.204 0.202-0.284 0.301l-0.034 0.042c-0.49 0.613-0.785 1.391-0.785 2.235h-0.001v0.009h0.001c0.001 0.325 0.045 0.632 0.124 0.92l0.011 0.03 0.028 0.1c0.005 0.02 0.012 0.038 0.019 0.056l0.004 0.008 0.004 0.009c0.074 0.219 0.166 0.434 0.279 0.628 0.06 0.11 0.149 0.194 0.251 0.256l0.004 0.004 0.006 0.001 0.004 0.005c0.046 0.026 0.1 0.057 0.165 0.092l0.129 0.063c0.323-1.766 0.706-3.514 1.161-5.232l-0.042-0.003v-0.001h-0.006c-0.028 0-0.054 0.001-0.084 0.004L495.281 418.248z"/>
<path fill="#CCC" d="M495.365 418.944c-0.079 0-0.158 0.004-0.232 0.014 -0.731 0.52-1.209 1.379-1.209 2.346 0 0.514 0.135 0.996 0.372 1.414 0.314 0.191 0.675 0.304 1.069 0.304 1.124 0 2.036-0.913 2.036-2.039C497.401 419.858 496.489 418.944 495.365 418.944"/>
<path fill="none" stroke="#9E7800" d="M495.365 418.944c-0.079 0-0.158 0.004-0.232 0.014 -0.731 0.52-1.209 1.379-1.209 2.346 0 0.514 0.135 0.996 0.372 1.414 0.314 0.191 0.675 0.304 1.069 0.304 1.124 0 2.036-0.913 2.036-2.039C497.401 419.858 496.489 418.944 495.365 418.944z"/>
<path fill="#FFF" d="M495.723 419.368c-0.537 0-0.974 0.435-0.974 0.973 0 0.537 0.436 0.972 0.974 0.972 0.535 0 0.974-0.435 0.974-0.972C496.696 419.803 496.258 419.368 495.723 419.368"/>
<path fill="#806600" d="M494.059 441.269c-0.255-0.001-0.509 0.095-0.704 0.289 -0.1 0.103-0.176 0.22-0.225 0.35l-1.149 2.526c-0.12 0.269-0.111 0.563 0.003 0.814h-0.003l1.173 2.579c0.165 0.366 0.526 0.582 0.905 0.582C494.059 448.409 494.059 441.269 494.059 441.269z"/>
<path fill="#FF083C" d="M496.415 444.852l-2.579-2.578 -1.174 2.578 1.174 2.579L496.415 444.852z"/>
<path fill="#BA0028" d="M496.415 444.852h-3.753l1.174 2.579L496.415 444.852z"/>
<circle fill="#CCC" stroke="#9E7800" stroke-width="0.5" cx="469.496" cy="418.747" r="2.287"/>
<circle fill="#FFF" cx="469.085" cy="418.041" r="0.975"/>
<circle fill="#CCC" stroke="#9E7800" stroke-width="0.5" cx="458.079" cy="442.665" r="1.668"/>
<circle fill="#FFF" cx="457.793" cy="442.174" r="0.677"/>
<circle fill="#CCC" stroke="#9E7800" stroke-width="0.5" cx="458.079" cy="447.518" r="1.668"/>
<circle fill="#FFF" cx="457.793" cy="447.026" r="0.677"/>
<circle fill="#CCC" stroke="#9E7800" stroke-width="0.5" cx="481.16" cy="442.665" r="1.668"/>
<circle fill="#FFF" cx="480.874" cy="442.174" r="0.677"/>
<circle fill="#CCC" stroke="#9E7800" stroke-width="0.5" cx="481.16" cy="447.518" r="1.668"/>
<circle fill="#FFF" cx="480.874" cy="447.026" r="0.677"/>
</g>
<use xlink:href="#t3" x="-49.151" y="-55.104"/>
<use xlink:href="#t3" x="49.151" y="-55.104"/>
</svg>
