<svg xmlns:dc="http://purl.org/dc/elements/1.1/" xmlns:cc="http://creativecommons.org/ns#" xmlns:rdf="http://www.w3.org/1999/02/22-rdf-syntax-ns#" xmlns:svg="http://www.w3.org/2000/svg" xmlns="http://www.w3.org/2000/svg" xmlns:sodipodi="http://sodipodi.sourceforge.net/DTD/sodipodi-0.dtd" xmlns:inkscape="http://www.inkscape.org/namespaces/inkscape" x="0" y="0" viewBox="0 0 600 300">
<sodipodi:namedview id="base" showguides="true" inkscape:guide-bbox="true" inkscape:zoom="1" inkscape:cx="207.11039" inkscape:cy="66.341622" inkscape:window-width="1280" inkscape:window-height="1004" inkscape:window-x="-8" inkscape:window-y="-8" inkscape:current-layer="svg378" inkscape:showpageshadow="false" showgrid="false" fit-margin-top="0" fit-margin-left="0" fit-margin-right="0" fit-margin-bottom="0" inkscape:window-maximized="1">
</sodipodi:namedview>
<defs id="defs380"/>
<path style="fill:#cf142b;fill-opacity:1;fill-rule:nonzero;stroke:none" d="m 0,0 600,0 0,300 -600,0 z" id="rect2489" inkscape:connector-curvature="0" sodipodi:nodetypes="ccccc"/>
<g id="g4408" transform="matrix(0.3498026,0,0,0.3498026,163.24255,23.83426)">
<path id="path4410" d="m 419.10237,546.46443 c 0.2907,-0.8793 0.87689,-9.94616 0.58379,-9.94616 -0.29309,0 -13.74684,-15.79373 -13.45374,-15.79373 0.2931,0 17.25683,3.80308 17.25683,3.21688 0,-0.58379 6.72687,-16.67062 6.72687,-16.96372 0,-0.2907 8.18997,19.59681 8.18997,19.59681 l 16.67062,7.31307 -11.69995,9.65066 c 0,0 2.63309,18.71992 2.63309,19.01302 0,0.2907 -11.69995,-11.11615 -11.69995,-11.11615 l -12.86994,1.46309 c 0,0 -1.7538,-5.84997 -2.33759,-6.43377 z" style="font-size:12px;fill:#f9dd16;fill-opacity:0.98823499;fill-rule:evenodd;stroke:#000000;stroke-width:2.40245399pt" inkscape:connector-curvature="0"/>
<path sodipodi:nodetypes="ccccccccccccccccccccccccccc" id="path4412" d="m 328.4794,300.67417 c -11.11375,5.72264 -53.76692,54.47804 -59.6169,62.08181 -4.901,11.03928 -14.48679,25.00474 -24.36088,33.99472 -10.53956,7.97375 -16.39675,18.86648 -14.94567,29.18021 -0.11772,12.83391 7.07763,21.57163 12.80989,30.60246 3.39226,4.12501 7.95693,6.79174 12.80988,7.11607 9.95577,1.31414 10.83988,4.37967 15.82257,6.27761 19.62805,26.7249 48.90915,46.43223 69.9979,62.04337 13.44173,7.08484 22.78967,14.16968 25.99215,18.03763 6.1743,11.78884 5.03794,23.28458 4.19228,28.93275 -5.21813,19.69052 -10.43866,39.38103 -15.65679,59.07154 -2.63309,16.08683 11.34679,12.46874 12.09875,9.25185 6.30885,-8.18996 15.72407,-2.43849 29.17781,-49.81969 6.1671,-8.30288 12.3366,-16.60576 18.5037,-24.90864 0,0 7.11847,-2.84691 7.11847,-3.55803 10.82305,-12.99488 2.58264,-20.43288 -3.56044,-22.77287 -4.507,-1.66009 -9.014,-3.32259 -13.52101,-4.98268 0,0 -15.65679,-15.6568 -16.36792,-15.6568 -7.4404,-21.64371 -43.9601,-67.8501 -52.44317,-74.28388 -5.87159,-6.11905 -8.66565,-8.72571 -14.23934,-12.12999 -8.56955,-4.09858 -11.33478,-5.43194 -16.58414,-7.52688 -4.37006,-1.7538 -1.25889,-6.5515 1.52075,-8.74494 28.92555,-15.74568 51.85457,-33.24515 79.61012,-51.03773 1.42225,-0.94897 2.84691,-1.89794 4.26916,-2.84691 -3.32019,-18.97698 -6.64278,-37.95637 -9.96297,-56.93335 -15.41895,-5.45598 -30.84031,-10.91435 -46.25926,-16.37032 -2.42648,1.66009 -4.26916,3.32259 -6.40494,4.98269 z" style="font-size:12px;fill:#ffffff;fill-rule:evenodd;stroke:#000000;stroke-width:3.71638179;stroke-miterlimit:4;stroke-opacity:1;stroke-dasharray:none" inkscape:connector-curvature="0"/>
<path inkscape:export-ydpi="90.000000" inkscape:export-xdpi="90.000000" sodipodi:nodetypes="ccccc" id="path4414" d="m 367.18534,600.42835 c 0.14655,-0.58379 28.95437,-5.84997 28.95437,-5.84997 0,0 -3.36343,10.6765 -3.50998,10.6765 l -28.66128,8.62721 3.21689,-13.45374 z" style="font-size:12px;fill:#f9dd16;fill-opacity:1;fill-rule:evenodd;stroke-width:1pt" inkscape:connector-curvature="0"/>
<path sodipodi:nodetypes="cs" id="path4416" d="m 292.11345,491.95755 c 5.55688,-14.77028 20.98304,-26.46543 31.34482,-29.69193" style="font-size:12px;fill:none;stroke:#000000;stroke-width:2.40245399pt" inkscape:connector-curvature="0"/>
<path sodipodi:nodetypes="ccccccccccc" id="path4418" d="m 366.14988,600.68782 c 1.8595,-0.52374 10.11673,-2.9334 12.52159,-3.30818 2.56582,-0.60062 5.11963,-1.2733 7.58695,-2.06852 2.84691,-0.58139 4.62953,-1.11714 7.58695,-1.65529 2.31596,-0.8841 4.6055,-1.48952 7.08243,-2.06851 m -39.99365,26.91229 c 0.24025,-0.32193 2.20305,-2.0565 3.61329,-2.89496 1.6601,-0.52373 7.3371,-2.93339 9.48489,-3.30818 2.29194,-0.60061 4.57187,-1.2733 6.77492,-2.06851 2.5442,-0.58139 4.13462,-1.11714 6.77732,-1.65529 2.06852,-0.8841 4.11301,-1.48952 6.32326,-2.06851" style="font-size:12px;fill:none;stroke:#000000;stroke-width:2.65663357pt" inkscape:connector-curvature="0"/>
<path sodipodi:nodetypes="cccccc" id="path4420" d="m 372.6317,496.13782 c -0.13934,0 -0.27628,0 -0.41322,0 1.29492,0 0.49971,-0.10811 -1.24207,2.06852 -0.61983,1.6721 -5.92926,5.37669 -9.92694,5.37669 -1.92917,0.20661 -4.8938,0.41322 -6.82537,0.41322 -0.55016,0 -1.30934,-0.41322 -1.8619,-0.41322" style="font-size:12px;fill:none;stroke:#000000;stroke-width:2.40245399pt" inkscape:connector-curvature="0"/>
<path sodipodi:nodetypes="cccccccccc" id="path4422" d="m 372.21848,581.34806 c 0.13694,0 0.27388,0 0.41322,0 -0.55256,0 1.10273,0 1.65289,0 2.14539,0 4.29799,0.38199 6.20554,0.41322 2.06851,0 4.13702,0.5862 6.20554,0.5862 2.08773,0.2955 4.6031,0.19941 6.7629,0.50692 2.42168,0.0817 4.36526,0.55977 6.88544,0.55977 2.03247,0.0769 3.12799,0.41563 5.37909,0.41563 l -5.37909,-0.41563 c 2.03247,0.0769 3.12799,0.41563 5.37909,0.41563" style="font-size:12px;fill:none;stroke:#000000;stroke-width:2.40245399pt" inkscape:connector-curvature="0"/>
<path sodipodi:nodetypes="cccccc" id="path4424" d="m 358.15451,631.80921 c 0.22103,-0.32193 2.01806,-2.0565 3.30818,-2.89496 1.52076,-0.52374 6.71967,-2.9334 8.68728,-3.30818 2.09734,-0.60061 4.18507,-1.2733 6.20313,-2.06851 2.33038,-0.5814 3.78627,-1.11714 6.20554,-1.65529 1.89554,-0.88411 3.76705,-1.48953 5.78991,-2.06852" style="font-size:12px;fill:none;stroke:#000000;stroke-width:2.40245399pt" inkscape:connector-curvature="0"/>
<path sodipodi:nodetypes="ccccc" id="path4426" d="m 396.88928,559.91337 c -1.17,3.39707 0.34595,4.24994 0.97299,5.71544 1.09072,1.41985 3.87516,3.58446 8.27405,4.96347 1.69614,0.45646 3.00067,0.90332 4.96347,1.65529 1.29973,0.12012 1.93878,0.44445 2.89496,0.82644" style="font-size:12px;fill:none;stroke:#000000;stroke-width:2.40245399pt" inkscape:connector-curvature="0"/>
<path id="path4428" d="m 233.23651,435.33412 c 0.13694,0 0.27629,0 0.41323,0 -1.29733,0 -0.51893,0.0841 1.65529,-1.6553 1.34297,-1.50153 2.46492,-2.18142 3.7214,-3.7214" style="font-size:12px;fill:none;stroke:#000000;stroke-width:2.40245399pt" inkscape:connector-curvature="0"/>
<path sodipodi:nodetypes="ccccccc" id="path4430" d="m 260.01907,464.80021 c 0.27628,0 24.06298,-11.98824 26.60237,-14.54926 1.79944,-1.30453 3.16163,-2.68114 5.35027,-4.16345 1.40303,-0.73275 2.40966,-1.67211 3.7238,-2.48174 1.09312,-1.58321 2.52018,-2.53939 3.30818,-3.98807 1.46069,-1.26609 0.83365,-2.63789 2.01806,-4.16345 0.55978,-1.5616 1.60725,-4.19228 1.94839,-5.62174" style="font-size:12px;fill:none;stroke:#000000;stroke-width:2.40245399pt" inkscape:connector-curvature="0"/>
<path sodipodi:nodetypes="ccc" id="path4432" d="m 333.26509,447.62267 c 0.12973,0.85527 -0.37959,3.49076 -0.34355,5.49681 -0.0817,2.32558 -3.07274,9.50892 -6.68843,11.65431" style="font-size:12px;fill:none;stroke:#000000;stroke-width:2.40245399pt" inkscape:connector-curvature="0"/>
<path sodipodi:nodetypes="cccccccccccccccccc" id="path4434" d="m 290.53024,447.35599 c 0.13934,0 3.75984,1.17721 9.81162,3.03911 7.28424,2.61867 22.43412,12.16603 23.93805,13.48017 1.53517,1.20843 4.28117,2.28713 5.33345,3.7214 1.64568,1.42225 2.85171,3.06313 4.13702,4.55025 1.51115,1.84268 2.79886,3.40187 3.72141,4.96347 4.6007,3.73101 16.97574,29.5646 17.37214,31.02289 0.69431,1.36459 1.55439,3.26493 2.06851,4.55024 0.91774,1.05708 1.53998,2.55141 2.48174,4.13703 0.86488,2.0565 1.83307,2.99346 2.89736,4.55025 1.3694,0.95137 3.21448,2.75801 4.96347,3.7214 1.8643,1.59523 3.61329,2.24389 4.96347,3.31058 1.95079,0.82885 23.75066,14.60932 24.76209,15.29883 1.99164,1.60003 8.07225,7.90167 3.80309,12.48555 -1.81145,1.54958 -3.44272,3.60128 -4.9899,4.47818 -1.57601,1.57841 -3.76945,2.28473 -5.5809,3.10156 -9.82123,2.90217 -14.82314,1.86191 -16.75472,1.86191 -0.6895,0 -1.379,0 -2.06851,0" style="font-size:12px;fill:none;stroke:#000000;stroke-width:2.40245399pt" inkscape:connector-curvature="0"/>
<path sodipodi:nodetypes="ccccccccccc" id="path4436" d="m 242.38266,398.62222 c 2.79165,1.09311 1.6649,0.28589 4.17786,1.42946 1.68893,0.73995 2.80127,0.75917 4.46136,1.36459 1.761,0.56458 6.68123,1.45108 9.04524,3.82471 1.73457,1.5664 3.05832,2.89015 4.96347,4.03372 2.2535,1.55438 3.87996,2.24629 6.67402,3.41148 2.35681,0.8817 4.9923,1.8595 7.37553,1.94359 2.47693,0.14414 3.07034,0.0216 5.44636,0.0216 1.93158,0 3.86075,0 5.79232,0 l -5.79232,0 c 1.93158,0 3.86075,0 5.79232,0" style="font-size:12px;fill:none;stroke:#000000;stroke-width:2.40245399pt" inkscape:connector-curvature="0"/>
<path sodipodi:nodetypes="cccccccccccccc" id="path4438" d="m 241.71718,426.23362 c 6.20313,-0.41322 16.5433,1.44868 16.74991,1.44868 0.002,0 13.65074,-0.20661 13.65074,-0.20661 7.17133,-0.69191 8.75454,-3.44752 9.92694,-5.3791 2.68835,-4.13462 4.55025,-5.5833 6.61876,-8.68487 3.30818,-2.48173 7.86083,3.30818 8.06744,3.30818 11.57983,10.9624 2.27272,24.40413 1.65289,24.81735 -5.78991,5.30942 -7.03198,5.65298 -10.54677,2.27513 -3.5172,-4.13703 -4.55025,-5.99653 -7.44521,-7.44521 -5.5833,-2.68835 -17.16553,-0.61983 -17.37455,-0.61983 -0.20661,0 -5.99652,2.27512 -5.99652,2.27512 -2.82769,1.03306 -4.61992,3.51719 -9.51372,4.34124 -4.96347,0.34595 -6.61876,-0.13694 -9.10049,-4.13463 -3.30818,-5.17008 -1.6553,-11.37562 3.31058,-11.99545 z" style="font-size:12px;fill:#ffe606;fill-rule:evenodd;stroke:#000000;stroke-width:2.40245399pt" inkscape:connector-curvature="0"/>
<path id="path4440" d="m 565.56641,175.3593 c -0.90893,0.17754 -9.09957,4.11011 -8.95592,4.36559 0.14364,0.25549 -7.02986,19.72306 -7.1735,19.46758 -0.14365,-0.25549 -5.14228,-16.90618 -5.65326,-16.61889 -0.50888,0.28611 -17.8281,2.3064 -18.08358,2.45004 -0.2534,0.14247 13.06825,-16.74311 13.06825,-16.74311 l -1.79543,-18.11539 14.14621,5.46889 c 0,0 15.02723,-11.46956 15.28272,-11.61321 0.25339,-0.14247 -3.95568,15.64642 -3.95568,15.64642 l 7.58272,10.50136 c 0,0 -4.23976,4.39573 -4.46253,5.19072 z" style="font-size:12px;fill:#f9dd16;fill-opacity:0.98823499;fill-rule:evenodd;stroke:#000000;stroke-width:2.40245457pt" inkscape:connector-curvature="0"/>
<path sodipodi:nodetypes="ccccccccccccccccccccccccccc" id="path4442" d="m 395.73044,374.8114 c 10.43497,6.88298 73.83751,20.16833 83.33251,21.5411 12.02457,-1.13811 28.89576,0.3733 41.57125,4.57443 12.1158,5.27925 24.48123,5.04643 32.76029,-1.27306 11.24468,-6.1871 15.33479,-16.74134 20.39743,-26.16388 1.93317,-4.97857 2.0206,-10.26439 -0.0751,-14.65354 -3.73368,-9.32223 -1.49482,-11.59526 -2.28239,-16.86869 13.67598,-30.20677 16.50408,-65.38866 19.77662,-91.42198 -0.41193,-15.18899 1.18244,-26.80954 2.98454,-31.49668 7.25009,-11.15953 17.82755,-15.8029 23.16536,-17.83384 19.72104,-5.10154 39.44326,-10.20098 59.1643,-15.30251 15.31292,-5.58873 5.30778,-16.00146 2.13517,-15.08038 -10.23086,-1.48547 -9.83171,-12.51119 -57.72617,-1.01762 -10.25981,-1.30658 -20.5208,-2.61525 -30.78062,-3.92183 0,0 -5.97024,-4.80976 -6.59011,-4.46124 -16.63152,-3.06558 -19.07652,7.76264 -18.10559,14.2642 0.76175,4.74223 1.52142,9.48564 2.28317,14.22787 0,0 -5.97444,21.3208 -5.62593,21.94067 -15.21982,17.09288 -37.87596,71.98059 -39.32668,82.52817 -0.6867,9.9113 -4.42988,8.12142 -3.42621,17.75484 0.0376,7.52791 -0.83827,2.8278 1.67498,18.33746 0.61297,4.66878 -5.0938,4.30813 -8.36803,2.96016 -27.90111,-17.49692 -54.39214,-28.90732 -83.50407,-44.38123 -1.52422,-0.77467 -3.04962,-1.55143 -4.57384,-2.32609 -14.91456,12.19448 -29.83005,24.39223 -44.74461,36.58671 2.80078,16.1142 5.60064,32.23167 8.40142,48.34588 2.63625,1.30151 4.98848,2.09296 7.48226,3.14108 z" style="font-size:12px;fill:#ffffff;fill-rule:evenodd;stroke:#000000;stroke-width:3.71638179;stroke-miterlimit:4;stroke-opacity:1;stroke-dasharray:none" inkscape:connector-curvature="0"/>
<path sodipodi:nodetypes="ccccc" id="path4444" d="m 638.04917,194.1671 c -0.5807,0.15836 -19.28941,-22.37181 -19.28941,-22.37181 0,0 10.95481,-2.30058 11.02663,-2.17284 l 21.56661,20.75523 -13.30383,3.78942 z" style="font-size:12px;fill:#f9dd16;fill-opacity:1;fill-rule:evenodd;stroke-width:1pt" inkscape:connector-curvature="0"/>
<path sodipodi:nodetypes="cs" id="path4446" d="m 580.28966,312.76536 c -15.59823,2.39492 -33.35273,-5.32004 -41.24335,-12.77088" style="font-size:12px;fill:none;stroke:#000000;stroke-width:2.40245457pt" inkscape:connector-curvature="0"/>
<path sodipodi:nodetypes="ccccccccccc" id="path4448" d="m 638.7828,194.94252 c -1.36784,-1.36421 -7.51503,-7.38089 -9.02031,-9.29346 -1.78101,-1.94221 -3.61896,-3.83863 -5.52133,-5.5996 -1.90201,-2.19665 -3.24265,-3.48795 -5.16113,-5.80212 -1.90567,-1.58548 -3.55547,-3.28451 -5.27407,-5.15983 m 43.05908,21.67211 c -0.39836,-0.0516 -2.87229,-0.91248 -4.29429,-1.73083 -1.27011,-1.19039 -6.15277,-4.95794 -7.53206,-6.64645 -1.64679,-1.70347 -3.35051,-3.36115 -5.12336,-4.89177 -1.75367,-1.93278 -3.00011,-3.05655 -4.76435,-5.09639 -1.7844,-1.36978 -3.3141,-2.8552 -4.90201,-4.49807" style="font-size:12px;fill:none;stroke:#000000;stroke-width:2.65663414pt" inkscape:connector-curvature="0"/>
<path sodipodi:nodetypes="cccccc" id="path4450" d="m 544.47263,240.53096 c 0.0683,0.12146 0.1354,0.24083 0.20251,0.3602 -0.63462,-1.12875 -0.33914,-0.3826 2.41179,0.0689 1.76131,-0.27918 7.59257,2.53334 9.55178,6.01802 1.12556,1.58035 2.75858,4.06328 3.70521,5.74699 0.26963,0.47956 0.2815,1.34383 0.5523,1.82548" style="font-size:12px;fill:none;stroke:#000000;stroke-width:2.40245457pt" inkscape:connector-curvature="0"/>
<path sodipodi:nodetypes="cccccccccc" id="path4452" d="m 618.9507,199.13082 c -0.0671,-0.11937 -0.13422,-0.23874 -0.20251,-0.3602 0.2708,0.48166 -0.54043,-0.96122 -0.81006,-1.44078 -1.05143,-1.87008 -1.77341,-3.93366 -2.68105,-5.61172 -1.01375,-1.80307 -1.51653,-3.89343 -2.53028,-5.6965 -0.76558,-1.96465 -2.0821,-4.11013 -2.87253,-6.14349 -1.11563,-2.15094 -1.65142,-4.07942 -2.88652,-6.27619 -0.92908,-1.80934 -1.1707,-2.93029 -2.27393,-4.89251 l 2.27393,4.89251 c -0.92908,-1.80934 -1.1707,-2.93029 -2.27393,-4.89251" style="font-size:12px;fill:none;stroke:#000000;stroke-width:2.40245457pt" inkscape:connector-curvature="0"/>
<path sodipodi:nodetypes="cccccc" id="path4454" d="m 669.82893,186.65972 c -0.38894,-0.0349 -2.78162,-0.75123 -4.14475,-1.46488 -1.20183,-1.06893 -5.85018,-4.41974 -7.14117,-5.95118 -1.55142,-1.53385 -3.16095,-3.024 -4.84314,-4.39337 -1.64887,-1.7464 -2.82938,-2.7529 -4.48412,-4.59797 -1.69963,-1.21901 -3.14455,-2.55365 -4.64062,-4.03318" style="font-size:12px;fill:none;stroke:#000000;stroke-width:2.40245457pt" inkscape:connector-curvature="0"/>
<path sodipodi:nodetypes="ccccc" id="path4456" d="m 588.17582,188.13075 c 3.53454,-0.645 3.53502,-2.38439 4.50515,-3.64919 0.7031,-1.6466 1.22532,-5.13457 0.27153,-9.64481 -0.43336,-1.70218 -0.68318,-3.05831 -0.98965,-5.13776 -0.53227,-1.19181 -0.56275,-1.90781 -0.69839,-2.92849" style="font-size:12px;fill:none;stroke:#000000;stroke-width:2.40245457pt" inkscape:connector-curvature="0"/>
<path id="path4458" d="m 559.78723,391.83724 c -0.0671,-0.11936 -0.1354,-0.24082 -0.20251,-0.36019 0.6358,1.13084 0.32761,0.41113 -2.25411,-0.63164 -1.96702,-0.43476 -3.10952,-1.07952 -5.06766,-1.42005" style="font-size:12px;fill:none;stroke:#000000;stroke-width:2.40245457pt" inkscape:connector-curvature="0"/>
<path sodipodi:nodetypes="ccccccc" id="path4460" d="m 572.34631,354.05065 c -0.1354,-0.24083 -22.24277,-15.09982 -25.71966,-16.05822 -2.01901,-0.9292 -3.88655,-1.44193 -6.25127,-2.62324 -1.32632,-0.86388 -2.63847,-1.28097 -3.98824,-2.02969 -1.91577,-0.17692 -3.44863,-0.95225 -5.0976,-0.92915 -1.81948,-0.65276 -2.70794,0.56612 -4.61819,0.28136 -1.63554,0.27737 -4.442,0.65358 -5.85521,1.05677" style="font-size:12px;fill:none;stroke:#000000;stroke-width:2.40245457pt" inkscape:connector-curvature="0"/>
<path sodipodi:nodetypes="ccc" id="path4462" d="m 521.47624,298.62243 c 0.68194,-0.53224 3.22885,-1.37989 4.9598,-2.39444 2.06718,-1.06853 9.79458,-1.98176 13.43667,0.11852" style="font-size:12px;fill:none;stroke:#000000;stroke-width:2.40245457pt" inkscape:connector-curvature="0"/>
<path sodipodi:nodetypes="cccccccccccccccccc" id="path4464" d="m 542.18754,336.00401 c -0.0683,-0.12146 -0.8165,-3.85429 -2.15943,-10.04196 -1.28727,-7.63287 -0.38983,-25.51765 0.0186,-27.47264 0.30099,-1.9304 -0.10451,-4.85268 0.63,-6.47283 0.43321,-2.13153 1.27246,-3.98697 1.93883,-5.83616 0.86563,-2.2203 1.59365,-4.1069 2.50272,-5.67637 0.99749,-5.83883 17.45113,-29.28652 18.52801,-30.34674 0.84921,-1.27398 2.08417,-2.95502 2.95258,-4.03309 0.47166,-1.31802 1.46928,-2.59276 2.38988,-4.19076 1.36873,-1.76176 1.71095,-3.06489 2.54638,-4.75557 0.15816,-1.65992 0.82872,-4.15365 0.81132,-6.15033 0.47685,-2.40687 0.18512,-4.24932 0.45322,-5.949 -0.23357,-2.10667 1.0947,-27.86267 1.20004,-29.08223 0.41863,-2.52021 2.93159,-10.90887 9.01949,-9.43405 2.2385,0.81957 4.82637,1.23599 6.34899,2.15488 2.14824,0.60021 3.8389,2.16602 5.43868,3.34469 7.34299,7.13861 8.88758,12.00846 9.83422,13.69217 0.33792,0.60102 0.67583,1.20204 1.01375,1.80307" style="font-size:12px;fill:none;stroke:#000000;stroke-width:2.40245457pt" inkscape:connector-curvature="0"/>
<path id="path4466" d="m 523.19361,401.02311 c -0.0671,-0.11937 -0.13541,-0.24083 -0.20252,-0.3602 0.5475,0.97378 0.24424,0.48833 -0.45104,-1.64539 -0.18272,-1.83483 -0.74862,-4.3169 -1.03448,-6.06067 -0.37092,-1.81171 -1.21985,-3.87557 -0.98966,-5.13776 -0.64874,-1.84017 -0.24065,-3.35949 -0.0667,-5.1826 0.5153,-2.27965 0.74819,-3.92922 0.81133,-6.15034 0.25051,-2.7261 0.0491,-4.65792 0.20469,-7.23419 -0.71831,-2.12077 -0.86479,-3.89605 -1.95948,-6.01466 -0.97405,-2.02659 -1.71911,-3.9008 -2.88357,-5.97192 -0.94664,-1.6837 -1.8921,-3.36531 -2.83873,-5.04902 l 2.83873,5.04902 c -0.94664,-1.6837 -1.8921,-3.36531 -2.83873,-5.04902" style="font-size:12px;fill:none;stroke:#000000;stroke-width:2.40245457pt" inkscape:connector-curvature="0"/>
<path sodipodi:nodetypes="cccccccccccccc" id="path4468" d="m 547.69831,388.90489 c -3.40026,-5.2046 -6.84486,-15.13035 -6.94612,-15.31045 -0.001,-0.002 -6.87013,-11.79774 -6.87013,-11.79774 -4.11769,-5.91197 -7.2956,-5.94153 -9.55387,-6.01685 -4.92157,-0.31704 -7.09684,-1.23003 -10.81414,-1.51307 -3.78456,-1.66739 -0.96883,-8.47338 -1.07009,-8.65347 3.88053,-15.46636 20.15862,-13.9412 20.82259,-13.60342 7.46564,2.44485 8.37382,3.35916 7.15199,8.07835 -1.88241,5.09334 -2.99701,6.90515 -2.841,10.13858 0.39293,6.18435 7.87229,15.26653 7.97473,15.44873 0.10125,0.18009 4.92197,4.11201 4.92197,4.11201 2.2863,1.95854 5.33001,2.30334 8.44669,6.16529 2.73408,4.15698 3.12439,5.83651 0.85598,9.95899 -2.88534,5.41744 -9.1046,7.0179 -12.0786,2.99305 z" style="font-size:12px;fill:#f9dd16;fill-opacity:1;fill-rule:evenodd;stroke:#000000;stroke-width:2.40245457pt" inkscape:connector-curvature="0"/>
<g transform="matrix(-1.107009,2.132209,-2.132209,-1.10701,906.73765,-15.62964)" id="g4470">
<path id="path4472" d="m 238.862,224.504 c 0.121,-0.366 0.365,-4.14 0.243,-4.14 -0.122,0 -5.722,-6.574 -5.6,-6.574 0.122,0 7.183,1.583 7.183,1.339 0,-0.243 2.8,-6.939 2.8,-7.061 0,-0.121 3.409,8.157 3.409,8.157 l 6.939,3.044 -4.87,4.017 c 0,0 1.096,7.792 1.096,7.914 0,0.121 -4.87,-4.627 -4.87,-4.627 l -5.357,0.609 c 0,0 -0.73,-2.435 -0.973,-2.678 z" style="fill:#f9dd16;fill-opacity:0.98823499;fill-rule:evenodd;stroke:#000000;stroke-width:1pt;stroke-linecap:butt;stroke-linejoin:miter;stroke-opacity:1" inkscape:connector-curvature="0"/>
<path sodipodi:nodetypes="ccccccccccccccccccccccccccc" id="path4474" d="m 201.141,122.196 c -4.626,2.382 -22.38,22.676 -24.815,25.841 -2.04,4.595 -6.03,10.408 -10.14,14.15 -4.387,3.319 -6.825,7.853 -6.221,12.146 -0.049,5.342 2.946,8.979 5.332,12.738 1.412,1.717 3.312,2.827 5.332,2.962 4.144,0.547 4.512,1.823 6.586,2.613 8.17,11.124 20.358,19.327 29.136,25.825 5.595,2.949 9.486,5.898 10.819,7.508 2.57,4.907 2.097,9.692 1.745,12.043 -2.172,8.196 -4.345,16.392 -6.517,24.588 -1.096,6.696 4.723,5.19 5.036,3.851 2.626,-3.409 6.545,-1.015 12.145,-20.737 2.567,-3.456 5.135,-6.912 7.702,-10.368 0,0 2.963,-1.185 2.963,-1.481 4.505,-5.409 1.075,-8.505 -1.482,-9.479 -1.876,-0.691 -3.752,-1.383 -5.628,-2.074 0,0 -6.517,-6.517 -6.813,-6.517 -3.097,-9.009 -18.39,-28.426 -21.921,-31.104 -3.456,-2.271 -2.043,-3.264 -5.743,-4.865 -2.739,-1.522 -0.855,-0.881 -6.995,-3.133 -1.819,-0.73 -0.524,-2.727 0.633,-3.64 12.04,-6.554 21.584,-13.838 33.137,-21.244 0.592,-0.395 1.185,-0.79 1.777,-1.185 -1.382,-7.899 -2.765,-15.799 -4.147,-23.698 -6.418,-2.271 -12.837,-4.543 -19.255,-6.814 -1.01,0.691 -1.777,1.383 -2.666,2.074 z" style="fill:#ffffff;fill-opacity:1;fill-rule:evenodd;stroke:#000000;stroke-width:1.54691064;stroke-miterlimit:4;stroke-opacity:1;stroke-dasharray:none" inkscape:connector-curvature="0"/>
<path sodipodi:nodetypes="ccccc" id="path4476" d="m 217.252,246.966 c 0.061,-0.243 12.052,-2.435 12.052,-2.435 0,0 -1.4,4.444 -1.461,4.444 l -11.93,3.591 1.339,-5.6 z" style="fill:#f9dd16;fill-opacity:1;fill-rule:evenodd;stroke:none" inkscape:connector-curvature="0"/>
<path sodipodi:nodetypes="cs" id="path4478" d="m 186.004,201.816 c 2.313,-6.148 8.734,-11.016 13.047,-12.359" style="fill:none;stroke:#000000;stroke-width:1pt;stroke-linecap:butt;stroke-linejoin:miter;stroke-opacity:1" inkscape:connector-curvature="0"/>
<path sodipodi:nodetypes="ccccccccccc" id="path4480" d="m 216.821,247.074 c 0.774,-0.218 4.211,-1.221 5.212,-1.377 1.068,-0.25 2.131,-0.53 3.158,-0.861 1.185,-0.242 1.927,-0.465 3.158,-0.689 0.964,-0.368 1.917,-0.62 2.948,-0.861 m -16.647,11.202 c 0.1,-0.134 0.917,-0.856 1.504,-1.205 0.691,-0.218 3.054,-1.221 3.948,-1.377 0.954,-0.25 1.903,-0.53 2.82,-0.861 1.059,-0.242 1.721,-0.465 2.821,-0.689 0.861,-0.368 1.712,-0.62 2.632,-0.861" style="font-size:12px;fill:none;stroke:#000000;stroke-width:1.10579996pt" inkscape:connector-curvature="0"/>
<path sodipodi:nodetypes="cccccc" id="path4482" d="m 219.519,203.556 c -0.058,0 -0.115,0 -0.172,0 0.539,0 0.208,-0.045 -0.517,0.861 -0.258,0.696 -2.468,2.238 -4.132,2.238 -0.803,0.086 -2.037,0.172 -2.841,0.172 -0.229,0 -0.545,-0.172 -0.775,-0.172" style="fill:none;stroke:#000000;stroke-width:1pt;stroke-linecap:butt;stroke-linejoin:miter;stroke-opacity:1" inkscape:connector-curvature="0"/>
<path sodipodi:nodetypes="cccccccccc" id="path4484" d="m 219.347,239.024 c 0.057,0 0.114,0 0.172,0 -0.23,0 0.459,0 0.688,0 0.893,0 1.789,0.159 2.583,0.172 0.861,0 1.722,0.244 2.583,0.244 0.869,0.123 1.916,0.083 2.815,0.211 1.008,0.034 1.817,0.233 2.866,0.233 0.846,0.032 1.302,0.173 2.239,0.173 l -2.239,-0.173 c 0.846,0.032 1.302,0.173 2.239,0.173" style="fill:none;stroke:#000000;stroke-width:1pt;stroke-linecap:butt;stroke-linejoin:miter;stroke-opacity:1" inkscape:connector-curvature="0"/>
<path sodipodi:nodetypes="cccccc" id="path4486" d="m 213.493,260.028 c 0.092,-0.134 0.84,-0.856 1.377,-1.205 0.633,-0.218 2.797,-1.221 3.616,-1.377 0.873,-0.25 1.742,-0.53 2.582,-0.861 0.97,-0.242 1.576,-0.465 2.583,-0.689 0.789,-0.368 1.568,-0.62 2.41,-0.861" style="fill:none;stroke:#000000;stroke-width:1pt;stroke-linecap:butt;stroke-linejoin:miter;stroke-opacity:1" inkscape:connector-curvature="0"/>
<path sodipodi:nodetypes="ccccc" id="path4488" d="m 229.616,230.102 c -0.487,1.414 0.144,1.769 0.405,2.379 0.454,0.591 1.613,1.492 3.444,2.066 0.706,0.19 1.249,0.376 2.066,0.689 0.541,0.05 0.807,0.185 1.205,0.344" style="fill:none;stroke:#000000;stroke-width:1pt;stroke-linecap:butt;stroke-linejoin:miter;stroke-opacity:1" inkscape:connector-curvature="0"/>
<path id="path4490" d="m 161.497,178.247 c 0.057,0 0.115,0 0.172,0 -0.54,0 -0.216,0.035 0.689,-0.689 0.559,-0.625 1.026,-0.908 1.549,-1.549" style="fill:none;stroke:#000000;stroke-width:1pt;stroke-linecap:butt;stroke-linejoin:miter;stroke-opacity:1" inkscape:connector-curvature="0"/>
<path sodipodi:nodetypes="ccccccc" id="path4492" d="m 172.645,190.512 c 0.115,0 10.016,-4.99 11.073,-6.056 0.749,-0.543 1.316,-1.116 2.227,-1.733 0.584,-0.305 1.003,-0.696 1.55,-1.033 0.455,-0.659 1.049,-1.057 1.377,-1.66 0.608,-0.527 0.347,-1.098 0.84,-1.733 0.233,-0.65 0.669,-1.745 0.811,-2.34" style="fill:none;stroke:#000000;stroke-width:1pt;stroke-linecap:butt;stroke-linejoin:miter;stroke-opacity:1" inkscape:connector-curvature="0"/>
<path sodipodi:nodetypes="ccc" id="path4494" d="m 203.133,183.362 c 0.054,0.356 -0.158,1.453 -0.143,2.288 -0.034,0.968 -1.279,3.958 -2.784,4.851" style="fill:none;stroke:#000000;stroke-width:1pt;stroke-linecap:butt;stroke-linejoin:miter;stroke-opacity:1" inkscape:connector-curvature="0"/>
<path sodipodi:nodetypes="cccccccccccccccccc" id="path4496" d="m 185.345,183.251 c 0.058,0 1.565,0.49 4.084,1.265 3.032,1.09 9.338,5.064 9.964,5.611 0.639,0.503 1.782,0.952 2.22,1.549 0.685,0.592 1.187,1.275 1.722,1.894 0.629,0.767 1.165,1.416 1.549,2.066 1.915,1.553 7.066,12.306 7.231,12.913 0.289,0.568 0.647,1.359 0.861,1.894 0.382,0.44 0.641,1.062 1.033,1.722 0.36,0.856 0.763,1.246 1.206,1.894 0.57,0.396 1.338,1.148 2.066,1.549 0.776,0.664 1.504,0.934 2.066,1.378 0.812,0.345 9.886,6.081 10.307,6.368 0.829,0.666 3.36,3.289 1.583,5.197 -0.754,0.645 -1.433,1.499 -2.077,1.864 -0.656,0.657 -1.569,0.951 -2.323,1.291 -4.088,1.208 -6.17,0.775 -6.974,0.775 -0.287,0 -0.574,0 -0.861,0" style="fill:none;stroke:#000000;stroke-width:1pt;stroke-linecap:butt;stroke-linejoin:miter;stroke-opacity:1" inkscape:connector-curvature="0"/>
<path id="path4498" d="m 165.629,163.096 c 0.057,0 0.115,0 0.172,0 -0.465,0 -0.227,-0.011 0.689,0.172 0.703,0.308 1.719,0.609 2.41,0.861 0.733,0.235 1.655,0.348 2.066,0.689 0.8,0.14 1.268,0.598 1.894,1.033 0.722,0.652 1.273,1.073 2.066,1.549 0.938,0.647 1.68,0.968 2.583,1.55 0.916,0.172 1.59,0.481 2.582,0.516 0.934,0.06 1.766,0.172 2.755,0.172 0.804,0 1.607,0 2.411,0 l -2.411,0 c 0.804,0 1.607,0 2.411,0" style="fill:none;stroke:#000000;stroke-width:1pt;stroke-linecap:butt;stroke-linejoin:miter;stroke-opacity:1" inkscape:connector-curvature="0"/>
<path id="path4500" d="m 221.241,142.952 c -0.115,0 -0.23,0 -0.345,0 0.637,0 0.458,-0.023 -0.516,0.172 -1.017,0.525 -2.371,0.922 -3.272,1.377 -1.028,0.34 -2.133,0.717 -3.099,1.206 -1.094,0.641 -2.102,1.162 -3.099,1.893 -0.991,0.531 -1.965,1.185 -2.927,1.722 -0.959,0.521 -1.751,1.024 -2.582,1.722 -0.694,0.385 -1.637,0.93 -2.411,1.549 -0.727,0.261 -1.252,0.779 -1.721,1.206 -0.911,0.807 -1.469,1.226 -2.411,2.066 -0.495,0.468 -1.153,1.018 -1.894,1.721 -0.778,0.519 -1.62,1.517 -2.238,2.066 -0.396,0.517 -0.976,1.132 -1.549,1.55 -0.441,0.555 -0.952,1.285 -1.55,1.722 -0.355,0.528 -0.976,1.216 -1.55,1.894 -0.465,0.569 -1.105,1.142 -1.549,1.721 -0.598,0.662 -1.056,1.329 -1.722,1.894 -0.119,0.398 -0.369,0.604 -0.516,0.861" style="fill:none;stroke:#000000;stroke-width:1pt;stroke-linecap:butt;stroke-linejoin:miter;stroke-opacity:1" inkscape:connector-curvature="0"/>
<path sodipodi:nodetypes="cccccccccccccc" id="path4502" d="m 165.027,174.459 c 2.582,-0.172 6.886,0.603 6.972,0.603 0.001,0 5.682,-0.086 5.682,-0.086 2.985,-0.288 3.644,-1.435 4.132,-2.239 1.119,-1.721 1.894,-2.324 2.755,-3.615 1.377,-1.033 3.272,1.377 3.358,1.377 4.82,4.563 0.946,10.158 0.688,10.33 -2.41,2.21 -2.927,2.353 -4.39,0.947 -1.464,-1.722 -1.894,-2.496 -3.099,-3.099 -2.324,-1.119 -7.145,-0.258 -7.232,-0.258 -0.086,0 -2.496,0.947 -2.496,0.947 -1.177,0.43 -1.923,1.464 -3.96,1.807 -2.066,0.144 -2.755,-0.057 -3.788,-1.721 -1.377,-2.152 -0.689,-4.735 1.378,-4.993 z" style="fill:#f9dd16;fill-opacity:1;fill-rule:evenodd;stroke:#000000;stroke-width:1pt;stroke-linecap:butt;stroke-linejoin:miter;stroke-opacity:1" inkscape:connector-curvature="0"/>
</g>
<path sodipodi:nodetypes="cccccccccc" id="path4504" d="m 332.30165,290.148 c -2.276,-2.067 42.811,16.337 49.014,16.546 8.481,-3.102 43.433,-32.676 43.433,-32.676 0.345,2.895 1.584,10.409 4.961,11.996 -13.51,10.962 -25.782,21.508 -39.293,32.468 0.966,17.373 -2.205,35.78 6.618,55.221 0,0 -10.546,0.205 -10.546,0 -9.307,-9.307 -12.618,-54.185 -12.618,-54.185 -14.821,-6.619 -29.644,-13.029 -44.465,-19.648 2.138,-1.38 3.861,-5.652 2.896,-9.722 z" style="font-size:12px;fill:#f9dd16;fill-opacity:0.98742095;fill-rule:evenodd;stroke:#000000;stroke-width:2.40244999pt" inkscape:connector-curvature="0"/>
<path sodipodi:nodetypes="ccccccc" id="path4506" d="m 375.19865,336.153 c 0.721,-0.523 -8.133,4.113 -10.407,5.277 -40.961,21.85 -62.04,53.634 -63.354,54.835 -0.708,1.354 -2.011,3.16 -3.204,4.929 -0.96,1.483 -2.338,3.018 -3.246,4.518 -1.255,1.738 -3.893,5.17 -5.334,6.694 -0.18,0.982 0.683,-0.336 0.401,0.317" style="font-size:12px;fill:none;stroke:#000000;stroke-width:2.40244999pt" inkscape:connector-curvature="0"/>
<path sodipodi:nodetypes="ccccccc" id="path4508" d="m 403.18665,310.185 c -0.795,-0.402 7.378,5.351 9.453,6.84 38.166,26.431 76.072,30.638 77.741,31.257 1.528,0.01 3.73,0.343 5.848,0.595 1.759,0.175 3.753,0.698 5.503,0.82 2.119,0.32 6.378,1.096 8.393,1.681 0.954,-0.29 -0.611,-0.453 0.098,-0.502" style="font-size:12px;fill:none;stroke:#000000;stroke-width:2.40244999pt" inkscape:connector-curvature="0"/>
</g>
</svg>
