<svg xmlns:svg="http://www.w3.org/2000/svg" xmlns="http://www.w3.org/2000/svg" viewBox="0 0 675 450">
<defs>
<marker markerWidth="691.235" markerHeight="1592.9" orient="auto">
<g transform="translate(139.04186,-931.37552)">
<g transform="matrix(0.3358457,0,0,0.3358462,22.073663,254.82087)">
<path d="m-1508.834 4385.729 0 0 0 0 0 0" fill="#000"/>
<g transform="matrix(2.9999964,0,0,2.9994449,-746.32978,-2781.9855)">
<path d="m377.175 843.108 0.091-3.458c0 0-1.857-2.958 0.298-6.136 0 0-4.578-2.422-3.512-6.215 0 0-4.139-1.059-3.835-5.613 0 0-4.468-0.31-4.931-4.114 0 0-4.468 0.736-6.434-2.971 0 0-4.359 0.852-5.588-2.204 0 0-4.237 1.468-6.751-2.124 0 0-4.474 1.808-6.349-1.583-1.851 3.379-6.325 1.583-6.325 1.583-2.484 3.579-6.751 2.094-6.751 2.094-1.187 3.068-5.533 2.198-5.533 2.198-1.96 3.708-6.422 2.971-6.422 2.971-0.438 3.793-4.9 4.103-4.9 4.103 0.353 4.566-3.78 5.601-3.78 5.601 1.09 3.792-3.482 6.208-3.482 6.208 2.21 3.196 0.371 6.131 0.371 6.131l-0.103 3.189 73.949 0.342" fill="#ff0"/>
<path d="m377.175 843.108 0.091-3.458c0 0-1.857-2.958 0.298-6.136 0 0-4.578-2.422-3.512-6.215 0 0-4.139-1.059-3.835-5.613 0 0-4.468-0.31-4.931-4.114 0 0-4.468 0.736-6.434-2.971 0 0-4.359 0.852-5.588-2.204 0 0-4.237 1.468-6.751-2.124 0 0-4.474 1.808-6.349-1.583-1.851 3.379-6.325 1.583-6.325 1.583-2.484 3.579-6.751 2.094-6.751 2.094-1.187 3.068-5.533 2.198-5.533 2.198-1.96 3.708-6.422 2.971-6.422 2.971-0.438 3.793-4.9 4.103-4.9 4.103 0.353 4.566-3.78 5.601-3.78 5.601 1.09 3.792-3.482 6.208-3.482 6.208 2.21 3.196 0.371 6.131 0.371 6.131l-0.103 3.189 73.949 0.342-0.012 0z" style="fill:#f9d90f;stroke-width:0.27124387;stroke:#000"/>
<path d="m375.446 838.791c-11.615-1.163-24.989-3.92-35.313 1.894-6.921-4.079-16.558-3.83-24.763-3.031-4.456 0.797-9.697 0.797-14.354 1.558l-0.73 0.103c-8.449 0.561-16.113-1.936-23.455-5.217 2.331 13.234 4.919 26.797 6.191 40.652 2.77 20.52-9.709 37.748-4.59 58.019 3.056 9.727 13.751 15.382 23.54 16.503 9.478 0.559 19.285 2.112 28.057 4.017 1.668 0.347 3.646 1.121 4.797 1.619 2.417 1.011 4.188 2.496 5.74 4.085 5.296-5.516 13.057-7.05 20.715-7.859 13.8-1.613 30.814-0.736 39.263-13.239l0-0.707c4.59-6.915 3.981-17.464 1.991-25.299-0.134-2.733-0.864-5.144-1.26-7.749-8.431-22.268-1.211-47.311 2.417-69.756-4.432 2.423-9.375 3.567-14.305 4.779-3.932 0.524-8.315 0.286-12.296 0.072l-1.65-0.444M392.795 902.697 392.795 902.697" fill="#dc171d"/>
<path d="m392.795 902.697c-0.055 1.466 0.737 2.618 1.023 3.974 1.613 9.734 3.172 22.627-6.848 28.666-11.085 7.049-25.622 4.03-38.448 7.761-2.563 0.712-6.093 3.069-7.895 4.736-1.157-0.761-2.319-1.93-3.811-2.617-10.555-5.613-24.276-3.732-36.189-6.764-5.984-1.893-12.223-6.555-13.739-12.68-3.896-16.07 5.436-29.767 4.334-45.709-0.712-12.175-2.758-23.862-5.57-35.276 9.314 4.34 20.094 5.064 30.565 2.983 7.755-1.084 16.783-1.108 24.051 2.173 4.005-1.723 8.693-2.496 13.009-2.971 8.206 0.798 17.026 2.283 25.476 2.222 5.643-0.293 10.769-1.924 15.675-4.097-2.91 18.865-8.498 38.625-1.637 57.599" fill="#62afe1"/>
<path d="m376.042 906.458-0.091-17.739 2.185 0-27.113-17.513-0.049-9.101 2.618 0-13.557-9.709-13.49 9.703 2.611 0 0.049 9.094-26.967 17.49 2.155 0.012 0.091 17.727 71.551 0.049" fill="#fff"/>
<path d="m376.042 906.458-0.091-17.739 2.185 0-27.113-17.513-0.049-9.101 2.618 0-13.557-9.709-13.49 9.703 2.611 0 0.049 9.094-26.967 17.49 2.155 0.012 0.091 17.727 71.551 0.049 0.006-0.013z" style="fill:none;stroke-width:1.16422367;stroke:#000"/>
<path d="m384.376 929.761 0.006 5.551-87.347-0.097-0.036-5.527 87.384 0.074" fill="#fff"/>
<path d="m384.376 929.761 0.006 5.551-87.347-0.097-0.036-5.527 87.384 0.074-0.006 0z" style="fill:none;stroke-width:1.16422367;stroke:#000"/>
<path d="m302.836 929.426-0.073-18.786 3.537-0.007-0.195 19.005 0.213-18.852-5.095-0.146 0-4.03 78.064 0.086 0.037 3.993-4.815 0 0.091 19.023-0.17-19.023 3.585 0 0.079 18.809" fill="#fff"/>
<path d="m302.836 929.426-0.073-18.786 3.537-0.007-0.195 19.005 0.213-18.852-5.095-0.146 0-4.03 78.064 0.086 0.037 3.993-4.815 0 0.091 19.023-0.17-19.023 3.585 0 0.079 18.809M319.619 924.8l-0.055-13.1-10.482 0 0.061 13.087 10.476 0.013M319.619 924.8l-0.055-13.1-10.482 0 0.061 13.087 10.476 0.013M319.619 924.8l-0.055-13.1-10.482 0 0.061 13.087 10.476 0.013M319.619 924.8l-0.055-13.1-10.482 0 0.061 13.087 10.476 0.013M319.619 924.8l-0.055-13.1-10.482 0 0.061 13.087 10.476 0.013M311.937 914.432l0.03 7.609 4.797 0-0.024-7.609-4.803 0M370.862 924.836l-0.061-13.087-10.446-0.012 0.049 13.099 10.458 0M363.18 914.481l0.055 7.585 4.791 0-0.043-7.585-4.803 0M370.783 903.506l-0.061-13.101-10.458 0 0.037 13.101 10.489 0-0.006 0zM363.101 893.163l0.03 7.597 4.791 0-0.006-7.597-4.815 0M319.534 903.458l-0.073-13.076-10.464-0.013 0.049 13.082 10.489 0 0 0.007zM311.851 893.115l0.024 7.585 4.803 0.012-0.036-7.597-4.791 0M338.502 903.481l-0.049-13.076-10.47-0.012 0.043 13.087 10.476 0M330.826 893.127l0.024 7.585 4.797 0.024-0.03-7.609-4.791 0M353.124 903.506l-0.073-13.101-10.464-0.012 0.049 13.087 10.489 0.025M345.435 893.14l0.037 7.609 4.797 0-0.024-7.609-4.809 0" style="fill:none;stroke-width:1.16422367;stroke:#000"/>
<path d="m355.717 899.488 0.116 30.199-30.333-0.049-0.11-30.174 30.321 0.024" fill="#fff"/>
<path d="m355.717 899.488 0.116 30.199-30.333-0.049-0.11-30.174 30.321 0.024 0.006 0zM325.207 908.108l30.54 0.024M325.207 908.108l30.54 0.024M325.207 908.108l30.54 0.024M325.207 908.108l30.54 0.024M325.207 908.108l30.54 0.024M329.018 929.675l-0.103-21.342M352.143 929.687l-0.103-21.329M366.79 886.626l-17.081-12.474-19.193-0.024-16.947 12.449 53.222 0.049M331.994 863.799l0.03 7.609 16.144 0.012-0.03-7.609-16.144-0.012M331.994 863.799l0.03 7.609 16.144 0.012-0.03-7.609-16.144-0.012" style="fill:none;stroke-width:1.16422367;stroke:#000"/>
<path d="m331.994 863.799 0.03 7.609 16.144 0.012-0.03-7.609-16.144-0.012" style="fill:none;stroke-width:1.16422367;stroke:#000"/>
<path d="m336.371 865.686 0.024 3.792 7.414 0-0.024-3.792-7.414 0M340.036 855.142l8.979 6.348-17.891-0.024 8.912-6.325M340.036 855.142l8.979 6.348-17.891-0.024 8.912-6.325M340.036 855.142l8.979 6.348-17.891-0.024 8.912-6.325M340.036 855.142l8.979 6.348-17.891-0.024 8.912-6.325M340.036 855.142l8.979 6.348-17.891-0.024 8.912-6.325" style="fill:none;stroke-width:1.16422367;stroke:#000"/>
<path d="m376.341 850.838c2.551-0.061 3.208 10.507 3.214 15.742 2.191 0.615 7.049 3.671 9.198 6.434l-24.642-0.036c2.118-2.727 6.94-5.795 9.113-6.409 0-5.242 0.536-15.803 3.117-15.742" fill="#fff"/>
<path d="m376.341 850.838c2.551-0.061 3.208 10.507 3.214 15.742 2.191 0.615 7.049 3.671 9.198 6.434l-24.642-0.036c2.118-2.727 6.94-5.795 9.113-6.409 0-5.242 0.536-15.803 3.117-15.742M326.808 900.335l2.21 0-0.645 1.186M326.808 900.335l2.21 0-0.645 1.186M326.808 900.335l2.21 0-0.645 1.186M326.808 900.335l2.21 0-0.645 1.186M326.808 900.335l2.21 0-0.645 1.186c0 0 1.065 1.37 0.018 2.94l0.578 1.09-2.131 0 0.578-1.035c0 0-1.09-1.82 0.049-2.995l-0.657-1.186M331.313 900.335l2.21 0-0.639 1.186c0 0 1.065 1.334 0.006 2.94l0.572 1.09-2.124 0 0.572-1.035c0 0-1.065-1.82 0.055-2.995l-0.651-1.186M336.225 900.335l2.204 0-0.657 1.186c0 0 1.077 1.37 0.018 2.94l0.578 1.114-2.112-0.024 0.566-1.035c0 0-1.077-1.808 0.043-2.995l-0.645-1.186 0.006 0zM341.771 900.346l2.222 0-0.651 1.199c0 0 1.065 1.346 0.006 2.922l0.597 1.108-2.143 0 0.572-1.035c0 0-1.065-1.832 0.073-2.995l-0.67-1.199-0.006 0zM346.701 900.346l2.204 0-0.651 1.199c0 0 1.071 1.346 0.012 2.916l0.584 1.114-2.124 0 0.554-1.035c0 0-1.071-1.82 0.085-2.995l-0.664-1.199M351.602 900.359l2.204-0.012-0.651 1.199c0 0 1.09 1.346 0.03 2.922l0.554 1.108-2.131 0 0.572-1.035c0 0-1.065-1.82 0.073-2.995l-0.651-1.187" style="fill:none;stroke-width:1.16422367;stroke:#000"/>
<path d="m340.699 968.397c11.359 0.037 25.329-2.283 31.873-5.667l14.372-1.273 0.286 17.538c-12.175 6.714-40.286 8.156-46.471 8.108-6.191 0.049-34.649-1.418-46.879-8.156l0.158-17.55 14.403 1.297c6.544 3.367 20.94 5.704 32.287 5.704l-0.03 0" fill="#f9d90f"/>
<path d="m340.699 968.397c11.359 0.037 25.329-2.283 31.873-5.667l14.372-1.273 0.286 17.538c-12.175 6.714-40.286 8.156-46.471 8.108-6.191 0.049-34.649-1.418-46.879-8.156l0.158-17.55 14.403 1.297c6.544 3.367 20.94 5.704 32.287 5.704l-0.03 0" style="fill:none;stroke-width:0.27124387;stroke:#000"/>
<path d="m256.883 893.589 12.662 4.03-3.829 20.503-11.986 1.862c0 0-2.021-10.781 3.153-26.407" fill="#f9d90f"/>
<path d="m256.883 893.589 12.662 4.03-3.829 20.503-11.986 1.862c0 0-2.021-10.781 3.153-26.407l0 0.012z" style="fill:none;stroke-width:0.27124387;stroke:#000"/>
<path d="m265.709 917.896-11.98 2.088 7.579-10.781 4.401 8.693" fill="#7e7e7e"/>
<path d="m265.709 917.896-11.98 2.088 7.579-10.781 4.401 8.693" style="fill:#f9b60f;stroke-width:0.27124387;stroke:#000"/>
<path d="m249.31 908.358 12.205 0.882c0.274 10.343 1.528 49.813 48.656 51.956l-1.467 14.36c-57.367 0.596-61.726-48.413-59.394-67.198" fill="#f9d90f"/>
<path d="m249.31 908.358 12.205 0.882c0.274 10.343 1.528 49.813 48.656 51.956l-1.467 14.36c-57.367 0.596-61.726-48.413-59.394-67.198zM294.107 978.496l14.384-3.141M294.107 978.496l14.384-3.141M294.107 978.496l14.384-3.141M294.107 978.496l14.384-3.141M294.107 978.496l14.384-3.141" style="fill:none;stroke-width:0.27124387;stroke:#000"/>
<path d="m423.518 893.735-12.613 3.993 3.999 20.472 12.01 1.929c0 0 1.93-10.774-3.397-26.406" fill="#ff0"/>
<path d="m423.518 893.735-12.613 3.993 3.999 20.472 12.01 1.929c0 0 1.93-10.774-3.397-26.406l0 0.012z" style="fill:#f9d90f;stroke-width:0.27124387;stroke:#000"/>
<path d="m414.904 917.987 12.01 2.155-7.682-10.786-4.328 8.631" fill="#7e7e7e"/>
<path d="m414.904 917.987 12.01 2.155-7.682-10.786-4.328 8.631" style="fill:#f9b60f;stroke-width:0.27124387;stroke:#000"/>
<path d="m431.23 908.522-12.223 0.835c-0.177 10.33-1.077 49.818-48.206 51.912l1.601 14.348c57.355 0.663 61.3-48.322 58.828-67.101" fill="#f9d90f"/>
<path d="m431.23 908.522-12.223 0.835c-0.177 10.33-1.077 49.818-48.206 51.912l1.601 14.348c57.355 0.663 61.3-48.322 58.828-67.101l0 0.005zM387.036 978.575 372.615 975.416" style="fill:none;stroke-width:0.27124387;stroke:#000"/>
<path d="m333.072 977.041c-0.323 0.207-0.761 0.262-1.266 0.237l-2.277-0.116 0.195-2.842 2.258 0.121c0.444 0.03 0.797 0.116 1.017 0.25 0.457 0.237 0.657 0.676 0.615 1.284-0.03 0.524-0.213 0.865-0.548 1.065m-3.823 4.475 0.225-3.464 2.654 0.183c0.858 0.067 1.497-0.158 1.93-0.597 0.45-0.426 0.682-0.986 0.712-1.619 0.055-0.737-0.134-1.34-0.572-1.784-0.42-0.426-1.017-0.651-1.765-0.724l-3.792-0.237-0.524 8.156 1.126 0.074M337.497 974.691l2.776 0.03M337.497 974.691l2.776 0.03M337.497 974.691l2.776 0.03M337.497 974.691l2.776 0.03M337.497 974.691l2.776 0.03c0.402 0.037 0.718 0.085 0.95 0.195 0.426 0.201 0.627 0.603 0.627 1.187 0 0.548-0.158 0.914-0.469 1.133-0.298 0.2-0.73 0.292-1.248 0.292l-2.666-0.03 0.024-2.806m-0.043 7.226 0.024-3.482 2.605 0.037c0.463 0 0.804 0.036 1.041 0.152 0.384 0.177 0.572 0.548 0.59 1.059l0.067 1.37c0.018 0.329 0.024 0.53 0.043 0.664 0.037 0.097 0.055 0.201 0.103 0.275l1.4 0-0.024-0.177c-0.158-0.085-0.286-0.249-0.341-0.499-0.049-0.158-0.073-0.396-0.085-0.694l-0.024-1.09c-0.018-0.493-0.103-0.833-0.292-1.023-0.164-0.219-0.39-0.408-0.737-0.524 0.39-0.206 0.682-0.444 0.895-0.737 0.201-0.323 0.304-0.73 0.304-1.229 0-0.937-0.383-1.577-1.163-1.924-0.42-0.189-0.956-0.287-1.589-0.298l-3.914-0.037-0.03 8.181 1.126 0M346.135 980.206c-0.499-0.608-0.767-1.369-0.828-2.27-0.055-1.133 0.164-1.997 0.682-2.582 0.524-0.633 1.199-0.937 2.082-0.986 0.889-0.049 1.619 0.237 2.161 0.797 0.554 0.548 0.87 1.309 0.925 2.259 0.03 0.913-0.128 1.722-0.548 2.434-0.414 0.725-1.102 1.133-2.118 1.157-1.059 0.055-1.851-0.194-2.356-0.81m-1.339-5.15c-0.524 0.81-0.737 1.747-0.682 2.88 0.079 1.223 0.457 2.234 1.169 2.995 0.791 0.761 1.838 1.144 3.129 1.071 1.382-0.061 2.423-0.584 3.129-1.546 0.572-0.87 0.846-1.882 0.785-3.129-0.079-1.114-0.402-2.021-1.004-2.697-0.761-0.907-1.875-1.308-3.385-1.247-1.424 0.091-2.471 0.614-3.147 1.673M383.238 963.29c0.785-0.134 1.467-0.097 2.088 0.116 0.913 0.286 1.528 0.962 1.911 1.997l-1.126 0.158c-0.243-0.559-0.59-0.943-1.059-1.157-0.457-0.2-1.029-0.25-1.686-0.152-0.767 0.116-1.382 0.499-1.814 1.114-0.426 0.657-0.554 1.534-0.365 2.653 0.158 0.926 0.499 1.711 1.059 2.234 0.517 0.536 1.278 0.724 2.271 0.584 0.743-0.122 1.339-0.419 1.759-0.931 0.438-0.486 0.566-1.224 0.42-2.173l-2.624 0.402-0.134-0.901 3.652-0.561 0.712 4.328-0.724 0.11-0.45-0.998c-0.304 0.451-0.609 0.798-0.877 0.998-0.45 0.354-1.059 0.579-1.82 0.688-0.986 0.152-1.887-0.025-2.703-0.548-0.895-0.664-1.473-1.65-1.692-3.019-0.237-1.345-0.024-2.496 0.597-3.403 0.59-0.876 1.449-1.387 2.605-1.552M391.498 962.656l2.618-0.95c0.359-0.133 0.67-0.177 0.937-0.145 0.481 0.036 0.834 0.322 1.035 0.894 0.189 0.487 0.189 0.913-0.024 1.212-0.225 0.31-0.578 0.536-1.09 0.724l-2.459 0.883-1.017-2.618m2.618 6.764-1.278-3.281 2.435-0.877c0.457-0.146 0.773-0.225 1.011-0.2 0.432 0.054 0.761 0.317 0.98 0.815l0.554 1.249c0.122 0.31 0.219 0.499 0.298 0.584 0.037 0.11 0.116 0.177 0.177 0.249l1.321-0.486-0.073-0.177c-0.195 0-0.383-0.11-0.524-0.323-0.103-0.152-0.201-0.371-0.341-0.626l-0.432-1.023c-0.195-0.444-0.396-0.718-0.627-0.883-0.231-0.128-0.524-0.213-0.87-0.237 0.268-0.311 0.463-0.622 0.536-0.987 0.079-0.371 0.043-0.785-0.134-1.247-0.335-0.87-0.95-1.345-1.814-1.406-0.457-0.036-0.98 0.061-1.583 0.273l-3.677 1.309 2.971 7.694 1.077-0.396M403.691 965.366l-4.669-6.812 5.126-3.269 0.566 0.822-4.2 2.684 1.437 2.082 3.878-2.496 0.53 0.797-3.878 2.496 1.583 2.295 4.273-2.734 0.566 0.804-5.217 3.33M407.776 953.325l1.339-1.473c0.621-0.657 1.278-0.956 1.997-0.87 0.718 0.061 1.449 0.438 2.228 1.12 0.213 0.164 0.402 0.377 0.597 0.615 0.341 0.444 0.542 0.835 0.67 1.224 0.11 0.488 0.085 0.932-0.085 1.358-0.103 0.212-0.286 0.462-0.56 0.761l-1.345 1.461-4.839-4.206m7.074 3.207c0.95-1.046 1.157-2.173 0.603-3.445-0.323-0.688-0.816-1.358-1.497-1.942-0.858-0.761-1.753-1.151-2.697-1.223-1.047-0.08-1.936 0.298-2.709 1.144l-2.283 2.447 6.294 5.491 2.283-2.459M419.725 950.171l-7.244-4.255 0.59-0.937 7.256 4.231-0.597 0.973M422.568 945.229l-7.822-3.13 2.307-5.503 0.95 0.365-1.881 4.535 2.356 0.926 1.759-4.177 0.901 0.372-1.741 4.17 2.636 1.071 1.93-4.589 0.95 0.359-2.35 5.601M426.16 935.623l-8.23-1.82 0.274-1.272 7.603-2.569-6.678-1.473 0.244-0.998 8.23 1.771-0.262 1.236-7.615 2.624 6.678 1.443-0.237 1.059M425.508 925.171l0.103-1.035c0.475 0.013 0.877-0.061 1.181-0.225 0.597-0.323 0.944-0.937 1.035-1.845 0.037-0.425 0.018-0.797-0.079-1.151-0.177-0.681-0.56-1.059-1.175-1.12-0.457-0.049-0.785 0.061-1.023 0.311-0.213 0.286-0.438 0.699-0.609 1.284l-0.377 1.077c-0.243 0.706-0.469 1.193-0.712 1.466-0.39 0.512-0.937 0.688-1.637 0.64-0.749-0.079-1.357-0.377-1.79-0.95-0.444-0.524-0.627-1.272-0.517-2.198 0.073-0.846 0.353-1.558 0.852-2.13 0.463-0.524 1.181-0.774 2.1-0.676l-0.085 1.035c-0.45 0-0.81 0.079-1.071 0.262-0.475 0.262-0.737 0.816-0.816 1.625-0.067 0.67 0.024 1.12 0.28 1.462 0.256 0.286 0.578 0.468 0.956 0.499 0.402 0.037 0.718-0.091 0.937-0.401 0.158-0.214 0.347-0.676 0.603-1.425l0.371-1.132c0.183-0.524 0.402-0.925 0.657-1.211 0.457-0.475 1.053-0.676 1.802-0.62 0.913 0.097 1.564 0.475 1.899 1.169 0.329 0.7 0.457 1.473 0.377 2.35-0.103 0.992-0.426 1.771-1.023 2.295-0.597 0.535-1.339 0.718-2.24 0.645M254.898 924.672l0.189 1.022c-0.457 0.091-0.822 0.275-1.09 0.512-0.481 0.45-0.645 1.126-0.481 2.045 0.073 0.389 0.213 0.772 0.39 1.077 0.365 0.621 0.84 0.87 1.443 0.772 0.444-0.079 0.737-0.249 0.877-0.566 0.134-0.311 0.231-0.786 0.262-1.394l0.055-1.151c0.037-0.712 0.116-1.272 0.274-1.583 0.25-0.56 0.718-0.907 1.418-1.022 0.749-0.135 1.406 0.036 1.972 0.462 0.572 0.396 0.95 1.084 1.09 1.997 0.177 0.835 0.097 1.583-0.231 2.258-0.317 0.658-0.925 1.059-1.857 1.23l-0.183-1.034c0.432-0.158 0.755-0.311 0.968-0.524 0.365-0.408 0.475-0.998 0.335-1.808-0.11-0.658-0.335-1.084-0.676-1.297-0.335-0.25-0.67-0.348-1.035-0.286-0.408 0.061-0.676 0.286-0.804 0.651-0.079 0.243-0.14 0.748-0.195 1.522l-0.055 1.193c-0.03 0.56-0.116 1.023-0.304 1.34-0.298 0.584-0.804 0.943-1.54 1.059-0.931 0.158-1.65-0.055-2.161-0.651-0.524-0.584-0.846-1.284-1.01-2.155-0.183-1.035-0.049-1.838 0.365-2.483 0.42-0.664 1.084-1.047 1.984-1.175M254.381 935.465l8.047-2.423 1.875 5.667-0.98 0.31-1.534-4.657-2.447 0.737 1.418 4.303-0.937 0.298-1.406-4.315-2.727 0.815 1.558 4.76-0.962 0.275-1.905-5.771M257.948 945.289l7.402-3.926 0.791 1.381-5.089 5.381 7.433-1.272 0.767 1.37-7.384 3.902-0.524-0.908 4.359-2.294c0.158-0.092 0.402-0.226 0.755-0.414 0.347-0.158 0.737-0.372 1.126-0.573l-7.402 1.26-0.542-0.962 5.053-5.363-0.243 0.122c-0.158 0.091-0.432 0.225-0.804 0.438-0.365 0.226-0.639 0.365-0.816 0.438l-4.346 2.331-0.536-0.925M271.742 956.192c-0.371-0.085-0.737-0.298-1.096-0.67l-1.564-1.613 2.106-1.93 1.577 1.608c0.304 0.298 0.499 0.59 0.603 0.84 0.146 0.48 0 0.919-0.444 1.333-0.402 0.371-0.804 0.524-1.181 0.432m-5.947 0.749 2.581-2.368 1.832 1.857c0.59 0.603 1.193 0.877 1.826 0.865 0.645-0.037 1.199-0.275 1.686-0.737 0.548-0.487 0.81-1.059 0.81-1.673-0.006-0.597-0.28-1.157-0.785-1.68l-2.63-2.685-6.124 5.625 0.791 0.797M273.178 963.515l4.438-6.958 5.247 3.19-0.548 0.828-4.31-2.581-1.333 2.106 3.963 2.404-0.511 0.798-3.969-2.392-1.51 2.355 4.365 2.624-0.524 0.822-5.308-3.196M286.315 962.169l2.666 0.847c0.377 0.115 0.651 0.261 0.834 0.426 0.341 0.323 0.432 0.785 0.231 1.345-0.164 0.487-0.414 0.804-0.804 0.938-0.347 0.06-0.785 0.06-1.297-0.098l-2.514-0.803 0.883-2.655m-2.301 6.836 1.108-3.318 2.484 0.81c0.444 0.116 0.767 0.275 0.925 0.438 0.304 0.274 0.396 0.682 0.244 1.188l-0.371 1.32c-0.085 0.323-0.128 0.536-0.164 0.633 0 0.104 0 0.214 0.018 0.286l1.309 0.426 0.079-0.189c-0.14-0.11-0.219-0.31-0.213-0.559 0.03-0.153 0.073-0.396 0.158-0.676l0.317-1.059c0.128-0.463 0.177-0.81 0.061-1.059-0.097-0.262-0.262-0.5-0.536-0.724 0.414-0.074 0.773-0.201 1.077-0.427 0.286-0.25 0.53-0.597 0.676-1.083 0.298-0.883 0.134-1.62-0.524-2.18-0.329-0.292-0.797-0.542-1.412-0.773l-3.725-1.15-2.605 7.761 1.09 0.335M295.318 827.761 295.318 827.761" fill="#012a87"/>
<path d="m295.318 827.761c0.962-2.32 9.874-8.645 39.117-5.875 0 0 4.943 3.019 7.847 2.63 1.656-0.214-0.974 0.103-3.135-1.693-2.204-1.795-2.672-5.478 2.362-5.381 5.01 0.128 23.765 1.187 24.118 2.873 0.329 1.704-9.916 2.417-13.727 2.319-3.829-0.103-3.385 1.833 0.426 1.687 11.907-0.426 24.903-4.621 38.63 5.089 1.637 1.18-4.139 1.369-8.608-0.53 0 0-12.108 0.628-17.343-0.231 0 0-4.024 3.274-9.265 2.952 0.682 1.698-1.936 8.035-18.414 3.268-2.721 0.835-12.637 2.496-11.554-0.45-2.611 0-7.189 0.84-7.871-0.646-0.657-1.46 8.06-3.671 9.588-5.253 0 0-18.439 0.177-21.933-1.096 0 0-10.878 2.441-10.239 0.323" fill="#bc715f"/>
<path d="m301.229 853.583c0.396-0.535 0.554-1.497 1.394-1.473 1.826 0.486 3.068 3.828 5.314 1.661 0.797-0.177 1.102 0.908 1.759 1.035 0.42 1.857 1.911-0.377 3.025-0.25 2.38-1.059 5.326-1.309 8.145-0.785 0.085 1.82-1.339 3.829-3.129 4.864 0.037 1.833 1.698 3.008 1.668 4.852-0.286 0.688-0.049 1.771-1.09 1.997-1.321-0.237-2.624-0.377-3.719-1.114-0.134-0.134-0.243-0.396-0.524-0.31-0.134 0.615 0.828 1.224 1.205 1.851-0.664 1.132-1.765 0.097-2.691 0.11-0.274 0.651-0.012 1.473-0.682 1.893-1.169-0.036-1.406-1.308-2.124-1.942-0.737 0.797 0.517 1.272 0.694 1.905-0.45 2.398-0.39 4.742-2.788 6.313l-1.607 0.798c-0.438-1.205-0.164-3.032-0.457-4.292-0.95 1.546-1.692 2.898-3.086 4.206-1.631-0.536-2.581-2.459-2.94-4.054-0.682-1.857-0.292-4.079 1.175-5.424-0.499-0.974-2.21-0.749-2.453-2.136-2.563-1.669-3.981 2.922-5.637 0.535-0.536-2.227 0.103-4.998 1.717-6.66-0.359-0.912-1.552-0.675-2.258-1.199-1.613-1.37-3.939-2.818-3.823-5.291 4.413-1.667 9.691-0.444 12.899 2.91" fill="#008830"/>
<path d="m303.518 853.334c-0.103 2.02 1.364 0.547 2.453 1.771-0.852-0.335-1.473 1.473-2.307 0.438l-0.524 0.5c0.304 0.693 0.895 0.785 0.28 1.546-0.913 0.347-1.096-0.797-1.522-1.248-0.073-0.2 0.14-0.578-0.195-0.712-0.517 0.438-1.059 0.597-1.771 0.524-0.195-0.39-0.572-0.901-0.189-1.199 0.7-0.944 1.784 0.34 2.313-0.323 0.085-0.584-0.426-1.297 0.237-1.699 0.457 0.079 1.041-0.17 1.23 0.402M308.978 854.99 308.978 854.99 308.978 854.99 308.978 854.99 308.978 854.99c0.055 0.39-0.201 0.937 0.31 1.212 0.664-0.36 1.37-0.086 1.753 0.572-0.006 0.352 0.103 0.815-0.359 0.986l-1.035-0.194c0.073-0.201-0.256-0.329-0.384-0.524-0.457-0.14-0.724 0.231-1.065 0.456 0.256 0.39 0.846 0.603 0.706 1.102-0.609 0.608-0.907-0.524-1.577-0.238-0.457-0.176 0.164-1.126-0.554-1.412-0.852 0-0.286 1.399-1.376 0.852-0.39-0.439-0.773-1.029-0.353-1.522 0.457-0.305 1.23-0.226 1.619 0.17 0.664-0.736 0.73-3.579 2.319-1.461M302.179 857.924c0.444 0.64-0.097 1.51 0.469 2.222 0.889-1.661 1.747 0.359 2.806 0.201 0.323 0.396 0.11 0.944 0.17 1.394-1.309 0.347-2.885 0.761-4.042-0.286l-0.323 0.371c0.688 0.64 1.339 1.364 0.791 2.435-0.98 0.213-2.496 0.237-2.989-0.773-0.256-0.833 0.597-1.436-0.304-2.106-0.651 0.81-0.621 1.894-1.978 1.157-0.84-0.463-1.09-1.418-0.67-2.222 0.877-1.382 2.411 0.043 3.36-0.633 0.134-1.187-0.304-2.222 0.785-2.879 0.931-0.165 1.364 0.535 1.93 1.119" fill="#f9d90f"/>
<path d="m305.892 858.648c-0.438 2.021-1.96-0.103-2.672-0.189 0.95-1.686 1.546 0.548 2.672 0.189M310.634 860.846 310.634 860.846 310.634 860.846 310.634 860.846 310.634 860.846c-1.059 0.298-0.895-1.023-1.418-1.541l0.408-0.371c0.384 0.463 0.676 1.297 1.011 1.912" fill="#fff"/>
<path d="m309.197 860.444c0.304 0.7-0.688 1.261 0.158 1.771 0.268-0.225 0.597-0.536 0.737-0.664 0.724 0.214 1.564 0.342 2.07 1.059 0.542 1.486-0.962 1.449-1.814 1.863l-0.846-0.036c0.201-0.414-0.365-0.59-0.505-0.876-0.39-0.097-0.712 0.024-0.931 0.352 0.189 0.944 1.339 1.68 0.152 2.52-1.004-0.066-2.563 0.323-2.471-1.065-0.377-0.785 1.023-1.997-0.475-2.045-0.493 1.059-1.035 2.081-2.319 1.077l0.158-1.51c1.23 0.036 2.685 0.249 3.238-1.126 0.353-0.998-0.615-1.918 0.25-2.709 1.254-0.286 1.96 0.554 2.599 1.387" fill="#f9d90f"/>
<path d="m308.296 862.714c0.317 0.749-0.536 0.798-0.937 1.169-0.542 0.043-0.919-0.17-1.248-0.536-0.243-0.907 0.432-0.998 0.95-1.357 0.603-0.25 0.852 0.45 1.236 0.724" fill="#000"/>
<path d="m307.56 863.201c-0.134 0.177-0.323 0.122-0.524 0.17l-0.189-0.906c0.402 0.036 0.925 0.164 0.712 0.736" fill="#fff"/>
</g>
</g>
</g>
</marker>
</defs>
<path d="M0 0 298.571 225.241 675 225.241 675 0z" fill="#dc171d"/>
<path d="M0 0 299.005 225.746 0 450z" style="fill:#fff;stroke:#fff"/>
<path d="M0 450 298.571 225.241 675 225.241 675 450z" fill="#012a87"/>
<g transform="matrix(1.0075359,0,0,1.0073522,-229.18917,-679.02099)">
<path d="m377.175 843.108 0.091-3.458c0 0-1.857-2.958 0.298-6.136 0 0-4.578-2.422-3.512-6.215 0 0-4.139-1.059-3.835-5.613 0 0-4.468-0.31-4.931-4.114 0 0-4.468 0.736-6.434-2.971 0 0-4.359 0.852-5.588-2.204 0 0-4.237 1.468-6.751-2.124 0 0-4.474 1.808-6.349-1.583-1.851 3.379-6.325 1.583-6.325 1.583-2.484 3.579-6.751 2.094-6.751 2.094-1.187 3.068-5.533 2.198-5.533 2.198-1.96 3.708-6.422 2.971-6.422 2.971-0.438 3.793-4.9 4.103-4.9 4.103 0.353 4.566-3.78 5.601-3.78 5.601 1.09 3.792-3.482 6.208-3.482 6.208 2.21 3.196 0.371 6.131 0.371 6.131l-0.103 3.189 73.949 0.342" fill="#ff0"/>
<path d="m377.175 843.108 0.091-3.458c0 0-1.857-2.958 0.298-6.136 0 0-4.578-2.422-3.512-6.215 0 0-4.139-1.059-3.835-5.613 0 0-4.468-0.31-4.931-4.114 0 0-4.468 0.736-6.434-2.971 0 0-4.359 0.852-5.588-2.204 0 0-4.237 1.468-6.751-2.124 0 0-4.474 1.808-6.349-1.583-1.851 3.379-6.325 1.583-6.325 1.583-2.484 3.579-6.751 2.094-6.751 2.094-1.187 3.068-5.533 2.198-5.533 2.198-1.96 3.708-6.422 2.971-6.422 2.971-0.438 3.793-4.9 4.103-4.9 4.103 0.353 4.566-3.78 5.601-3.78 5.601 1.09 3.792-3.482 6.208-3.482 6.208 2.21 3.196 0.371 6.131 0.371 6.131l-0.103 3.189 73.949 0.342-0.012 0z" style="fill:#f9d90f;stroke-width:0.27124387;stroke:#000"/>
<path d="m375.446 838.791c-11.615-1.163-24.989-3.92-35.313 1.894-6.921-4.079-16.558-3.83-24.763-3.031-4.456 0.797-9.697 0.797-14.354 1.558l-0.73 0.103c-8.449 0.561-16.113-1.936-23.455-5.217 2.331 13.234 4.919 26.797 6.191 40.652 2.77 20.52-9.709 37.748-4.59 58.019 3.056 9.727 13.751 15.382 23.54 16.503 9.478 0.559 19.285 2.112 28.057 4.017 1.668 0.347 3.646 1.121 4.797 1.619 2.417 1.011 4.188 2.496 5.74 4.085 5.296-5.516 13.057-7.05 20.715-7.859 13.8-1.613 30.814-0.736 39.263-13.239l0-0.707c4.59-6.915 3.981-17.464 1.991-25.299-0.134-2.733-0.864-5.144-1.26-7.749-8.431-22.268-1.211-47.311 2.417-69.756-4.432 2.423-9.375 3.567-14.305 4.779-3.932 0.524-8.315 0.286-12.296 0.072l-1.65-0.444M392.795 902.697 392.795 902.697" fill="#dc171d"/>
<path d="m392.795 902.697c-0.055 1.466 0.737 2.618 1.023 3.974 1.613 9.734 3.172 22.627-6.848 28.666-11.085 7.049-25.622 4.03-38.448 7.761-2.563 0.712-6.093 3.069-7.895 4.736-1.157-0.761-2.319-1.93-3.811-2.617-10.555-5.613-24.276-3.732-36.189-6.764-5.984-1.893-12.223-6.555-13.739-12.68-3.896-16.07 5.436-29.767 4.334-45.709-0.712-12.175-2.758-23.862-5.57-35.276 9.314 4.34 20.094 5.064 30.565 2.983 7.755-1.084 16.783-1.108 24.051 2.173 4.005-1.723 8.693-2.496 13.009-2.971 8.206 0.798 17.026 2.283 25.476 2.222 5.643-0.293 10.769-1.924 15.675-4.097-2.91 18.865-8.498 38.625-1.637 57.599" fill="#62afe1"/>
<path d="m376.042 906.458-0.091-17.739 2.185 0-27.113-17.513-0.049-9.101 2.618 0-13.557-9.709-13.49 9.703 2.611 0 0.049 9.094-26.967 17.49 2.155 0.012 0.091 17.727 71.551 0.049" fill="#fff"/>
<path d="m376.042 906.458-0.091-17.739 2.185 0-27.113-17.513-0.049-9.101 2.618 0-13.557-9.709-13.49 9.703 2.611 0 0.049 9.094-26.967 17.49 2.155 0.012 0.091 17.727 71.551 0.049 0.006-0.013z" style="fill:none;stroke-width:1.16422367;stroke:#000"/>
<path d="m384.376 929.761 0.006 5.551-87.347-0.097-0.036-5.527 87.384 0.074" fill="#fff"/>
<path d="m384.376 929.761 0.006 5.551-87.347-0.097-0.036-5.527 87.384 0.074-0.006 0z" style="fill:none;stroke-width:1.16422367;stroke:#000"/>
<path d="m302.836 929.426-0.073-18.786 3.537-0.007-0.195 19.005 0.213-18.852-5.095-0.146 0-4.03 78.064 0.086 0.037 3.993-4.815 0 0.091 19.023-0.17-19.023 3.585 0 0.079 18.809" fill="#fff"/>
<path d="m302.836 929.426-0.073-18.786 3.537-0.007-0.195 19.005 0.213-18.852-5.095-0.146 0-4.03 78.064 0.086 0.037 3.993-4.815 0 0.091 19.023-0.17-19.023 3.585 0 0.079 18.809M319.619 924.8l-0.055-13.1-10.482 0 0.061 13.087 10.476 0.013M319.619 924.8l-0.055-13.1-10.482 0 0.061 13.087 10.476 0.013M319.619 924.8l-0.055-13.1-10.482 0 0.061 13.087 10.476 0.013M319.619 924.8l-0.055-13.1-10.482 0 0.061 13.087 10.476 0.013M319.619 924.8l-0.055-13.1-10.482 0 0.061 13.087 10.476 0.013M311.937 914.432l0.03 7.609 4.797 0-0.024-7.609-4.803 0M370.862 924.836l-0.061-13.087-10.446-0.012 0.049 13.099 10.458 0M363.18 914.481l0.055 7.585 4.791 0-0.043-7.585-4.803 0M370.783 903.506l-0.061-13.101-10.458 0 0.037 13.101 10.489 0-0.006 0zM363.101 893.163l0.03 7.597 4.791 0-0.006-7.597-4.815 0M319.534 903.458l-0.073-13.076-10.464-0.013 0.049 13.082 10.489 0 0 0.007zM311.851 893.115l0.024 7.585 4.803 0.012-0.036-7.597-4.791 0M338.502 903.481l-0.049-13.076-10.47-0.012 0.043 13.087 10.476 0M330.826 893.127l0.024 7.585 4.797 0.024-0.03-7.609-4.791 0M353.124 903.506l-0.073-13.101-10.464-0.012 0.049 13.087 10.489 0.025M345.435 893.14l0.037 7.609 4.797 0-0.024-7.609-4.809 0" style="fill:none;stroke-width:1.16422367;stroke:#000"/>
<path d="m355.717 899.488 0.116 30.199-30.333-0.049-0.11-30.174 30.321 0.024" fill="#fff"/>
<path d="m355.717 899.488 0.116 30.199-30.333-0.049-0.11-30.174 30.321 0.024 0.006 0zM325.207 908.108l30.54 0.024M325.207 908.108l30.54 0.024M325.207 908.108l30.54 0.024M325.207 908.108l30.54 0.024M325.207 908.108l30.54 0.024M329.018 929.675l-0.103-21.342M352.143 929.687l-0.103-21.329M366.79 886.626l-17.081-12.474-19.193-0.024-16.947 12.449 53.222 0.049M331.994 863.799l0.03 7.609 16.144 0.012-0.03-7.609-16.144-0.012M331.994 863.799l0.03 7.609 16.144 0.012-0.03-7.609-16.144-0.012" style="fill:none;stroke-width:1.16422367;stroke:#000"/>
<path d="m331.994 863.799 0.03 7.609 16.144 0.012-0.03-7.609-16.144-0.012" style="fill:none;stroke-width:1.16422367;stroke:#000"/>
<path d="m336.371 865.686 0.024 3.792 7.414 0-0.024-3.792-7.414 0M340.036 855.142l8.979 6.348-17.891-0.024 8.912-6.325M340.036 855.142l8.979 6.348-17.891-0.024 8.912-6.325M340.036 855.142l8.979 6.348-17.891-0.024 8.912-6.325M340.036 855.142l8.979 6.348-17.891-0.024 8.912-6.325M340.036 855.142l8.979 6.348-17.891-0.024 8.912-6.325" style="fill:none;stroke-width:1.16422367;stroke:#000"/>
<path d="m376.341 850.838c2.551-0.061 3.208 10.507 3.214 15.742 2.191 0.615 7.049 3.671 9.198 6.434l-24.642-0.036c2.118-2.727 6.94-5.795 9.113-6.409 0-5.242 0.536-15.803 3.117-15.742" fill="#fff"/>
<path d="m376.341 850.838c2.551-0.061 3.208 10.507 3.214 15.742 2.191 0.615 7.049 3.671 9.198 6.434l-24.642-0.036c2.118-2.727 6.94-5.795 9.113-6.409 0-5.242 0.536-15.803 3.117-15.742M326.808 900.335l2.21 0-0.645 1.186M326.808 900.335l2.21 0-0.645 1.186M326.808 900.335l2.21 0-0.645 1.186M326.808 900.335l2.21 0-0.645 1.186M326.808 900.335l2.21 0-0.645 1.186c0 0 1.065 1.37 0.018 2.94l0.578 1.09-2.131 0 0.578-1.035c0 0-1.09-1.82 0.049-2.995l-0.657-1.186M331.313 900.335l2.21 0-0.639 1.186c0 0 1.065 1.334 0.006 2.94l0.572 1.09-2.124 0 0.572-1.035c0 0-1.065-1.82 0.055-2.995l-0.651-1.186M336.225 900.335l2.204 0-0.657 1.186c0 0 1.077 1.37 0.018 2.94l0.578 1.114-2.112-0.024 0.566-1.035c0 0-1.077-1.808 0.043-2.995l-0.645-1.186 0.006 0zM341.771 900.346l2.222 0-0.651 1.199c0 0 1.065 1.346 0.006 2.922l0.597 1.108-2.143 0 0.572-1.035c0 0-1.065-1.832 0.073-2.995l-0.67-1.199-0.006 0zM346.701 900.346l2.204 0-0.651 1.199c0 0 1.071 1.346 0.012 2.916l0.584 1.114-2.124 0 0.554-1.035c0 0-1.071-1.82 0.085-2.995l-0.664-1.199M351.602 900.359l2.204-0.012-0.651 1.199c0 0 1.09 1.346 0.03 2.922l0.554 1.108-2.131 0 0.572-1.035c0 0-1.065-1.82 0.073-2.995l-0.651-1.187" style="fill:none;stroke-width:1.16422367;stroke:#000"/>
<path d="m340.699 968.397c11.359 0.037 25.329-2.283 31.873-5.667l14.372-1.273 0.286 17.538c-12.175 6.714-40.286 8.156-46.471 8.108-6.191 0.049-34.649-1.418-46.879-8.156l0.158-17.55 14.403 1.297c6.544 3.367 20.94 5.704 32.287 5.704l-0.03 0" fill="#f9d90f"/>
<path d="m340.699 968.397c11.359 0.037 25.329-2.283 31.873-5.667l14.372-1.273 0.286 17.538c-12.175 6.714-40.286 8.156-46.471 8.108-6.191 0.049-34.649-1.418-46.879-8.156l0.158-17.55 14.403 1.297c6.544 3.367 20.94 5.704 32.287 5.704l-0.03 0" style="fill:none;stroke-width:0.27124387;stroke:#000"/>
<path d="m256.883 893.589 12.662 4.03-3.829 20.503-11.986 1.862c0 0-2.021-10.781 3.153-26.407" fill="#f9d90f"/>
<path d="m256.883 893.589 12.662 4.03-3.829 20.503-11.986 1.862c0 0-2.021-10.781 3.153-26.407l0 0.012z" style="fill:none;stroke-width:0.27124387;stroke:#000"/>
<path d="m265.709 917.896-11.98 2.088 7.579-10.781 4.401 8.693" fill="#7e7e7e"/>
<path d="m265.709 917.896-11.98 2.088 7.579-10.781 4.401 8.693" style="fill:#f9b60f;stroke-width:0.27124387;stroke:#000"/>
<path d="m249.31 908.358 12.205 0.882c0.274 10.343 1.528 49.813 48.656 51.956l-1.467 14.36c-57.367 0.596-61.726-48.413-59.394-67.198" fill="#f9d90f"/>
<path d="m249.31 908.358 12.205 0.882c0.274 10.343 1.528 49.813 48.656 51.956l-1.467 14.36c-57.367 0.596-61.726-48.413-59.394-67.198zM294.107 978.496l14.384-3.141M294.107 978.496l14.384-3.141M294.107 978.496l14.384-3.141M294.107 978.496l14.384-3.141M294.107 978.496l14.384-3.141" style="fill:none;stroke-width:0.27124387;stroke:#000"/>
<path d="m423.518 893.735-12.613 3.993 3.999 20.472 12.01 1.929c0 0 1.93-10.774-3.397-26.406" fill="#ff0"/>
<path d="m423.518 893.735-12.613 3.993 3.999 20.472 12.01 1.929c0 0 1.93-10.774-3.397-26.406l0 0.012z" style="fill:#f9d90f;stroke-width:0.27124387;stroke:#000"/>
<path d="m414.904 917.987 12.01 2.155-7.682-10.786-4.328 8.631" fill="#7e7e7e"/>
<path d="m414.904 917.987 12.01 2.155-7.682-10.786-4.328 8.631" style="fill:#f9b60f;stroke-width:0.27124387;stroke:#000"/>
<path d="m431.23 908.522-12.223 0.835c-0.177 10.33-1.077 49.818-48.206 51.912l1.601 14.348c57.355 0.663 61.3-48.322 58.828-67.101" fill="#f9d90f"/>
<path d="m431.23 908.522-12.223 0.835c-0.177 10.33-1.077 49.818-48.206 51.912l1.601 14.348c57.355 0.663 61.3-48.322 58.828-67.101l0 0.005zM387.036 978.575 372.615 975.416" style="fill:none;stroke-width:0.27124387;stroke:#000"/>
<path d="m333.072 977.041c-0.323 0.207-0.761 0.262-1.266 0.237l-2.277-0.116 0.195-2.842 2.258 0.121c0.444 0.03 0.797 0.116 1.017 0.25 0.457 0.237 0.657 0.676 0.615 1.284-0.03 0.524-0.213 0.865-0.548 1.065m-3.823 4.475 0.225-3.464 2.654 0.183c0.858 0.067 1.497-0.158 1.93-0.597 0.45-0.426 0.682-0.986 0.712-1.619 0.055-0.737-0.134-1.34-0.572-1.784-0.42-0.426-1.017-0.651-1.765-0.724l-3.792-0.237-0.524 8.156 1.126 0.074M337.497 974.691l2.776 0.03M337.497 974.691l2.776 0.03M337.497 974.691l2.776 0.03M337.497 974.691l2.776 0.03M337.497 974.691l2.776 0.03c0.402 0.037 0.718 0.085 0.95 0.195 0.426 0.201 0.627 0.603 0.627 1.187 0 0.548-0.158 0.914-0.469 1.133-0.298 0.2-0.73 0.292-1.248 0.292l-2.666-0.03 0.024-2.806m-0.043 7.226 0.024-3.482 2.605 0.037c0.463 0 0.804 0.036 1.041 0.152 0.384 0.177 0.572 0.548 0.59 1.059l0.067 1.37c0.018 0.329 0.024 0.53 0.043 0.664 0.037 0.097 0.055 0.201 0.103 0.275l1.4 0-0.024-0.177c-0.158-0.085-0.286-0.249-0.341-0.499-0.049-0.158-0.073-0.396-0.085-0.694l-0.024-1.09c-0.018-0.493-0.103-0.833-0.292-1.023-0.164-0.219-0.39-0.408-0.737-0.524 0.39-0.206 0.682-0.444 0.895-0.737 0.201-0.323 0.304-0.73 0.304-1.229 0-0.937-0.383-1.577-1.163-1.924-0.42-0.189-0.956-0.287-1.589-0.298l-3.914-0.037-0.03 8.181 1.126 0M346.135 980.206c-0.499-0.608-0.767-1.369-0.828-2.27-0.055-1.133 0.164-1.997 0.682-2.582 0.524-0.633 1.199-0.937 2.082-0.986 0.889-0.049 1.619 0.237 2.161 0.797 0.554 0.548 0.87 1.309 0.925 2.259 0.03 0.913-0.128 1.722-0.548 2.434-0.414 0.725-1.102 1.133-2.118 1.157-1.059 0.055-1.851-0.194-2.356-0.81m-1.339-5.15c-0.524 0.81-0.737 1.747-0.682 2.88 0.079 1.223 0.457 2.234 1.169 2.995 0.791 0.761 1.838 1.144 3.129 1.071 1.382-0.061 2.423-0.584 3.129-1.546 0.572-0.87 0.846-1.882 0.785-3.129-0.079-1.114-0.402-2.021-1.004-2.697-0.761-0.907-1.875-1.308-3.385-1.247-1.424 0.091-2.471 0.614-3.147 1.673M383.238 963.29c0.785-0.134 1.467-0.097 2.088 0.116 0.913 0.286 1.528 0.962 1.911 1.997l-1.126 0.158c-0.243-0.559-0.59-0.943-1.059-1.157-0.457-0.2-1.029-0.25-1.686-0.152-0.767 0.116-1.382 0.499-1.814 1.114-0.426 0.657-0.554 1.534-0.365 2.653 0.158 0.926 0.499 1.711 1.059 2.234 0.517 0.536 1.278 0.724 2.271 0.584 0.743-0.122 1.339-0.419 1.759-0.931 0.438-0.486 0.566-1.224 0.42-2.173l-2.624 0.402-0.134-0.901 3.652-0.561 0.712 4.328-0.724 0.11-0.45-0.998c-0.304 0.451-0.609 0.798-0.877 0.998-0.45 0.354-1.059 0.579-1.82 0.688-0.986 0.152-1.887-0.025-2.703-0.548-0.895-0.664-1.473-1.65-1.692-3.019-0.237-1.345-0.024-2.496 0.597-3.403 0.59-0.876 1.449-1.387 2.605-1.552M391.498 962.656l2.618-0.95c0.359-0.133 0.67-0.177 0.937-0.145 0.481 0.036 0.834 0.322 1.035 0.894 0.189 0.487 0.189 0.913-0.024 1.212-0.225 0.31-0.578 0.536-1.09 0.724l-2.459 0.883-1.017-2.618m2.618 6.764-1.278-3.281 2.435-0.877c0.457-0.146 0.773-0.225 1.011-0.2 0.432 0.054 0.761 0.317 0.98 0.815l0.554 1.249c0.122 0.31 0.219 0.499 0.298 0.584 0.037 0.11 0.116 0.177 0.177 0.249l1.321-0.486-0.073-0.177c-0.195 0-0.383-0.11-0.524-0.323-0.103-0.152-0.201-0.371-0.341-0.626l-0.432-1.023c-0.195-0.444-0.396-0.718-0.627-0.883-0.231-0.128-0.524-0.213-0.87-0.237 0.268-0.311 0.463-0.622 0.536-0.987 0.079-0.371 0.043-0.785-0.134-1.247-0.335-0.87-0.95-1.345-1.814-1.406-0.457-0.036-0.98 0.061-1.583 0.273l-3.677 1.309 2.971 7.694 1.077-0.396M403.691 965.366l-4.669-6.812 5.126-3.269 0.566 0.822-4.2 2.684 1.437 2.082 3.878-2.496 0.53 0.797-3.878 2.496 1.583 2.295 4.273-2.734 0.566 0.804-5.217 3.33M407.776 953.325l1.339-1.473c0.621-0.657 1.278-0.956 1.997-0.87 0.718 0.061 1.449 0.438 2.228 1.12 0.213 0.164 0.402 0.377 0.597 0.615 0.341 0.444 0.542 0.835 0.67 1.224 0.11 0.488 0.085 0.932-0.085 1.358-0.103 0.212-0.286 0.462-0.56 0.761l-1.345 1.461-4.839-4.206m7.074 3.207c0.95-1.046 1.157-2.173 0.603-3.445-0.323-0.688-0.816-1.358-1.497-1.942-0.858-0.761-1.753-1.151-2.697-1.223-1.047-0.08-1.936 0.298-2.709 1.144l-2.283 2.447 6.294 5.491 2.283-2.459M419.725 950.171l-7.244-4.255 0.59-0.937 7.256 4.231-0.597 0.973M422.568 945.229l-7.822-3.13 2.307-5.503 0.95 0.365-1.881 4.535 2.356 0.926 1.759-4.177 0.901 0.372-1.741 4.17 2.636 1.071 1.93-4.589 0.95 0.359-2.35 5.601M426.16 935.623l-8.23-1.82 0.274-1.272 7.603-2.569-6.678-1.473 0.244-0.998 8.23 1.771-0.262 1.236-7.615 2.624 6.678 1.443-0.237 1.059M425.508 925.171l0.103-1.035c0.475 0.013 0.877-0.061 1.181-0.225 0.597-0.323 0.944-0.937 1.035-1.845 0.037-0.425 0.018-0.797-0.079-1.151-0.177-0.681-0.56-1.059-1.175-1.12-0.457-0.049-0.785 0.061-1.023 0.311-0.213 0.286-0.438 0.699-0.609 1.284l-0.377 1.077c-0.243 0.706-0.469 1.193-0.712 1.466-0.39 0.512-0.937 0.688-1.637 0.64-0.749-0.079-1.357-0.377-1.79-0.95-0.444-0.524-0.627-1.272-0.517-2.198 0.073-0.846 0.353-1.558 0.852-2.13 0.463-0.524 1.181-0.774 2.1-0.676l-0.085 1.035c-0.45 0-0.81 0.079-1.071 0.262-0.475 0.262-0.737 0.816-0.816 1.625-0.067 0.67 0.024 1.12 0.28 1.462 0.256 0.286 0.578 0.468 0.956 0.499 0.402 0.037 0.718-0.091 0.937-0.401 0.158-0.214 0.347-0.676 0.603-1.425l0.371-1.132c0.183-0.524 0.402-0.925 0.657-1.211 0.457-0.475 1.053-0.676 1.802-0.62 0.913 0.097 1.564 0.475 1.899 1.169 0.329 0.7 0.457 1.473 0.377 2.35-0.103 0.992-0.426 1.771-1.023 2.295-0.597 0.535-1.339 0.718-2.24 0.645M254.898 924.672l0.189 1.022c-0.457 0.091-0.822 0.275-1.09 0.512-0.481 0.45-0.645 1.126-0.481 2.045 0.073 0.389 0.213 0.772 0.39 1.077 0.365 0.621 0.84 0.87 1.443 0.772 0.444-0.079 0.737-0.249 0.877-0.566 0.134-0.311 0.231-0.786 0.262-1.394l0.055-1.151c0.037-0.712 0.116-1.272 0.274-1.583 0.25-0.56 0.718-0.907 1.418-1.022 0.749-0.135 1.406 0.036 1.972 0.462 0.572 0.396 0.95 1.084 1.09 1.997 0.177 0.835 0.097 1.583-0.231 2.258-0.317 0.658-0.925 1.059-1.857 1.23l-0.183-1.034c0.432-0.158 0.755-0.311 0.968-0.524 0.365-0.408 0.475-0.998 0.335-1.808-0.11-0.658-0.335-1.084-0.676-1.297-0.335-0.25-0.67-0.348-1.035-0.286-0.408 0.061-0.676 0.286-0.804 0.651-0.079 0.243-0.14 0.748-0.195 1.522l-0.055 1.193c-0.03 0.56-0.116 1.023-0.304 1.34-0.298 0.584-0.804 0.943-1.54 1.059-0.931 0.158-1.65-0.055-2.161-0.651-0.524-0.584-0.846-1.284-1.01-2.155-0.183-1.035-0.049-1.838 0.365-2.483 0.42-0.664 1.084-1.047 1.984-1.175M254.381 935.465l8.047-2.423 1.875 5.667-0.98 0.31-1.534-4.657-2.447 0.737 1.418 4.303-0.937 0.298-1.406-4.315-2.727 0.815 1.558 4.76-0.962 0.275-1.905-5.771M257.948 945.289l7.402-3.926 0.791 1.381-5.089 5.381 7.433-1.272 0.767 1.37-7.384 3.902-0.524-0.908 4.359-2.294c0.158-0.092 0.402-0.226 0.755-0.414 0.347-0.158 0.737-0.372 1.126-0.573l-7.402 1.26-0.542-0.962 5.053-5.363-0.243 0.122c-0.158 0.091-0.432 0.225-0.804 0.438-0.365 0.226-0.639 0.365-0.816 0.438l-4.346 2.331-0.536-0.925M271.742 956.192c-0.371-0.085-0.737-0.298-1.096-0.67l-1.564-1.613 2.106-1.93 1.577 1.608c0.304 0.298 0.499 0.59 0.603 0.84 0.146 0.48 0 0.919-0.444 1.333-0.402 0.371-0.804 0.524-1.181 0.432m-5.947 0.749 2.581-2.368 1.832 1.857c0.59 0.603 1.193 0.877 1.826 0.865 0.645-0.037 1.199-0.275 1.686-0.737 0.548-0.487 0.81-1.059 0.81-1.673-0.006-0.597-0.28-1.157-0.785-1.68l-2.63-2.685-6.124 5.625 0.791 0.797M273.178 963.515l4.438-6.958 5.247 3.19-0.548 0.828-4.31-2.581-1.333 2.106 3.963 2.404-0.511 0.798-3.969-2.392-1.51 2.355 4.365 2.624-0.524 0.822-5.308-3.196M286.315 962.169l2.666 0.847c0.377 0.115 0.651 0.261 0.834 0.426 0.341 0.323 0.432 0.785 0.231 1.345-0.164 0.487-0.414 0.804-0.804 0.938-0.347 0.06-0.785 0.06-1.297-0.098l-2.514-0.803 0.883-2.655m-2.301 6.836 1.108-3.318 2.484 0.81c0.444 0.116 0.767 0.275 0.925 0.438 0.304 0.274 0.396 0.682 0.244 1.188l-0.371 1.32c-0.085 0.323-0.128 0.536-0.164 0.633 0 0.104 0 0.214 0.018 0.286l1.309 0.426 0.079-0.189c-0.14-0.11-0.219-0.31-0.213-0.559 0.03-0.153 0.073-0.396 0.158-0.676l0.317-1.059c0.128-0.463 0.177-0.81 0.061-1.059-0.097-0.262-0.262-0.5-0.536-0.724 0.414-0.074 0.773-0.201 1.077-0.427 0.286-0.25 0.53-0.597 0.676-1.083 0.298-0.883 0.134-1.62-0.524-2.18-0.329-0.292-0.797-0.542-1.412-0.773l-3.725-1.15-2.605 7.761 1.09 0.335M295.318 827.761 295.318 827.761" fill="#012a87"/>
<path d="m295.318 827.761c0.962-2.32 9.874-8.645 39.117-5.875 0 0 4.943 3.019 7.847 2.63 1.656-0.214-0.974 0.103-3.135-1.693-2.204-1.795-2.672-5.478 2.362-5.381 5.01 0.128 23.765 1.187 24.118 2.873 0.329 1.704-9.916 2.417-13.727 2.319-3.829-0.103-3.385 1.833 0.426 1.687 11.907-0.426 24.903-4.621 38.63 5.089 1.637 1.18-4.139 1.369-8.608-0.53 0 0-12.108 0.628-17.343-0.231 0 0-4.024 3.274-9.265 2.952 0.682 1.698-1.936 8.035-18.414 3.268-2.721 0.835-12.637 2.496-11.554-0.45-2.611 0-7.189 0.84-7.871-0.646-0.657-1.46 8.06-3.671 9.588-5.253 0 0-18.439 0.177-21.933-1.096 0 0-10.878 2.441-10.239 0.323" fill="#bc715f"/>
<path d="m301.229 853.583c0.396-0.535 0.554-1.497 1.394-1.473 1.826 0.486 3.068 3.828 5.314 1.661 0.797-0.177 1.102 0.908 1.759 1.035 0.42 1.857 1.911-0.377 3.025-0.25 2.38-1.059 5.326-1.309 8.145-0.785 0.085 1.82-1.339 3.829-3.129 4.864 0.037 1.833 1.698 3.008 1.668 4.852-0.286 0.688-0.049 1.771-1.09 1.997-1.321-0.237-2.624-0.377-3.719-1.114-0.134-0.134-0.243-0.396-0.524-0.31-0.134 0.615 0.828 1.224 1.205 1.851-0.664 1.132-1.765 0.097-2.691 0.11-0.274 0.651-0.012 1.473-0.682 1.893-1.169-0.036-1.406-1.308-2.124-1.942-0.737 0.797 0.517 1.272 0.694 1.905-0.45 2.398-0.39 4.742-2.788 6.313l-1.607 0.798c-0.438-1.205-0.164-3.032-0.457-4.292-0.95 1.546-1.692 2.898-3.086 4.206-1.631-0.536-2.581-2.459-2.94-4.054-0.682-1.857-0.292-4.079 1.175-5.424-0.499-0.974-2.21-0.749-2.453-2.136-2.563-1.669-3.981 2.922-5.637 0.535-0.536-2.227 0.103-4.998 1.717-6.66-0.359-0.912-1.552-0.675-2.258-1.199-1.613-1.37-3.939-2.818-3.823-5.291 4.413-1.667 9.691-0.444 12.899 2.91" fill="#008830"/>
<path d="m303.518 853.334c-0.103 2.02 1.364 0.547 2.453 1.771-0.852-0.335-1.473 1.473-2.307 0.438l-0.524 0.5c0.304 0.693 0.895 0.785 0.28 1.546-0.913 0.347-1.096-0.797-1.522-1.248-0.073-0.2 0.14-0.578-0.195-0.712-0.517 0.438-1.059 0.597-1.771 0.524-0.195-0.39-0.572-0.901-0.189-1.199 0.7-0.944 1.784 0.34 2.313-0.323 0.085-0.584-0.426-1.297 0.237-1.699 0.457 0.079 1.041-0.17 1.23 0.402M308.978 854.99 308.978 854.99 308.978 854.99 308.978 854.99 308.978 854.99c0.055 0.39-0.201 0.937 0.31 1.212 0.664-0.36 1.37-0.086 1.753 0.572-0.006 0.352 0.103 0.815-0.359 0.986l-1.035-0.194c0.073-0.201-0.256-0.329-0.384-0.524-0.457-0.14-0.724 0.231-1.065 0.456 0.256 0.39 0.846 0.603 0.706 1.102-0.609 0.608-0.907-0.524-1.577-0.238-0.457-0.176 0.164-1.126-0.554-1.412-0.852 0-0.286 1.399-1.376 0.852-0.39-0.439-0.773-1.029-0.353-1.522 0.457-0.305 1.23-0.226 1.619 0.17 0.664-0.736 0.73-3.579 2.319-1.461M302.179 857.924c0.444 0.64-0.097 1.51 0.469 2.222 0.889-1.661 1.747 0.359 2.806 0.201 0.323 0.396 0.11 0.944 0.17 1.394-1.309 0.347-2.885 0.761-4.042-0.286l-0.323 0.371c0.688 0.64 1.339 1.364 0.791 2.435-0.98 0.213-2.496 0.237-2.989-0.773-0.256-0.833 0.597-1.436-0.304-2.106-0.651 0.81-0.621 1.894-1.978 1.157-0.84-0.463-1.09-1.418-0.67-2.222 0.877-1.382 2.411 0.043 3.36-0.633 0.134-1.187-0.304-2.222 0.785-2.879 0.931-0.165 1.364 0.535 1.93 1.119" fill="#f9d90f"/>
<path d="m305.892 858.648c-0.438 2.021-1.96-0.103-2.672-0.189 0.95-1.686 1.546 0.548 2.672 0.189M310.634 860.846 310.634 860.846 310.634 860.846 310.634 860.846 310.634 860.846c-1.059 0.298-0.895-1.023-1.418-1.541l0.408-0.371c0.384 0.463 0.676 1.297 1.011 1.912" fill="#fff"/>
<path d="m309.197 860.444c0.304 0.7-0.688 1.261 0.158 1.771 0.268-0.225 0.597-0.536 0.737-0.664 0.724 0.214 1.564 0.342 2.07 1.059 0.542 1.486-0.962 1.449-1.814 1.863l-0.846-0.036c0.201-0.414-0.365-0.59-0.505-0.876-0.39-0.097-0.712 0.024-0.931 0.352 0.189 0.944 1.339 1.68 0.152 2.52-1.004-0.066-2.563 0.323-2.471-1.065-0.377-0.785 1.023-1.997-0.475-2.045-0.493 1.059-1.035 2.081-2.319 1.077l0.158-1.51c1.23 0.036 2.685 0.249 3.238-1.126 0.353-0.998-0.615-1.918 0.25-2.709 1.254-0.286 1.96 0.554 2.599 1.387" fill="#f9d90f"/>
<path d="m308.296 862.714c0.317 0.749-0.536 0.798-0.937 1.169-0.542 0.043-0.919-0.17-1.248-0.536-0.243-0.907 0.432-0.998 0.95-1.357 0.603-0.25 0.852 0.45 1.236 0.724" fill="#000"/>
<path d="m307.56 863.201c-0.134 0.177-0.323 0.122-0.524 0.17l-0.189-0.906c0.402 0.036 0.925 0.164 0.712 0.736" fill="#fff"/>
</g>
</svg>
